<?xml version="1.0" standalone="no"?>
<!DOCTYPE svg PUBLIC "-//W3C//DTD SVG 20010904//EN"
 "http://www.w3.org/TR/2001/REC-SVG-20010904/DTD/svg10.dtd">
<svg version="1.0" xmlns="http://www.w3.org/2000/svg"
 width="600.000000pt" height="600.000000pt" viewBox="0 0 600.000000 600.000000"
 preserveAspectRatio="xMidYMid meet">
<metadata>
Created by potrace 1.11, written by Peter Selinger 2001-2013
</metadata>
<g transform="translate(0.000000,600.000000) scale(0.100000,-0.100000)"
fill="#000000" stroke="none">
<path d="M0 3000 l0 -3000 3000 0 3000 0 0 3000 0 3000 -3000 0 -3000 0 0
-3000z m3475 785 c258 -429 475 -790 482 -801 13 -21 -2 -31 -472 -308 -429
-254 -524 -304 -499 -264 4 6 2 8 -4 4 -6 -3 -13 -2 -17 4 -4 6 -10 8 -15 5
-4 -2 -19 4 -33 15 -14 11 -30 20 -36 20 -5 0 -15 8 -20 18 -6 9 -11 13 -11 9
0 -5 -5 -5 -11 -2 -7 5 -4 14 8 28 l18 22 -22 -18 c-21 -19 -23 -18 -62 4 -23
12 -41 27 -41 31 0 5 -4 7 -9 4 -4 -3 -17 1 -27 9 -19 13 -19 14 1 30 19 16
18 16 -7 1 -24 -14 -29 -14 -42 -1 -8 8 -20 15 -26 15 -7 0 -9 7 -5 18 5 13 4
14 -6 5 -10 -10 -18 -8 -37 10 -13 12 -26 21 -28 19 -5 -3 -66 28 -74 37 -3 3
-22 15 -42 25 -21 10 -35 23 -32 28 3 5 0 8 -7 7 -21 -4 -69 23 -62 34 3 6 1
7 -5 3 -14 -9 -85 38 -74 49 4 5 1 5 -5 1 -13 -7 -148 66 -170 91 -6 8 -20 16
-30 18 -10 2 -19 4 -21 4 -7 2 40 81 49 81 6 0 8 4 5 8 -5 9 40 82 58 94 6 4
7 8 2 8 -5 0 0 10 12 23 12 13 19 27 15 30 -3 4 -1 7 6 7 7 0 9 5 6 10 -3 6
-1 10 4 10 6 0 11 7 11 15 0 8 5 15 11 15 5 0 8 4 5 9 -3 5 5 20 18 34 13 14
21 28 18 31 -3 3 0 6 7 6 7 0 9 5 6 10 -3 6 1 13 9 16 9 3 13 10 10 15 -3 5 0
9 6 9 6 0 8 5 5 10 -3 6 1 13 9 16 9 3 14 10 11 14 -3 5 3 16 12 26 10 10 19
21 19 26 1 4 2 12 3 17 0 4 13 21 29 36 15 16 20 25 12 20 -10 -6 -9 -1 3 13
11 11 26 36 36 54 9 18 22 32 28 31 7 -2 10 5 8 15 -5 27 48 98 71 94 18 -3
18 -3 -1 12 -11 8 -14 16 -7 16 6 0 12 7 12 15 0 8 5 15 11 15 5 0 8 4 4 9 -3
6 3 14 12 20 10 6 14 11 10 11 -4 0 -3 9 3 20 6 11 15 18 20 15 5 -3 12 0 16
6 4 8 3 9 -4 5 -21 -13 -13 10 18 52 17 23 30 44 30 47 0 16 58 94 65 88 4 -5
5 -2 1 5 -5 7 -2 21 6 30 8 9 20 29 27 44 8 15 18 25 22 22 4 -2 11 1 15 7 4
8 3 9 -4 5 -19 -11 -14 8 7 31 11 12 18 23 15 26 -2 2 2 10 11 17 8 7 15 19
15 26 0 8 5 14 11 14 5 0 8 -4 5 -8 -2 -4 0 -14 6 -22 8 -12 9 -12 4 2 -3 10
-1 20 3 23 5 3 7 14 4 24 -4 18 56 125 80 142 5 3 9 10 10 15 1 5 5 8 10 7 4
-2 6 0 6 5 -1 4 0 10 1 15 5 15 8 28 9 44 0 10 4 13 9 8 5 -6 220 -361 477
-790z m468 -1043 c-10 -16 -227 -322 -482 -680 l-465 -651 -18 30 c-10 17 -16
35 -12 40 3 5 0 8 -8 7 -7 -2 -12 5 -12 15 1 10 0 16 -3 13 -9 -9 -63 58 -58
72 2 6 -3 12 -11 12 -10 0 -14 6 -11 15 4 8 1 17 -5 21 -7 5 -8 2 -4 -7 4 -8
1 -5 -8 6 -8 11 -21 27 -29 35 -29 33 -46 70 -41 87 4 13 3 14 -3 5 -8 -10
-16 -5 -36 22 -15 19 -27 37 -27 40 0 3 -9 15 -21 27 -11 11 -18 27 -15 35 3
8 2 13 -3 10 -4 -3 -16 3 -26 14 -10 11 -14 20 -10 20 5 0 1 6 -9 13 -10 7
-16 22 -14 33 2 13 -2 18 -13 16 -9 -1 -24 14 -37 37 -12 21 -40 61 -62 87
-22 27 -38 55 -35 62 3 7 1 11 -4 7 -10 -5 -51 45 -51 63 0 5 -7 13 -16 16 -9
4 -14 13 -10 21 3 8 1 14 -4 12 -12 -3 -90 110 -86 125 1 7 1 9 -2 5 -5 -9
-32 11 -32 25 0 5 5 6 12 2 7 -4 8 -3 4 5 -4 6 -11 9 -16 6 -11 -7 -51 49 -53
74 0 11 -6 19 -12 18 -5 -1 -9 4 -7 11 1 6 -5 12 -14 12 -10 0 -14 6 -10 15 3
8 0 14 -6 12 -6 -1 -17 8 -23 21 -7 12 -21 33 -32 45 -11 12 -29 35 -39 51
l-18 29 32 -17 c18 -9 32 -21 32 -26 0 -6 9 -10 20 -10 11 0 23 -7 26 -15 4
-8 9 -13 14 -10 4 2 16 -3 26 -11 10 -9 14 -13 8 -10 -6 3 -11 -1 -11 -9 0
-11 4 -12 13 -4 9 7 21 6 41 -6 15 -8 48 -27 73 -41 25 -14 49 -30 55 -36 7
-8 6 -9 -4 -3 -9 5 -12 4 -7 -3 4 -6 14 -8 23 -5 13 5 15 2 9 -13 -6 -15 -5
-16 5 -7 14 14 53 -2 44 -17 -4 -6 1 -7 11 -3 12 4 15 3 10 -5 -4 -7 -2 -10 6
-7 8 3 24 -4 36 -15 12 -11 22 -18 22 -15 0 3 9 1 20 -5 11 -6 17 -16 14 -22
-4 -6 -3 -8 4 -5 15 10 44 -4 38 -18 -2 -7 3 -12 12 -12 35 0 43 -3 36 -15 -4
-7 -3 -8 5 -4 10 7 57 -20 89 -51 8 -7 17 -11 22 -8 4 3 11 -2 14 -11 3 -8 10
-13 15 -10 5 3 19 -2 32 -12 13 -10 36 -23 52 -30 15 -6 27 -16 27 -22 0 -6
-4 -8 -10 -5 -6 4 -7 -1 -3 -11 4 -11 8 -13 11 -6 2 7 9 9 14 6 7 -4 8 -2 4 4
-5 8 -1 10 9 6 9 -4 14 -12 12 -18 -3 -6 7 -11 24 -12 20 -1 166 81 506 282
263 156 480 283 481 284 2 0 -4 -13 -15 -28z"/>
<path d="M2926 4422 c-3 -5 1 -9 9 -9 8 0 12 4 9 9 -3 4 -7 8 -9 8 -2 0 -6 -4
-9 -8z"/>
<path d="M2894 4378 l-19 -23 23 19 c21 18 27 26 19 26 -2 0 -12 -10 -23 -22z"/>
<path d="M2910 4332 c0 -4 9 -8 19 -8 11 0 17 4 15 8 -3 4 -12 8 -20 8 -8 0
-14 -4 -14 -8z"/>
<path d="M2840 4066 c0 -9 -5 -16 -11 -16 -5 0 -7 -5 -3 -12 5 -7 2 -9 -8 -5
-11 4 -15 0 -13 -11 4 -30 -14 -53 -38 -48 -12 3 -16 3 -9 0 6 -3 9 -11 6 -16
-5 -7 -2 -8 5 -3 15 9 -34 -71 -62 -102 -11 -13 -17 -23 -13 -23 4 0 -1 -13
-10 -29 -10 -17 -22 -27 -28 -24 -5 4 -7 -1 -3 -10 4 -10 0 -20 -11 -26 -9 -6
-13 -11 -9 -11 4 0 3 -9 -3 -20 -6 -11 -9 -20 -6 -20 2 0 57 24 121 53 l116
52 1 140 c0 94 -3 140 -11 143 -6 2 -11 -3 -11 -12z"/>
<path d="M3130 3936 l0 -133 58 -26 c33 -15 84 -38 116 -52 l57 -25 -12 22
c-26 48 -211 348 -215 348 -2 0 -4 -60 -4 -134z"/>
<path d="M2655 3980 c-16 -17 -16 -20 -3 -15 9 4 19 13 22 21 7 19 2 18 -19
-6z"/>
<path d="M2650 3899 c0 -5 5 -7 10 -4 6 3 10 8 10 11 0 2 -4 4 -10 4 -5 0 -10
-5 -10 -11z"/>
<path d="M2670 3880 c-9 -6 -10 -10 -3 -10 6 0 15 5 18 10 8 12 4 12 -15 0z"/>
<path d="M2844 3664 c-18 -15 -18 -15 2 -5 12 6 25 7 29 3 5 -4 5 -1 1 6 -9
15 -8 15 -32 -4z"/>
<path d="M2805 3649 c-5 -8 -4 -10 3 -5 7 4 12 4 12 1 0 -3 -28 -19 -62 -35
-35 -17 -57 -30 -50 -30 7 0 12 -6 10 -12 -2 -7 2 -13 7 -13 6 0 9 3 7 8 -1 4
16 -5 38 -19 22 -15 37 -30 34 -35 -3 -5 2 -6 11 -3 8 4 22 1 30 -6 13 -11 15
-8 15 14 0 15 5 37 11 48 8 15 8 19 -1 13 -8 -5 -11 0 -10 16 4 46 0 61 -14
56 -7 -3 -18 -1 -24 5 -6 6 -12 6 -17 -3z"/>
<path d="M3130 3569 l0 -70 58 32 c91 51 91 52 24 82 -33 15 -65 27 -71 27 -7
0 -11 -25 -11 -71z"/>
<path d="M2461 3584 c0 -11 3 -14 6 -6 3 7 2 16 -1 19 -3 4 -6 -2 -5 -13z"/>
<path d="M2485 3550 c-3 -5 0 -7 7 -5 22 9 19 -37 -3 -65 -12 -14 -17 -18 -13
-10 4 9 3 12 -2 7 -9 -9 -10 -13 -13 -43 0 -8 -5 -12 -11 -9 -5 3 -10 -2 -10
-12 0 -24 -58 -115 -69 -109 -5 3 -14 -1 -20 -8 -9 -11 -9 -16 0 -22 7 -4 9
-3 5 4 -3 6 -2 13 4 17 18 11 11 -14 -18 -60 -16 -25 -31 -43 -34 -40 -3 4 -5
-2 -4 -12 0 -10 -5 -17 -12 -15 -6 1 -11 -1 -10 -5 4 -15 -14 -53 -24 -53 -6
0 -8 -3 -5 -6 3 -4 2 -15 -4 -25 -8 -16 -6 -18 8 -16 10 2 33 11 51 20 18 10
38 15 44 11 6 -4 8 -3 5 3 -6 9 153 86 179 86 8 0 14 4 14 8 0 8 40 22 59 19
7 -1 10 3 7 8 -3 6 8 15 24 21 17 5 30 7 30 3 0 -4 4 -2 8 5 8 13 96 53 118
53 8 0 14 4 14 10 0 5 15 13 33 18 l32 9 -33 17 c-18 9 -30 21 -27 26 3 6 -1
7 -9 4 -9 -4 -26 6 -42 23 -15 15 -24 23 -20 16 4 -7 -5 -6 -24 4 -22 11 -29
20 -25 31 3 9 3 13 -1 10 -4 -4 -16 -3 -27 3 -15 9 -18 8 -12 -3 3 -7 -1 -4
-9 6 -9 11 -16 16 -16 12 0 -4 -18 3 -40 15 -21 12 -37 26 -34 30 2 4 -1 11
-7 15 -8 4 -9 3 -5 -4 10 -17 -3 -15 -20 3 -18 17 -30 19 -39 5z"/>
<path d="M3305 3439 c-82 -49 -151 -93 -153 -97 -2 -7 579 -275 584 -269 5 4
-270 457 -276 456 -3 0 -72 -41 -155 -90z"/>
<path d="M2419 3493 c-13 -16 -12 -17 4 -4 16 13 21 21 13 21 -2 0 -10 -8 -17
-17z"/>
<path d="M2843 3465 c0 -8 4 -12 9 -9 5 3 6 10 3 15 -9 13 -12 11 -12 -6z"/>
<path d="M2376 3455 c4 -8 8 -15 10 -15 2 0 4 7 4 15 0 8 -4 15 -10 15 -5 0
-7 -7 -4 -15z"/>
<path d="M2319 3343 c-13 -16 -12 -17 4 -4 9 7 17 15 17 17 0 8 -8 3 -21 -13z"/>
<path d="M2339 3333 c-13 -16 -12 -17 4 -4 16 13 21 21 13 21 -2 0 -10 -8 -17
-17z"/>
<path d="M2210 3225 c0 -2 6 -8 13 -14 10 -8 14 -7 14 2 0 8 -6 14 -14 14 -7
0 -13 -1 -13 -2z"/>
<path d="M2667 3219 c7 -7 15 -10 18 -7 3 3 -2 9 -12 12 -14 6 -15 5 -6 -5z"/>
<path d="M2834 3193 c10 -10 -108 -61 -120 -52 -6 5 -19 -1 -32 -16 -12 -14
-27 -25 -32 -25 -6 0 -43 -15 -83 -34 -164 -78 -230 -106 -238 -100 -5 3 -9
-1 -9 -8 0 -14 15 -41 21 -38 9 4 58 -24 54 -30 -3 -4 3 -7 13 -6 10 0 17 -6
16 -15 -1 -9 5 -16 12 -16 7 0 11 5 8 11 -3 6 0 4 8 -4 7 -8 20 -16 28 -18 8
-2 17 -7 20 -10 3 -4 31 -20 63 -37 31 -16 57 -32 57 -36 0 -4 12 -10 26 -13
20 -5 24 -11 19 -29 -7 -21 -6 -21 7 -4 13 18 15 18 29 1 8 -11 9 -15 2 -10
-19 11 -16 1 4 -15 11 -10 14 -10 9 -1 -12 20 18 14 42 -8 12 -12 22 -18 22
-14 0 3 9 -4 21 -17 11 -13 17 -18 14 -11 -6 11 -3 11 13 1 12 -7 24 -10 28
-7 3 4 6 132 6 284 -1 250 -3 278 -17 280 -9 1 -14 0 -11 -3z"/>
<path d="M2240 3169 c0 -15 18 -19 23 -6 3 8 -1 14 -9 14 -8 0 -14 -4 -14 -8z"/>
<path d="M3130 2905 l0 -276 28 15 c90 48 495 293 496 300 1 9 -490 236 -511
236 -10 0 -13 -58 -13 -275z"/>
<path d="M2565 3111 c-3 -5 -2 -12 3 -15 5 -3 9 1 9 9 0 17 -3 19 -12 6z"/>
<path d="M2609 3103 c-13 -16 -12 -17 4 -4 16 13 21 21 13 21 -2 0 -10 -8 -17
-17z"/>
<path d="M2106 3081 c-4 -5 -2 -12 3 -15 5 -4 12 -2 15 3 4 5 2 12 -3 15 -5 4
-12 2 -15 -3z"/>
<path d="M2546 3082 c-3 -5 1 -9 9 -9 8 0 12 4 9 9 -3 4 -7 8 -9 8 -2 0 -6 -4
-9 -8z"/>
<path d="M2350 3026 c0 -2 7 -7 16 -10 8 -3 12 -2 9 4 -6 10 -25 14 -25 6z"/>
<path d="M2109 2944 c-7 -8 -7 -14 1 -19 6 -4 9 -1 8 6 -2 7 2 13 9 14 17 0
25 12 8 12 -8 0 -20 -6 -26 -13z"/>
<path d="M2406 2808 c3 -5 10 -6 15 -3 13 9 11 12 -6 12 -8 0 -12 -4 -9 -9z"/>
<path d="M2354 2788 c-4 -7 -4 -10 1 -6 4 4 15 2 24 -5 14 -11 14 -10 2 6 -16
20 -18 21 -27 5z"/>
<path d="M2427 2779 c7 -7 15 -10 18 -7 3 3 -2 9 -12 12 -14 6 -15 5 -6 -5z"/>
<path d="M2554 2718 l-19 -23 23 19 c21 18 27 26 19 26 -2 0 -12 -10 -23 -22z"/>
<path d="M2506 2707 c3 -10 9 -15 12 -12 3 3 0 11 -7 18 -10 9 -11 8 -5 -6z"/>
<path d="M2733 2673 c4 -6 2 -13 -5 -15 -8 -3 -6 -6 4 -10 17 -7 19 15 3 29
-4 4 -5 3 -2 -4z"/>
<path d="M2653 2635 c0 -8 4 -12 9 -9 4 3 8 9 8 15 0 5 -4 9 -8 9 -5 0 -9 -7
-9 -15z"/>
<path d="M2803 2605 c0 -8 4 -12 9 -9 5 3 6 10 3 15 -9 13 -12 11 -12 -6z"/>
<path d="M2840 2616 c0 -2 8 -10 18 -17 15 -13 16 -12 3 4 -13 16 -21 21 -21
13z"/>
<path d="M2120 2666 c0 -2 7 -9 15 -16 13 -11 14 -10 9 4 -5 14 -24 23 -24 12z"/>
<path d="M2330 2510 c0 -5 5 -10 11 -10 5 0 7 5 4 10 -3 6 -8 10 -11 10 -2 0
-4 -4 -4 -10z"/>
<path d="M2375 2381 c-3 -5 -2 -12 3 -15 5 -3 9 1 9 9 0 17 -3 19 -12 6z"/>
<path d="M2644 2349 c-3 -6 -2 -15 4 -21 6 -6 12 -6 17 3 6 8 4 10 -5 4 -10
-6 -12 -4 -7 8 7 19 2 23 -9 6z"/>
<path d="M2507 2334 c-5 -6 23 -52 50 -81 6 -7 15 -22 18 -33 3 -11 11 -20 16
-20 6 0 7 -4 4 -10 -3 -5 -2 -10 3 -10 11 0 55 -60 55 -76 0 -7 3 -11 7 -9 9
6 93 -113 93 -131 0 -7 5 -12 11 -11 6 1 10 -6 10 -15 -1 -10 2 -16 6 -13 7 4
38 -34 42 -52 3 -14 29 -36 35 -29 3 3 5 64 5 136 -1 72 2 129 7 126 4 -3 8 1
8 9 0 8 -5 13 -11 12 -6 -1 -10 3 -9 10 2 7 -3 10 -11 7 -8 -3 -24 4 -35 15
-12 12 -23 21 -26 21 -3 0 -9 0 -14 0 -5 0 -17 8 -27 18 -10 9 -21 17 -24 17
-16 0 -129 71 -130 80 0 6 -10 11 -21 12 -12 1 -29 9 -38 17 -10 9 -20 13 -24
10z"/>
<path d="M3298 2219 l-168 -100 0 -135 c0 -74 3 -134 8 -134 4 1 77 100 162
221 149 211 175 250 168 248 -2 0 -78 -45 -170 -100z"/>
<path d="M2745 2229 c-6 -8 -4 -10 5 -4 10 6 12 4 6 -11 -6 -15 -5 -17 5 -6 9
9 10 15 2 23 -8 8 -13 7 -18 -2z"/>
<path d="M2915 2191 c-3 -5 -2 -12 3 -15 5 -3 9 1 9 9 0 17 -3 19 -12 6z"/>
<path d="M2947 2179 c7 -7 15 -10 18 -7 3 3 -2 9 -12 12 -14 6 -15 5 -6 -5z"/>
<path d="M2524 2134 c-18 -14 -18 -15 3 -5 16 8 23 8 26 -2 4 -9 6 -9 6 0 2
20 -15 23 -35 7z"/>
<path d="M2694 2032 c3 -5 0 -13 -6 -15 -9 -4 -10 -6 -1 -6 17 -1 25 16 12 25
-7 4 -9 3 -5 -4z"/>
<path d="M2783 1795 c0 -8 4 -12 9 -9 5 3 6 10 3 15 -9 13 -12 11 -12 -6z"/>
<path d="M2915 1569 c-6 -8 -4 -10 5 -4 10 6 12 4 6 -11 -6 -15 -5 -17 5 -6 9
9 10 15 2 23 -8 8 -13 7 -18 -2z"/>
</g>
</svg>
