<svg width="245" height="79" viewBox="0 0 245 79" fill="none" xmlns="http://www.w3.org/2000/svg">
<path d="M10.0012 23.0577C10.8641 23.0577 11.57 22.9388 12.1584 22.7406C12.7075 22.5425 13.1781 22.2654 13.492 21.9079C13.8059 21.5516 14.0804 21.1551 14.1981 20.6802C14.3158 20.2052 14.3943 19.7692 14.3943 19.2541C14.3943 18.7384 14.3158 18.2242 14.1588 17.828C14.002 17.392 13.7665 17.0355 13.4136 16.7574C13.0607 16.4403 12.6291 16.2422 12.0409 16.0846C11.4919 15.9262 10.7857 15.847 9.96213 15.847H5.3732V23.0964H10.0012V23.0577ZM5.3732 4.95158V12.0831H8.94239C9.68759 12.0831 10.3544 12.0036 10.9819 11.885C11.5703 11.766 12.08 11.5679 12.4723 11.2909C12.8645 11.0133 13.1784 10.6567 13.3743 10.1823C13.5704 9.70689 13.6879 9.1917 13.6879 8.51813C13.6879 7.84481 13.6095 7.29017 13.4133 6.85419C13.2172 6.41847 12.982 6.02221 12.6291 5.74488C12.2761 5.46756 11.8052 5.26968 11.2561 5.15102C10.7071 5.03261 10.0403 4.95264 9.29507 4.95264L5.3732 4.95158ZM9.256 0.830933C11.0209 0.830933 12.5113 0.989316 13.7665 1.3461C15.0217 1.66315 16.0414 2.13835 16.8257 2.77246C17.6102 3.36658 18.1984 4.11935 18.5513 4.99105C18.9043 5.86276 19.1004 6.85314 19.1004 7.92297C19.1004 8.51709 19.022 9.11172 18.8259 9.66637C18.6691 10.221 18.3945 10.7362 18.0023 11.2509C17.6493 11.7255 17.1787 12.2018 16.5903 12.5972C16.0021 12.9943 15.3351 13.3508 14.5508 13.6271C16.3157 14.0631 17.6493 14.7364 18.5123 15.6875C19.3749 16.6384 19.8065 17.9061 19.8065 19.4117C19.8065 20.521 19.6104 21.5519 19.179 22.5417C18.7477 23.4937 18.12 24.3246 17.2964 25.0387C16.4728 25.752 15.4531 26.3066 14.2765 26.7018C13.1 27.0986 11.688 27.296 10.1583 27.296H0V0.870402H9.256V0.830933ZM31.612 8.16056C33.024 8.16056 34.2792 8.39841 35.4166 8.83413C36.5541 9.27011 37.5345 9.94344 38.3581 10.7757C39.1817 11.6077 39.8092 12.6377 40.2408 13.8262C40.6721 15.015 40.9076 16.3619 40.9076 17.8677C40.9076 19.374 40.6724 20.7202 40.2408 21.9089C39.8094 23.0977 39.1817 24.1275 38.3581 24.9595C37.5345 25.7925 36.5538 26.4253 35.4166 26.9018C34.2792 27.3375 33.024 27.5754 31.612 27.5754C30.2 27.5754 28.945 27.3378 27.7685 26.9018C26.631 26.4661 25.6506 25.7925 24.8268 24.9595C24.0032 24.1275 23.3757 23.0982 22.905 21.9089C22.4344 20.7202 22.2383 19.374 22.2383 17.8677C22.2383 16.3619 22.4735 15.015 22.905 13.8262C23.3757 12.6377 24.0032 11.6084 24.8268 10.7757C25.6506 9.94344 26.631 9.31063 27.7685 8.83413C28.9057 8.35868 30.2002 8.16056 31.612 8.16056ZM31.612 23.771C33.024 23.771 34.083 23.2963 34.7889 22.3059C35.4557 21.3153 35.8086 19.8495 35.8086 17.868C35.8086 15.9264 35.4557 14.4606 34.7889 13.4702C34.1221 12.4799 33.0633 12.005 31.612 12.005C30.1609 12.005 29.1018 12.4799 28.396 13.4702C27.7292 14.4606 27.3762 15.9264 27.3762 17.868C27.3762 19.81 27.7292 21.3151 28.396 22.3059C29.1018 23.2558 30.1609 23.771 31.612 23.771ZM60.4005 8.47762V27.2578H57.3418C56.7138 27.2578 56.2822 26.9802 56.1259 26.3858L55.8123 25.0784C55.4193 25.4349 55.0669 25.7917 54.6749 26.0688C54.2826 26.3858 53.8513 26.6237 53.4197 26.8613C52.9883 27.0989 52.4778 27.2575 51.9686 27.3765C51.4589 27.4951 50.8705 27.5754 50.2821 27.5754C49.2623 27.5754 48.3603 27.417 47.5758 27.0594C46.7913 26.7029 46.1247 26.2272 45.6147 25.5944C45.105 24.9595 44.6734 24.2067 44.3989 23.335C44.1243 22.4636 43.9675 21.5127 43.9675 20.4436V8.51787H48.9485V20.4436C48.9485 21.4729 49.1839 22.3057 49.6546 22.8603C50.1253 23.4539 50.8311 23.732 51.7725 23.732C52.4786 23.732 53.1457 23.5737 53.7335 23.2566C54.361 22.9395 54.9494 22.5433 55.4985 21.9886V8.4784L60.4005 8.47762ZM69.1074 10.6567C69.4999 10.3002 69.8526 9.94344 70.284 9.66637C70.7155 9.38879 71.1086 9.11173 71.5785 8.87387C72.0489 8.63706 72.5206 8.47761 73.0295 8.35894C73.5395 8.24002 74.1277 8.16056 74.7161 8.16056C75.7358 8.16056 76.6383 8.31896 77.4223 8.67575C78.2066 9.03253 78.8734 9.50876 79.3834 10.1416C79.9325 10.7757 80.325 11.5284 80.599 12.4001C80.8738 13.2719 80.9918 14.2235 80.9918 15.2923V27.257H76.0103V15.3315C76.0103 14.3017 75.7754 13.4697 75.3042 12.9148C74.8338 12.3207 74.1277 12.0434 73.1858 12.0434C72.4797 12.0434 71.8126 12.2012 71.2248 12.4791C70.5968 12.7961 70.0094 13.1924 69.4603 13.747V27.2573H64.4792V8.47682H67.5378C68.1661 8.47682 68.5974 8.75442 68.7936 9.34853L69.1074 10.6567ZM104.328 27.2578H99.3853V12.0831H91.1495V21.8692C91.1495 22.3841 91.2667 22.8201 91.5017 23.0964C91.7369 23.4142 92.0898 23.5718 92.561 23.5718C92.796 23.5718 92.9923 23.5323 93.189 23.4924C93.3453 23.4529 93.5029 23.3737 93.6206 23.2942C93.7381 23.2142 93.8558 23.1756 93.973 23.0953C94.0902 23.0566 94.1697 23.0161 94.2869 23.0161C94.4431 23.0161 94.5617 23.0556 94.6395 23.1348C94.7185 23.2143 94.8357 23.3329 94.9143 23.4913L96.4047 25.9083C95.7379 26.4627 94.9539 26.8592 94.091 27.1355C93.2281 27.4131 92.3266 27.5717 91.3847 27.5717C90.5609 27.5717 89.8162 27.4531 89.1489 27.2157C88.4821 26.9779 87.933 26.6213 87.5017 26.1454C87.0701 25.6704 86.7174 25.1158 86.4827 24.4819C86.2475 23.8473 86.1298 23.0943 86.1298 22.2633V12.1205H84.3648C84.0903 12.1205 83.8952 12.0407 83.6986 11.8829C83.5022 11.7245 83.4238 11.4469 83.4238 11.1301V9.1491L86.4048 8.59445L87.424 3.72075C87.5418 3.1661 87.934 2.88825 88.5222 2.88825H91.111V8.59367H104.328L104.328 27.2578ZM105.112 3.08952C105.112 3.48656 105.033 3.88176 104.877 4.27827C104.72 4.63453 104.484 4.95159 104.21 5.2297C103.935 5.50729 103.583 5.70437 103.23 5.90328C102.877 6.10141 102.445 6.14008 102.014 6.14008C101.622 6.14008 101.23 6.0609 100.837 5.90328C100.445 5.74489 100.131 5.50624 99.8567 5.2297C99.5819 4.95211 99.3467 4.63558 99.1902 4.27827C99.0339 3.92201 98.955 3.52524 98.955 3.08952C98.955 2.65354 99.0339 2.25728 99.1902 1.90075C99.3467 1.54501 99.583 1.18744 99.8567 0.910381C100.132 0.632795 100.445 0.395209 100.837 0.236812C101.23 0.0789385 101.583 0 102.014 0C102.445 0 102.838 0.0791998 103.23 0.236812C103.622 0.395209 103.936 0.63384 104.21 0.910381C104.485 1.18797 104.72 1.5045 104.877 1.90075C105.034 2.25728 105.112 2.65354 105.112 3.08952ZM120.409 15.6486C120.409 15.1329 120.33 14.6188 120.212 14.1423C120.056 13.6679 119.86 13.2319 119.546 12.8743C119.232 12.5175 118.879 12.2404 118.408 12.0026C117.937 11.8045 117.388 11.6858 116.761 11.6858C115.584 11.6858 114.643 12.0415 113.976 12.7151C113.309 13.3887 112.878 14.3793 112.643 15.647H120.409V15.6486V15.6486ZM112.564 18.6205C112.72 20.3639 113.231 21.6718 114.055 22.503C114.879 23.335 115.977 23.7313 117.31 23.7313C117.977 23.7313 118.604 23.651 119.075 23.4934C119.585 23.335 120.016 23.1369 120.408 22.9388C120.801 22.7406 121.114 22.5425 121.427 22.3841C121.741 22.2257 122.055 22.1465 122.329 22.1465C122.721 22.1465 122.995 22.3049 123.231 22.5822L124.681 24.4056C124.171 25.0397 123.583 25.5547 122.917 25.9501C122.25 26.3472 121.622 26.6634 120.917 26.9018C120.25 27.1394 119.544 27.2981 118.838 27.3765C118.132 27.4564 117.465 27.4951 116.799 27.4951C115.504 27.4951 114.289 27.297 113.15 26.8613C112.013 26.4253 111.032 25.7915 110.209 24.9595C109.385 24.1275 108.718 23.0587 108.248 21.8295C107.778 20.5615 107.542 19.1354 107.542 17.4712C107.542 16.2025 107.739 14.9753 108.17 13.866C108.601 12.7169 109.19 11.766 109.975 10.8943C110.759 10.0624 111.701 9.38879 112.837 8.9136C113.975 8.43814 115.23 8.16056 116.642 8.16056C117.818 8.16056 118.916 8.35895 119.936 8.71547C120.955 9.07173 121.818 9.66638 122.524 10.3794C123.231 11.0925 123.819 12.0039 124.211 13.0735C124.604 14.1433 124.799 15.3321 124.799 16.7184C124.799 17.1149 124.799 17.392 124.76 17.6288C124.722 17.8667 124.682 18.0648 124.564 18.2232C124.486 18.3811 124.368 18.4608 124.211 18.54C124.055 18.5794 123.897 18.6194 123.662 18.6194L112.564 18.6205ZM139.509 12.3207C139.392 12.5188 139.235 12.6772 139.117 12.7567C138.999 12.8359 138.803 12.8753 138.568 12.8753C138.333 12.8753 138.097 12.7961 137.823 12.6772C137.587 12.5585 137.273 12.4396 136.959 12.2802C136.645 12.1223 136.293 12.0026 135.9 11.8839C135.508 11.765 135.037 11.6858 134.488 11.6858C133.664 11.6858 133.076 11.8437 132.606 12.2007C132.175 12.5178 131.939 12.9932 131.939 13.5084C131.939 13.9047 132.057 14.1817 132.332 14.4593C132.567 14.6969 132.92 14.9345 133.351 15.1329C133.783 15.331 134.253 15.4894 134.763 15.6486C135.273 15.8065 135.822 16.0043 136.411 16.2024C136.959 16.4016 137.508 16.6384 138.057 16.876C138.568 17.1136 139.077 17.4307 139.469 17.8277C139.901 18.2242 140.214 18.6599 140.489 19.2146C140.724 19.7692 140.881 20.4031 140.881 21.1561C140.881 22.0673 140.725 22.8993 140.371 23.6918C140.057 24.4446 139.547 25.1179 138.92 25.6725C138.292 26.2274 137.508 26.6632 136.528 26.9802C135.586 27.297 134.488 27.4554 133.234 27.4554C132.606 27.4554 131.978 27.4159 131.351 27.297C130.724 27.1784 130.136 27.0197 129.547 26.8218C128.998 26.6237 128.449 26.3472 127.978 26.0688C127.468 25.7915 127.077 25.4752 126.684 25.1584L127.821 23.2963C127.939 23.0587 128.135 22.8993 128.331 22.7806C128.528 22.6617 128.802 22.5822 129.116 22.5822C129.429 22.5822 129.704 22.6617 129.939 22.8201C130.175 22.9785 130.488 23.1369 130.802 23.2953C131.117 23.4531 131.469 23.651 131.9 23.7699C132.332 23.9283 132.842 24.0075 133.509 24.0075C133.979 24.0075 134.41 23.9681 134.764 23.8497C135.117 23.731 135.392 23.5721 135.627 23.4132C135.863 23.215 136.02 23.0169 136.098 22.7793C136.215 22.5417 136.254 22.3046 136.254 22.0263C136.254 21.63 136.137 21.2735 135.862 20.997C135.587 20.7194 135.274 20.5215 134.842 20.3234C134.411 20.1252 133.941 19.9668 133.392 19.8074C132.843 19.6495 132.294 19.4904 131.745 19.2922C131.195 19.0941 130.646 18.8565 130.097 18.6189C129.548 18.3413 129.078 18.0253 128.685 17.5896C128.254 17.1926 127.94 16.6784 127.666 16.0835C127.391 15.4899 127.274 14.7758 127.274 13.9041C127.274 13.1127 127.43 12.3986 127.705 11.6863C128.019 10.973 128.45 10.3789 129.078 9.82425C129.666 9.30828 130.411 8.8723 131.314 8.55551C132.216 8.23845 133.236 8.08084 134.413 8.08084C135.746 8.08084 136.923 8.31764 138.021 8.75389C139.119 9.18961 139.982 9.744 140.688 10.4581L139.509 12.3207Z" transform="translate(104.079 15.7363)" fill="white"/>
<path d="M1.01999 0.118135C1.09839 0.118135 1.17679 0.118135 1.25545 0.118135C1.33411 0.118135 1.37319 0.157604 1.41226 0.157604C1.45133 0.196288 1.49066 0.196292 1.56906 0.237067C1.60839 0.276536 1.64746 0.355739 1.72586 0.395469L7.37359 7.68563C7.33452 7.52776 7.33452 7.3291 7.33452 7.17045C7.33452 7.01179 7.33452 6.85338 7.33452 6.69499V0.0789374H9.09945V11.0141H8.07972C7.92292 11.0141 7.80519 10.9746 7.68746 10.9338C7.56972 10.8951 7.49132 10.7759 7.37359 10.6565L1.72586 3.40605C1.72586 3.56445 1.76493 3.7231 1.76493 3.88149C1.76493 4.03937 1.76493 4.19828 1.76493 4.31721V11.013H0V0.118135H1.01999ZM29.024 0.118135V1.74262H24.2389V4.75398H28.0042V6.29926H24.2389V9.38878H29.024V11.0141H22.2388V0.118135H29.024ZM49.3405 0.118135V1.78209H46.0851V11.0135H44.085V1.78209H40.8297V0.118135H49.3405ZM60.5971 0.118135H62.2842C62.4405 0.118135 62.598 0.157608 62.7155 0.237067C62.8332 0.316266 62.9116 0.435187 62.951 0.553854L64.7943 7.05151C64.8326 7.20939 64.8727 7.36857 64.9113 7.5667C64.9503 7.76482 64.9904 7.96295 65.029 8.16082C65.0678 7.96269 65.1079 7.76378 65.1465 7.5667C65.1855 7.36857 65.2639 7.21017 65.3033 7.05151L67.4211 0.553854C67.4602 0.435187 67.5389 0.316266 67.6563 0.237067C67.7741 0.157608 67.9311 0.0791927 68.0879 0.0791927H68.6761C68.8324 0.0791927 68.9899 0.117884 69.1077 0.197344C69.2251 0.277326 69.3038 0.396245 69.3429 0.514912L71.461 7.01179C71.5785 7.32858 71.6571 7.68511 71.7358 8.08162C71.7746 7.8835 71.815 7.68511 71.8535 7.52775C71.8923 7.36936 71.9324 7.17123 71.9707 7.01179L73.8143 0.514912C73.8534 0.396245 73.9318 0.277326 74.0495 0.197344C74.167 0.117884 74.3243 0.0791927 74.4809 0.0791927H76.0497L72.7154 10.9746H70.9109L68.5576 3.52628C68.5182 3.44682 68.4784 3.32815 68.4784 3.20922C68.4398 3.09029 68.3997 2.97163 68.3997 2.85271C68.3607 2.97163 68.3211 3.09029 68.3211 3.20922C68.3211 3.32815 68.2427 3.40735 68.2427 3.52628L65.85 10.9746H63.9278L60.5971 0.118135ZM98.5236 5.5857C98.5236 6.37794 98.4062 7.13071 98.1314 7.80429C97.8566 8.47787 97.5039 9.07224 97.0332 9.58716C96.5628 10.1021 95.9742 10.4589 95.3074 10.7362C94.6408 11.0138 93.8956 11.1719 93.0713 11.1719C92.2474 11.1719 91.5027 11.014 90.8354 10.7362C90.1686 10.4589 89.5802 10.0626 89.1095 9.58716C88.6394 9.0712 88.2466 8.51655 88.0114 7.80429C87.7369 7.13071 87.6191 6.37794 87.6191 5.5857C87.6191 4.79372 87.7369 4.04067 88.0114 3.36787C88.2862 2.6943 88.6394 2.09914 89.1095 1.585C89.5802 1.06982 90.1686 0.713299 90.8354 0.435974C91.502 0.158388 92.2474 0 93.0713 0C93.8956 0 94.6398 0.158388 95.3074 0.435974C95.9744 0.713561 96.5628 1.10955 97.0332 1.585C97.5039 2.05993 97.8962 2.65483 98.1314 3.32841C98.3666 4.04067 98.5236 4.75373 98.5236 5.5857ZM96.4451 5.5857C96.4451 4.9921 96.3662 4.43666 96.2096 3.96121C96.0534 3.48576 95.8171 3.08951 95.5436 2.77272C95.2688 2.45566 94.8768 2.17834 94.4843 2.01994C94.0524 1.86154 93.5826 1.74235 93.0723 1.74235C92.5618 1.74235 92.0528 1.82234 91.6603 2.01994C91.2287 2.17781 90.8763 2.45566 90.601 2.77272C90.2871 3.08951 90.0907 3.52549 89.9344 3.96121C89.7782 4.43666 89.6995 4.95185 89.6995 5.5857C89.6995 6.21955 89.7782 6.73472 89.9344 7.21017C90.0907 7.68562 90.3272 8.08187 90.601 8.39945C90.9148 8.7165 91.2675 8.99304 91.6603 9.15222C92.0922 9.3101 92.5618 9.42981 93.0723 9.42981C93.5826 9.42981 94.0524 9.35061 94.4843 9.15222C94.9154 8.99409 95.268 8.7165 95.5436 8.39945C95.8182 8.08187 96.0536 7.68614 96.2096 7.21017C96.3664 6.69499 96.4451 6.17982 96.4451 5.5857ZM113.153 6.77445V11.0146H111.153V0.118135H114.447C115.192 0.118135 115.82 0.197594 116.33 0.355729C116.839 0.514125 117.271 0.712258 117.624 0.989844C117.976 1.26743 118.211 1.58396 118.369 1.98022C118.526 2.37725 118.604 2.77272 118.604 3.24896C118.604 3.6047 118.565 3.96226 118.447 4.27827C118.33 4.59506 118.173 4.91212 117.978 5.14998C117.781 5.38757 117.546 5.66568 117.232 5.86329C116.918 6.06168 116.604 6.21928 116.213 6.33795C116.448 6.49635 116.683 6.69448 116.88 6.97285L119.586 10.9743H117.781C117.625 10.9743 117.467 10.9351 117.35 10.8556C117.232 10.7762 117.115 10.6978 117.035 10.5386L114.761 7.05204C114.682 6.93311 114.565 6.81444 114.486 6.77445C114.368 6.73577 114.251 6.69526 114.055 6.69526H113.153L113.153 6.77445ZM113.153 5.30811H114.409C114.801 5.30811 115.115 5.26865 115.389 5.14998C115.664 5.07052 115.899 4.91212 116.095 4.75346C116.291 4.5948 116.409 4.39693 116.488 4.15934C116.567 3.92174 116.605 3.68467 116.605 3.40656C116.605 2.85191 116.409 2.4162 116.057 2.13862C115.704 1.86103 115.155 1.70288 114.41 1.70288H113.115V5.30811H113.153V5.30811ZM133.901 4.67427H134.371C134.567 4.67427 134.724 4.63479 134.841 4.59428C134.959 4.55533 135.076 4.47535 135.155 4.35643L138.136 0.552817C138.254 0.394943 138.371 0.275483 138.529 0.236015C138.647 0.156555 138.843 0.156567 139.039 0.156567H140.765L137.117 4.67321C136.999 4.83109 136.882 4.9508 136.803 5.02896C136.686 5.1092 136.568 5.18735 136.45 5.26655C136.607 5.34601 136.764 5.42494 136.882 5.5044C136.999 5.5836 137.157 5.74199 137.274 5.94012L141 11.0512H139.235C139 11.0512 138.804 11.0125 138.686 10.9322C138.569 10.853 138.49 10.7744 138.373 10.6154L135.314 6.6137C135.196 6.49478 135.117 6.37611 134.961 6.33612C134.843 6.29743 134.647 6.25692 134.451 6.25692H133.823V11.0112H131.823V0.118135H133.823V4.6753L133.901 4.67427Z" transform="translate(104 47.8281)" fill="white"/>
<path d="M5.80556 0V1.14903H3.60929V7.44883H2.23585V1.14903H0V0H5.80556ZM14.6305 7.44856H13.2576V4.1996H9.80609V7.44856H8.43265V0H9.80609V3.20923H13.2576V0H14.6305V7.44856ZM22.4354 0V1.1093H19.1801V3.16951H21.7686V4.23934H19.1801V6.33927H22.4354V7.44856H17.7681V0H22.4354Z" transform="translate(161.576 9)" fill="white"/>
<path d="M8.97946 12.0317C9.71354 12.5562 11.32 12.4872 12.1935 12.4514L13.2067 12.2765C13.3115 12.2765 13.3115 12.1367 13.2415 12.1367C11.6696 11.4378 5.41603 7.9746 4.08847 5.59614C3.80844 5.07167 4.89146 1.5042 4.89146 1.5042L0 0C0 0 1.78137 5.00152 2.51545 6.01585C3.59916 7.55466 7.02316 10.6676 8.97946 12.0317Z" transform="translate(42.5437 60.4818)" fill="white"/>
<path d="M16.1331 9.55689C15.5742 8.96227 13.7923 8.33282 12.9541 8.43757C12.919 7.73797 12.7794 6.47905 12.5699 5.95435C12.1156 4.55537 10.2291 1.37278 9.39087 0.0434868C9.35583 -0.0614998 9.21616 0.0434872 9.25119 0.148474L12.1857 8.57763C11.0328 8.82268 9.77507 9.31208 8.58741 10.8513C8.62222 10.8165 8.69228 10.7464 8.69228 10.7115C8.51758 10.8864 8.41271 10.9914 8.41271 10.9914C8.41271 10.9914 7.53943 9.59242 7.12019 9.31254C5.75782 8.4731 1.63524 7.91356 0.0981775 7.73866C-0.00669048 7.73866 -0.0414895 7.87849 0.0633785 7.87849L8.09857 11.376C8.09857 11.376 8.06353 11.5159 7.9937 11.6908C8.02873 11.5858 8.09857 11.5509 8.13337 11.446C8.23824 11.3061 8.30808 11.1663 8.41271 11.0262C8.30784 11.1661 8.23801 11.3061 8.13337 11.446C6.56127 13.9643 3.80129 22.1135 6.31673 23.7225C9.67067 25.821 17.7757 15.3284 17.7757 15.3284C17.7757 15.3284 17.1811 10.6762 16.1331 9.55689Z" transform="translate(0 8.98956)" fill="white"/>
<path d="M22.8636 34.0892C21.7107 33.2849 15.5272 28.9121 14.479 26.4988C13.8853 25.0648 14.7238 22.4766 14.479 20.2033C14.4444 19.4686 13.1867 15.4473 13.1867 15.4473C13.1867 15.4473 9.86849 6.66834 8.1906 4.07967C5.85078 0.547046 3.5446 -0.432211 1.27323 0.162406C-1.10232 0.826936 0.574648 3.83486 0.574648 3.83486C0.574648 3.83486 7.21267 12.2635 8.7147 15.4819C9.72789 17.7201 10.0771 22.8614 11.1951 25.1008C12.2083 27.1636 16.2258 31.1517 18.3568 33.1801C19.1955 33.9845 20.3133 34.4044 21.4662 34.2994L22.758 34.1954C22.8636 34.2293 22.9336 34.1243 22.8636 34.0892Z" transform="translate(23.9082 44.6847)" fill="white"/>
<path d="M6.36736 0.788965C4.16629 -0.0855389 3.293 -1.27454 2.9088 3.6919C2.73409 5.96538 0.672918 12.1907 1.26663 14.4294C1.4063 14.8842 2.10511 16.1431 2.14014 16.6327C2.17518 17.8919 0.603078 20.9349 0.00913318 21.984C-0.0258996 22.089 0.0439397 22.1239 0.148808 22.089C0.952258 21.4245 2.83896 19.7456 3.36284 18.8713C3.39787 18.8363 3.4677 18.7315 3.4677 18.6265C3.74705 18.1717 4.16629 17.2624 4.27115 15.9684C4.37602 15.0939 4.23612 13.8698 5.00477 12.7856C5.38898 12.331 10.28 13.625 10.28 13.625C10.28 13.625 4.96973 11.6314 5.1094 10.8619C5.42378 9.35795 5.80822 8.02889 6.19243 7.2243C6.19266 7.29445 9.30205 2.01304 6.36736 0.788965Z" transform="translate(9.94041 24.1931)" fill="white"/>
<path d="M17.8172 0.279654C17.1534 0.174668 16.4551 0.104756 15.721 0C13.7296 3.8822 10.9348 7.51958 8.73423 8.84864C6.32365 10.3526 3.14443 11.5068 0 12.3462C3.59824 11.7516 6.42853 11.1221 8.13983 10.6673C12.5063 9.44326 23.8262 7.20485 23.5467 2.65812C23.4768 1.11909 19.3547 0.559311 17.8172 0.279654Z" transform="translate(56.8334 13.7551)" fill="white"/>
<path d="M0.279567 0.104984L0.174702 0C0.0354928 0.244815 0 0.384641 0 0.384641L3.94788 3.35749C3.94788 3.35749 11.4242 2.79795 18.6557 0.839199C10.5857 1.01433 0.279567 0.104984 0.279567 0.104984Z" transform="translate(38.2125 25.2968)" fill="white"/>
<path d="M0 4.89653L4.33208 8.91855C5.0657 7.51957 7.68602 2.76288 9.60752 0C5.97402 1.46889 0 4.89653 0 4.89653Z" transform="translate(33.9853 17.0776)" fill="white"/>
<path d="M0 15.389C0 15.389 0.663775 16.613 1.71199 17.5224C2.02637 17.8371 5.65987 21.7193 9.11867 21.9641C16.0008 22.4189 18.7615 15.6686 19.6688 13.3257C20.2282 11.8914 20.682 8.74411 20.7871 7.20508C20.8217 6.4704 20.3686 4.30214 20.3686 4.30214L17.1195 3.04299L14.6041 0L11.4949 6.8202L0 15.389Z" transform="translate(40.134 42.8546)" fill="white"/>
<path d="M0.420909 0.061281C0.420909 0.061281 -1.91984 -0.883138 4.43862 4.64308C7.82782 7.58086 3.49527 9.81949 3.32056 12.1627C3.14586 14.6461 4.82283 19.9621 5.55645 22.3404C6.29006 24.7537 9.22475 31.7137 9.22475 31.7137C9.19018 31.1193 9.25978 30.7344 9.39945 30.5595C9.53912 30.3846 9.67902 30.3145 9.85396 30.3145C10.2386 30.3493 10.6929 30.734 10.9722 31.1188L11.217 31.4336C11.217 31.4336 11.1827 31.2938 11.0421 31.0487C10.3783 29.7547 8.21294 25.277 7.37377 23.5289C7.2689 23.3533 7.23456 23.1443 7.19907 22.9345C7.05986 22.6198 6.91973 22.3399 6.81486 22.0944C6.22092 20.5902 6.57032 16.6736 7.47864 15.2742C8.59716 13.5603 10.3785 13.1405 10.3785 13.1405C11.2177 12.5459 13.1392 11.9864 13.7327 11.077C13.8373 10.9372 14.6763 9.39816 14.6763 9.25833C15.1289 6.00721 0.420909 0.061281 0.420909 0.061281Z" transform="translate(14.2099 35.3433)" fill="white"/>
<path d="M0 0C0.104868 0.245046 0.174702 0.384874 0.174702 0.384874C0.174702 0.384874 0.104868 0.245046 0 0Z" transform="translate(25.1814 66.3926)" fill="white"/>
<path d="M0 11.5769C0 11.5769 1.95631 4.44197 4.78613 0C1.32733 3.60254 0.174473 8.35924 0 11.5769Z" transform="translate(13.4782 21.7992)" fill="white"/>
<path d="M2.06072 1.39897C2.06072 1.39897 1.22223 0.839431 0 0L1.78137 1.25915C1.95608 1.36413 2.06072 1.39897 2.06072 1.39897Z" transform="translate(44.5364 30.1234)" fill="white"/>
<path d="M2.20108 0.594619C1.50273 0.349804 0.803911 0.139828 0 0C0.978153 0.245046 1.92151 0.594617 2.82983 0.97926" transform="translate(27.592 18.022)" fill="white"/>
<path d="M3.87781 8.11419C3.2841 6.85504 1.11782 2.48322 0 0C0.0348023 0.244815 0.139669 0.418792 0.174702 0.594615C1.01318 2.30832 3.24907 6.8202 3.87781 8.11419Z" transform="translate(21.3036 58.2784)" fill="white"/>
<path d="M3.03956 1.08356L0 0C0 0.0343802 2.02638 0.838742 3.03956 1.08356Z" transform="translate(45.9333 63.7004)" fill="white"/>
<path d="M21.0308 2.97308C20.9264 2.79818 20.786 2.65835 20.6466 2.51829C19.4935 1.43405 15.0224 0 15.0224 0L8.73401 4.37182L4.9258 9.653L0 15.319C0 15.319 3.80775 24.0279 8.03474 25.077C13.9389 26.5111 19.7034 19.2012 20.7516 17.1377C21.6955 15.319 21.975 12.2763 22.2892 12.1014C22.9532 11.7167 24.0012 14.0599 24.9793 14.3749C26.1324 14.7943 26.4118 14.2 28.0537 14.5147C31.0921 15.1441 22.952 5.21125 21.0308 2.97308Z" transform="translate(32.2742 33.2711)" fill="white"/>
<path d="M0 16.7131C0.13967 14.4397 0.524108 12.1316 1.22269 9.96309C1.9215 7.75975 2.89966 5.59126 4.40192 3.77233C5.13553 2.82792 6.04386 2.05863 7.05704 1.3941C8.07023 0.799485 9.18805 0.309855 10.3759 0.134954C12.7515 -0.284761 15.1266 0.309855 17.1184 1.42894C14.9874 0.72934 12.6468 0.414611 10.5156 0.904241C9.43328 1.14929 8.45513 1.60384 7.54635 2.19846C6.67283 2.79307 5.83458 3.56259 5.13577 4.4018C4.43696 5.241 3.84324 6.18541 3.31913 7.1649C2.79525 8.14416 2.34098 9.15849 1.92174 10.2427C1.15286 12.2714 0.559142 14.475 0 16.7131Z" transform="translate(13.3731 17.4323)" fill="white"/>
<path d="M20.7389 5.37543C21.3328 6.52959 16.9311 1.63306 10.5028 7.43893C5.61184 11.811 3.72559 21.2891 2.92168 22.0235C2.04817 22.8277 1.07002 20.1695 0.301601 18.8056C-0.397211 17.5813 0.196731 12.3352 1.27975 9.60696C5.92598 -2.4245 8.26626 0.0937953 12.1796 0.478439C13.193 0.618728 19.5512 3.17209 20.7389 5.37543Z" transform="translate(31.8322 29.9243)" fill="white"/>
<path opacity="0.81" d="M1.37633 0.0209296C1.76054 0.056002 2.63406 0.580474 2.21481 0.860361C1.69094 1.17509 0.363151 1.55973 0.0139748 0.860361C-0.125926 0.475487 0.81742 -0.119129 1.37633 0.0209296Z" transform="translate(9.86574 19.7498)" fill="white"/>
<path d="M0.104872 0.0350708L0 0C0 0.0350724 0.0348026 0.0350729 0.0348026 0.104987L0.104872 0.0350708Z" transform="translate(14.7707 17.602)" fill="white"/>
<path d="M3.84301 0.139829L3.87804 0C2.62032 0.174901 1.32779 0.664531 0 2.20357C0.314373 1.88884 0.943347 1.32906 1.64216 0.80459C2.41058 0.244815 3.84301 0.139829 3.84301 0.139829Z" transform="translate(8.72662 17.5323)" fill="white"/>
<path d="M15.1489 1.93778C14.6942 0.643789 11.5149 -0.405614 7.53295 0.154161C6.13556 0.329061 4.35395 1.09858 3.2011 2.25274C1.20976 4.24633 0.23161 7.53414 0.0218741 10.6819C-0.222664 14.7039 1.66381 19.1108 1.66381 19.1108C1.66381 19.1108 1.13993 16.9075 1.24456 16.4527C1.20976 16.7326 1.20976 16.8724 1.20976 16.8724C1.20976 16.8724 1.24456 16.5577 1.34943 16.033C1.52413 15.1935 1.76867 12.9201 2.01321 11.801C2.60715 9.24784 4.49362 6.37975 7.42831 4.14157C13.2274 -0.860173 16.0222 4.421 15.1489 1.93778Z" transform="translate(12.3733 16.0491)" fill="white"/>
<path d="M28.9274 13.79C31.1285 9.48806 32.2814 4.9411 30.4995 2.70292C28.6481 0.359531 25.783 -1.10936 20.018 1.0589C11.4945 4.27657 5.13623 10.8171 0 16.6929C0.66378 16.4133 1.25772 16.2381 1.71177 16.0983C8.24562 14.4194 21.2068 13.0904 28.9274 13.79Z" transform="translate(43.6269)" fill="white"/>
<path d="M34.727 0.193794C27.0064 -0.505578 14.0101 0.78841 7.54704 2.46727C7.0923 2.6071 6.46401 2.782 5.83457 3.06189C3.91284 5.72001 1.32756 10.3366 0.558909 11.7008L0 11.9456C0 11.9456 10.9699 12.68 19.0394 12.5402C22.2532 11.6657 25.3983 10.5466 27.7737 9.04266C29.9408 7.67853 32.7707 4.07599 34.727 0.193794Z" transform="translate(37.8274 13.5962)" fill="white"/>
<path d="M0.00235693 12.7798C0.107225 15.3329 0.875867 17.5014 1.53942 18.4108C2.76211 20.2294 6.01118 21.6635 9.85418 23.4471C15.5832 26.0702 20.1248 32.5057 20.1248 32.5057C20.1248 32.5057 17.749 22.6079 23.8636 16.452C29.069 11.2407 33.9245 13.8989 33.995 13.6889C34.9381 11.9752 27.5317 9.59672 25.435 7.98778C23.234 6.30914 20.2297 2.5317 17.1551 0.992898C15.0589 -0.0214339 12.229 -0.651126 8.3162 1.09788C3.28645 3.33652 -0.102281 9.1424 0.00235693 12.7798Z" transform="translate(12.6371 17.5884)" fill="white"/>
</svg>
