<?xml version="1.0" encoding="UTF-8"?>
<svg width="249px" height="74px" viewBox="0 0 249 74" version="1.1" xmlns="http://www.w3.org/2000/svg" xmlns:xlink="http://www.w3.org/1999/xlink">
    <!-- Generator: sketchtool 48.2 (47327) - http://www.bohemiancoding.com/sketch -->
    <title>D62B185B-114C-40B2-812F-84BB0D67A06C</title>
    <desc>Created with sketchtool.</desc>
    <defs></defs>
    <g id="ETHindia" stroke="none" stroke-width="1" fill="none" fill-rule="evenodd" transform="translate(-558.000000, -2732.000000)" opacity="0.5">
        <g id="Group-4" transform="translate(215.000000, 2602.000000)" fill="#FFFFFF" fill-rule="nonzero">
            <g id="cigi-logo" transform="translate(343.000000, 130.000000)">
                <path d="M13.9813401,28.2533541 L13.9813401,31.426431 C12.6615482,30.2291237 10.9550883,29.5465397 9.17364775,29.5033541 C7.43144445,29.4574309 5.75241347,30.1570271 4.55826314,31.426431 C3.29735061,32.6976943 2.60380054,34.424634 2.63518621,36.2148926 C2.60474773,37.9823403 3.29974655,39.6850874 4.55826314,40.926431 C5.76077463,42.1836994 7.43417393,42.8809491 9.17364775,42.8495079 C9.99871848,42.8693723 10.818448,42.7119842 11.5774939,42.3879695 C12.0028375,42.2047006 12.4087169,41.979212 12.7890324,41.7148926 C13.2236246,41.4253027 13.6409968,41.1106683 14.0390324,40.7725849 L14.0390324,44.0033541 C12.5735587,44.8573561 10.9082597,45.3085128 9.21210929,45.3110464 C6.77340693,45.3540622 4.42382834,44.3947668 2.71210929,42.6572003 C0.968141003,40.9848758 -0.0122284853,38.6695351 0.000570829379,36.2533541 C-0.0243787299,34.0230079 0.769299143,31.8609199 2.23134006,30.176431 C3.98077656,28.0503961 6.61370778,26.8510285 9.36595544,26.926431 C10.9957843,26.9454109 12.5902921,27.4038319 13.9813401,28.2533541 Z" id="Shape"></path>
                <path d="M26.1027276,39.1766775 L18.0834968,39.1766775 C18.1122627,39.9921616 18.4330234,40.7701767 18.987343,41.3689852 C19.5241588,41.9111663 20.2633199,42.2040414 21.0258045,42.1766775 C21.5935425,42.1976465 22.1530248,42.0358684 22.6219584,41.715139 C23.182082,41.2343273 23.6567408,40.6621358 24.0258045,40.0228313 L26.2181122,41.2343698 C25.9122693,41.7644961 25.5512929,42.2608387 25.1411891,42.715139 C24.7871464,43.1100252 24.3793025,43.4531321 23.9296507,43.7343698 C23.5007096,43.9970953 23.0336214,44.1917154 22.5450353,44.3112929 C22.016229,44.4399156 21.4738741,44.5044816 20.9296507,44.5036006 C19.4202878,44.56618 17.9566609,43.977928 16.9104199,42.8882159 C15.8642662,41.7114704 15.3191205,40.1726415 15.3911891,38.5997544 C15.3191509,37.0369669 15.8413135,35.504832 16.8527276,34.3112929 C17.8441277,33.2466547 19.244603,32.658455 20.6988815,32.6959083 C22.1485799,32.6410101 23.5511241,33.2160532 24.5450353,34.2728313 C25.5518977,35.4819564 26.0607125,37.0290283 25.9681122,38.5997544 L26.1027276,39.1766775 Z M23.3719584,36.9843698 C23.1045078,35.820565 22.0458685,35.0124434 20.8527276,35.0612929 C20.5523867,35.0561419 20.2533258,35.1016512 19.9681122,35.1959083 C19.6971496,35.2873177 19.4435803,35.423855 19.2181122,35.5997544 C18.9905708,35.7838834 18.7955533,36.0049034 18.6411891,36.2536006 C18.4747082,36.521086 18.3514021,36.8131268 18.2758045,37.1189852 L23.3719584,36.9843698 Z" id="Shape"></path>
                <path d="M30.7692308,33.0059091 L33.3653846,33.0059091 L33.3653846,34.0443706 C34.1567863,33.1951863 35.2623334,32.7084674 36.4230769,32.6982168 C37.5687835,32.6346836 38.6830213,33.0860204 39.4615385,33.928986 C40.1760509,34.9127399 40.5107309,36.1216859 40.4038462,37.3328322 L40.4038462,44.1982168 L37.8076923,44.1982168 L37.8076923,37.9482168 C37.8790839,37.1567761 37.7187239,36.3616574 37.3461538,35.6597553 C36.9350387,35.1976612 36.3267598,34.9615059 35.7115385,35.0251399 C34.9917728,34.9404087 34.2854973,35.2675258 33.8846154,35.8712937 C33.4595078,36.7836744 33.2805039,37.7913999 33.3653846,38.7943706 L33.3653846,44.1982168 L30.7692308,44.1982168 L30.7692308,33.0059091 Z" id="Shape"></path>
                <polygon id="Shape" points="45.9615385 35.3461538 45.9615385 44.1153846 43.4038462 44.1153846 43.4038462 35.3461538 42.3076923 35.3461538 42.3076923 32.9423077 43.4038462 32.9423077 43.4038462 28.8461538 45.9615385 28.8461538 45.9615385 32.9423077 47.8846154 32.9423077 47.8846154 35.3461538"></polygon>
                <path d="M50,33.0006988 L52.5769231,33.0006988 L52.5769231,34.0006988 C52.9410021,33.5933959 53.3698494,33.2490185 53.8461538,32.981468 C54.2594473,32.7817947 54.7141874,32.6829381 55.1730769,32.6930065 C55.9326303,32.7188041 56.6707182,32.9515345 57.3076923,33.3660834 L56.1153846,35.731468 C55.7021357,35.4092875 55.1968569,35.2273871 54.6730769,35.2122373 C53.2628205,35.2122373 52.5576923,36.2763398 52.5576923,38.4045449 L52.5576923,44.1737757 L50,44.1737757 L50,33.0006988 Z" id="Shape"></path>
                <path d="M68.3717192,39.1920881 L60.3524884,39.1920881 C60.3812544,40.0075722 60.702015,40.7855874 61.2563346,41.3843958 C61.7931504,41.9265769 62.5323115,42.2194521 63.2947961,42.1920881 C63.8625341,42.2130571 64.4220164,42.0512791 64.89095,41.7305497 C65.4510736,41.249738 65.9257324,40.6775465 66.2947961,40.038242 L68.4871038,41.2497804 C68.1812609,41.7799067 67.8202845,42.2762494 67.4101808,42.7305497 C67.056138,43.1254359 66.6482941,43.4685427 66.1986423,43.7497804 C65.7697012,44.0125059 65.302613,44.207126 64.8140269,44.3267035 C64.2852206,44.4553262 63.7428657,44.5198923 63.1986423,44.5190112 C61.6995555,44.5655035 60.2516911,43.9709698 59.2178731,42.8843958 C58.1717194,41.7076503 57.6265737,40.1688213 57.6986423,38.5959343 C57.6376053,37.0189014 58.1810224,35.4780733 59.2178731,34.288242 C61.3929594,32.1603296 64.8697098,32.1603296 67.0447961,34.288242 C68.0516586,35.497367 68.5604733,37.0444389 68.4678731,38.615165 L68.3717192,39.1920881 Z M65.7178731,36.9997804 C65.4428893,35.782488 64.3064255,34.9589635 63.0640269,35.0767035 C62.763686,35.0715526 62.4646251,35.1170618 62.1794115,35.2113189 C61.9084489,35.3027284 61.6548796,35.4392657 61.4294115,35.615165 C61.2018701,35.7992941 61.0068526,36.020314 60.8524884,36.2690112 C60.6860075,36.5364966 60.5627014,36.8285374 60.4871038,37.1343958 L65.7178731,36.9997804 Z" id="Shape"></path>
                <path d="M80.5,35.9313244 L80.5,44.7005552 L77.8461538,44.7005552 L77.8461538,35.9313244 L76.9230769,35.9313244 L76.9230769,33.5274782 L77.8461538,33.5274782 L77.8461538,29.2005552 C77.7487389,28.1531414 78.0061012,27.1033739 78.5769231,26.2197859 C79.3159499,25.380398 80.4034297,24.9326122 81.5192308,25.0082475 C82.1154685,25.0396484 82.7014366,25.1763742 83.25,25.4120936 L83.25,28.046709 L83.0384615,27.9313244 C82.6146059,27.6879819 82.1413251,27.5433683 81.6538462,27.5082475 C81.273211,27.472213 80.9085317,27.6697477 80.7307692,28.0082475 C80.5166134,28.6253872 80.4315213,29.2799422 80.4807692,29.9313244 L80.4807692,33.6236321 L83.2884615,33.6236321 L83.2884615,36.0274782 L80.5,35.9313244 Z" id="Shape"></path>
                <path d="M84.6172611,38.5358275 C84.5882064,36.9757701 85.2162874,35.4753543 86.3480303,34.4012122 C88.7158198,32.1226729 92.4610101,32.1226729 94.8287996,34.4012122 C97.1307775,36.7370666 97.1307775,40.4884347 94.8287996,42.8242891 C93.6865211,43.9444014 92.1397104,44.554802 90.540338,44.5165968 C88.9585718,44.5414902 87.4359771,43.9157664 86.3287996,42.7858275 C85.1960995,41.6661445 84.5766707,40.1280122 84.6172611,38.5358275 Z M87.2518765,38.5358275 C87.2085385,39.5026531 87.5312811,40.4502803 88.1557226,41.1896737 C89.505856,42.4988456 91.6517431,42.4988456 93.0018765,41.1896737 C94.2057564,39.6610689 94.2057564,37.50674 93.0018765,35.9781352 C91.6624231,34.6610897 89.5144068,34.6610897 88.1749534,35.9781352 C87.5417471,36.6896731 87.2166874,37.6233554 87.2711073,38.5742891 L87.2518765,38.5358275 Z" id="Shape"></path>
                <path d="M100,33.0006988 L102.576923,33.0006988 L102.576923,34.0006988 C102.941002,33.5933959 103.369849,33.2490185 103.846154,32.981468 C104.259447,32.7817947 104.714187,32.6829381 105.173077,32.6930065 C105.93263,32.7188041 106.670718,32.9515345 107.307692,33.3660834 L106.115385,35.731468 C105.702136,35.4092875 105.196857,35.2273871 104.673077,35.2122373 C103.262821,35.2122373 102.557692,36.2763398 102.557692,38.4045449 L102.557692,44.1737757 L100,44.1737757 L100,33.0006988 Z" id="Shape"></path>
                <polygon id="Shape" points="118.057692 26.9230769 118.057692 44.6538462 115.384615 44.6538462 115.384615 26.9230769"></polygon>
                <path d="M123.076923,33.0059091 L125.673077,33.0059091 L125.673077,34.0443706 C126.464479,33.1951863 127.570026,32.7084674 128.730769,32.6982168 C129.876476,32.6346836 130.990714,33.0860204 131.769231,33.928986 C132.483743,34.9127399 132.818423,36.1216859 132.711538,37.3328322 L132.711538,44.1982168 L130.134615,44.1982168 L130.134615,37.9482168 C130.206007,37.1567761 130.045647,36.3616574 129.673077,35.6597553 C129.261962,35.1976612 128.653683,34.9615059 128.038462,35.0251399 C127.318696,34.9404087 126.61242,35.2675258 126.211538,35.8712937 C125.786431,36.7836744 125.607427,37.7913999 125.692308,38.7943706 L125.692308,44.1982168 L123.076923,44.1982168 L123.076923,33.0059091 Z" id="Shape"></path>
                <polygon id="Shape" points="138.307692 35.3461538 138.307692 44.1153846 135.711538 44.1153846 135.711538 35.3461538 134.615385 35.3461538 134.615385 32.9423077 135.711538 32.9423077 135.711538 28.8461538 138.288462 28.8461538 138.288462 32.9423077 140.211538 32.9423077 140.211538 35.3461538"></polygon>
                <path d="M152.980331,39.1728573 L144.9611,39.1728573 C144.989866,39.9883415 145.310627,40.7663566 145.864946,41.365165 C146.401762,41.9073461 147.140923,42.2002213 147.903408,42.1728573 C148.471146,42.1938263 149.030628,42.0320483 149.499562,41.7113189 C150.059685,41.2305072 150.534344,40.6583157 150.903408,40.0190112 L153.095716,41.2305497 C152.768005,41.7777603 152.38106,42.2872382 151.94187,42.7497804 C151.587827,43.1446666 151.179983,43.4877735 150.730331,43.7690112 C150.30139,44.0317367 149.834302,44.2263568 149.345716,44.3459343 C148.816909,44.474557 148.274555,44.539123 147.730331,44.538242 C146.220968,44.6008214 144.757341,44.0125694 143.7111,42.9228573 C142.699096,41.7108804 142.202057,40.1507296 142.326485,38.5767035 C142.254447,37.013916 142.776609,35.4817811 143.788023,34.288242 C145.96311,32.1603296 149.43986,32.1603296 151.614946,34.288242 C152.621809,35.497367 153.130624,37.0444389 153.038023,38.615165 L152.980331,39.1728573 Z M150.326485,36.9805497 C150.054336,35.7866309 148.951739,34.9698923 147.730331,35.0574727 C147.42999,35.0523218 147.130929,35.0978311 146.845716,35.1920881 C146.574753,35.2834976 146.321184,35.4200349 146.095716,35.5959343 C145.868174,35.7800633 145.673157,36.0010832 145.518793,36.2497804 C145.352312,36.5172658 145.229006,36.8093066 145.153408,37.115165 L150.326485,36.9805497 Z" id="Shape"></path>
                <path d="M155.769231,33.0006988 L158.346154,33.0006988 L158.346154,34.0006988 C158.710233,33.5933959 159.13908,33.2490185 159.615385,32.981468 C160.028678,32.7817947 160.483418,32.6829381 160.942308,32.6930065 C161.701861,32.7188041 162.439949,32.9515345 163.076923,33.3660834 L161.884615,35.731468 C161.471366,35.4092875 160.966088,35.2273871 160.442308,35.2122373 C159.032051,35.2122373 158.326923,36.2763398 158.326923,38.4045449 L158.326923,44.1737757 L155.769231,44.1737757 L155.769231,33.0006988 Z" id="Shape"></path>
                <path d="M165.384615,33.0059091 L167.980769,33.0059091 L167.980769,34.0443706 C168.772171,33.1951863 169.877718,32.7084674 171.038462,32.6982168 C172.184168,32.6346836 173.298406,33.0860204 174.076923,33.928986 C174.784635,34.9153454 175.112423,36.1240632 175,37.3328322 L175,44.1982168 L172.442308,44.1982168 L172.442308,37.9482168 C172.513699,37.1567761 172.353339,36.3616574 171.980769,35.6597553 C171.569654,35.1976612 170.961375,34.9615059 170.346154,35.0251399 C169.626388,34.9404087 168.920113,35.2675258 168.519231,35.8712937 C168.094123,36.7836744 167.915119,37.7913999 168,38.7943706 L168,44.1982168 L165.384615,44.1982168 L165.384615,33.0059091 Z" id="Shape"></path>
                <path d="M185.676626,33.0033636 L188.27278,33.0033636 L188.27278,44.1956712 L185.676626,44.1956712 L185.676626,43.0225943 C184.706783,43.9974049 183.375879,44.5260033 182.001492,44.4822563 C180.627106,44.4385092 179.332512,43.8263406 178.426626,42.7918251 C177.409282,41.6070106 176.873946,40.0833635 176.926626,38.5225943 C176.884188,36.9982469 177.420062,35.5142893 178.426626,34.3687482 C179.38844,33.2564051 180.803291,32.6409448 182.27278,32.6956712 C183.614776,32.7176525 184.885392,33.3040906 185.77278,34.3110559 L185.676626,33.0033636 Z M179.542011,38.5610559 C179.481413,39.5023995 179.768862,40.4331881 180.349703,41.1764405 C180.899523,41.8378513 181.72055,42.2129759 182.580472,42.1956712 C183.463609,42.232375 184.316979,41.8726901 184.907395,41.214902 C186.087542,39.6853072 186.087542,37.5521891 184.907395,36.0225943 C184.327072,35.402699 183.505869,35.0657954 182.657395,35.0995174 C181.798635,35.0877788 180.979893,35.4618594 180.426626,36.1187482 C179.848712,36.8005985 179.534799,37.6672701 179.542011,38.5610559 Z" id="Shape"></path>
                <polygon id="Shape" points="193.980769 35.3461538 193.980769 44.1153846 191.480769 44.1153846 191.480769 35.3461538 190.384615 35.3461538 190.384615 32.9423077 191.480769 32.9423077 191.480769 28.8461538 194.057692 28.8461538 194.057692 32.9423077 195.980769 32.9423077 195.980769 35.3461538"></polygon>
                <path d="M198.077779,28.5962278 C198.088171,27.6765522 198.83118,26.9335437 199.750855,26.9231509 C200.200116,26.9188798 200.63133,27.0997111 200.943163,27.4231509 C201.270538,27.732275 201.452125,28.1652898 201.443163,28.6154586 C201.447434,29.0647194 201.266603,29.4959326 200.943163,29.8077663 C200.634039,30.1351415 200.201024,30.3167284 199.750855,30.3077663 C199.301144,30.3143498 198.869048,30.1331483 198.558548,29.8077663 C198.237245,29.4880454 198.063126,29.0492645 198.077779,28.5962278 Z M201.058548,33.250074 L201.058548,44.4423817 L198.481625,44.4423817 L198.481625,33.250074 L201.058548,33.250074 Z" id="Shape"></path>
                <path d="M203.84803,38.5358275 C203.818976,36.9757701 204.447057,35.4753543 205.5788,34.4012122 C207.946589,32.1226729 211.691779,32.1226729 214.059569,34.4012122 C216.361547,36.7370666 216.361547,40.4884347 214.059569,42.8242891 C212.91729,43.9444014 211.37048,44.554802 209.771107,44.5165968 C208.189341,44.5414902 206.666746,43.9157664 205.559569,42.7858275 C204.426869,41.6661445 203.80744,40.1280122 203.84803,38.5358275 Z M206.482646,38.5358275 C206.439308,39.5026531 206.76205,40.4502803 207.386492,41.1896737 C208.736625,42.4988456 210.882512,42.4988456 212.232646,41.1896737 C213.436526,39.6610689 213.436526,37.50674 212.232646,35.9781352 C210.893192,34.6610897 208.745176,34.6610897 207.405723,35.9781352 C206.793319,36.6986187 206.489329,37.6313146 206.559569,38.5742891 L206.482646,38.5358275 Z" id="Shape"></path>
                <path d="M217.307692,33.0059091 L219.903846,33.0059091 L219.903846,34.0443706 C220.695248,33.1951863 221.800795,32.7084674 222.961538,32.6982168 C224.107245,32.6346836 225.221483,33.0860204 226,33.928986 C226.714512,34.9127399 227.049192,36.1216859 226.942308,37.3328322 L226.942308,44.1982168 L224.346154,44.1982168 L224.346154,37.9482168 C224.417545,37.1567761 224.257185,36.3616574 223.884615,35.6597553 C223.4735,35.1976612 222.865221,34.9615059 222.25,35.0251399 C221.530234,34.9404087 220.823959,35.2675258 220.423077,35.8712937 C219.997969,36.7836744 219.818965,37.7913999 219.903846,38.7943706 L219.903846,44.1982168 L217.307692,44.1982168 L217.307692,33.0059091 Z" id="Shape"></path>
                <path d="M239.561183,33.0033636 L242.157337,33.0033636 L242.157337,44.1956712 L239.561183,44.1956712 L239.561183,43.0225943 C238.595984,44.0084794 237.263856,44.5479393 235.884636,44.511452 C234.505417,44.4749647 233.203674,43.8658257 232.291952,42.8302866 C231.267665,41.6483247 230.725357,40.1243715 230.772722,38.5610559 C230.720444,37.023566 231.256953,35.524093 232.272722,34.3687482 C233.234535,33.2564051 234.649387,32.6409448 236.118875,32.6956712 C237.460871,32.7176525 238.731487,33.3040906 239.618875,34.3110559 L239.561183,33.0033636 Z M233.426568,38.5610559 C233.38221,39.5097968 233.690461,40.4413994 234.291952,41.1764405 C234.841772,41.8378513 235.662799,42.2129759 236.522722,42.1956712 C237.405858,42.232375 238.259228,41.8726901 238.849645,41.214902 C240.029791,39.6853072 240.029791,37.5521891 238.849645,36.0225943 C238.25605,35.3869045 237.410204,35.0485663 236.541952,35.0995174 C235.683192,35.0877788 234.86445,35.4618594 234.311183,36.1187482 C233.733269,36.8005985 233.419356,37.6672701 233.426568,38.5610559 Z" id="Shape"></path>
                <polygon id="Shape" points="246.807692 25 246.807692 44.4038462 244.230769 44.4038462 244.230769 25"></polygon>
                <path d="M10.112785,62.7163356 L17.4397081,62.7163356 L17.4397081,63.2932586 C17.4553946,64.4900355 17.2933731,65.682514 16.9589389,66.8317202 C16.6306116,67.8210878 16.1001541,68.7313791 15.4012466,69.5047971 C13.812193,71.3383158 11.4799974,72.3560011 9.05509274,72.2740279 C6.64434459,72.3073132 4.32947292,71.3311625 2.67047736,69.5817202 C-0.890159119,65.9723269 -0.890159119,60.1718827 2.67047736,56.5624894 C4.4254919,54.7530982 6.86265733,53.7684554 9.38201582,53.850951 C10.7108799,53.8449723 12.0245103,54.133971 13.2281697,54.6971048 C14.5758192,55.3736817 15.7728521,56.3156092 16.7474004,57.4663356 L14.8243235,59.3894125 C13.6393735,57.5987752 11.6444512,56.5112905 9.49740043,56.4855663 C7.72075855,56.4358474 6.00468599,57.1334379 4.7666312,58.4086433 C3.49039178,59.6697745 2.79409123,61.4035629 2.84355428,63.1971048 C2.79082243,65.0581781 3.56548625,66.8469473 4.9589389,68.0817202 C6.11576202,69.2030588 7.65577108,69.8424376 9.2666312,69.8701817 C10.5749433,69.8781022 11.8407423,69.4059934 12.8243235,68.5432586 C13.8146117,67.750643 14.4451228,66.5935512 14.5743235,65.3317202 L10.112785,65.3317202 L10.112785,62.7163356 Z" id="Shape"></path>
                <path d="M19.2326457,67.3819814 C19.203591,65.821924 19.831672,64.3215081 20.9634149,63.247366 C23.3312044,60.9688267 27.0763947,60.9688267 29.4441842,63.247366 C31.7461621,65.5832204 31.7461621,69.3345885 29.4441842,71.6704429 C28.3019057,72.7905552 26.755095,73.4009558 25.1557226,73.3627506 C23.5739565,73.3876441 22.0513617,72.7619202 20.9441842,71.6319814 C19.8114841,70.5122983 19.1920553,68.974166 19.2326457,67.3819814 Z M21.8672611,67.3819814 C21.8239231,68.348807 22.1466657,69.2964341 22.7711073,70.0358275 C23.3989169,70.6978426 24.2826514,71.0555447 25.1941842,71.0165968 C26.105717,71.0555447 26.9894514,70.6978426 27.6172611,70.0358275 C28.821141,68.5072228 28.821141,66.3528939 27.6172611,64.8242891 C26.2778077,63.5072435 24.1297915,63.5072435 22.790338,64.8242891 C22.1848422,65.5477115 21.8878613,66.4800936 21.9634149,67.4204429 L21.8672611,67.3819814 Z" id="Shape"></path>
                <polygon id="Shape" points="35.5384615 61.5384615 38.4423077 67.8269231 41.3269231 61.5384615 44.2307692 61.5384615 38.4615385 73.5 32.6923077 61.5384615"></polygon>
                <path d="M54.9488815,67.9228573 L46.8719584,67.9228573 C46.8977679,68.7728195 47.2407847,69.5823389 47.8334968,70.1920881 C48.3703126,70.7342692 49.1094738,71.0271444 49.8719584,70.9997804 C50.4396963,71.0207494 50.9991786,70.8589714 51.4681122,70.538242 C52.0282358,70.0574303 52.5028947,69.4852388 52.8719584,68.8459343 L55.0642661,70.0574727 C54.7584231,70.5875991 54.3974467,71.0839417 53.987343,71.538242 C53.6333003,71.9331282 53.2254563,72.276235 52.7758045,72.5574727 C52.3468634,72.8201982 51.8797752,73.0148183 51.3911891,73.1343958 C50.8623828,73.2630185 50.320028,73.3275846 49.7758045,73.3267035 C48.2664417,73.3892829 46.8028147,72.8010309 45.7565738,71.7113189 C44.7104201,70.5345734 44.1652744,68.9957444 44.237343,67.4228573 C44.1653047,65.8600699 44.6874673,64.3279349 45.6988815,63.1343958 C47.8739678,61.0064834 51.3507182,61.0064834 53.5258045,63.1343958 C54.532667,64.3435208 55.0414817,65.8905928 54.9488815,67.4613189 L54.9488815,67.9228573 Z M52.2950353,65.8074727 C52.0895691,64.5441321 50.9566944,63.6444964 49.6796507,63.7305497 C49.3793098,63.7253987 49.0802489,63.770908 48.7950353,63.865165 C48.5240727,63.9565745 48.2705034,64.0931118 48.0450353,64.2690112 C47.8174939,64.4531402 47.6224763,64.6741601 47.4681122,64.9228573 C47.3016313,65.1903428 47.1783252,65.4823835 47.1027276,65.788242 L52.2950353,65.8074727 Z" id="Shape"></path>
                <path d="M57.6923077,61.8468526 L60.25,61.8468526 L60.25,62.8468526 C60.614079,62.4395498 61.0429263,62.0951723 61.5192308,61.8276219 C61.9325242,61.6279485 62.3872643,61.529092 62.8461538,61.5391603 C63.6057072,61.5649579 64.3437951,61.7976883 64.9807692,62.2122373 L63.8269231,64.5583911 C63.4136742,64.2362106 62.9083953,64.0543102 62.3846154,64.0391603 C60.974359,64.0391603 60.2692308,65.1032629 60.2692308,67.231468 L60.2692308,73.0006988 L57.6923077,73.0006988 L57.6923077,61.8468526 Z" id="Shape"></path>
                <path d="M67.3076923,61.8520629 L69.9038462,61.8520629 L69.9038462,62.8905245 C70.6952478,62.0413401 71.8007949,61.5546213 72.9615385,61.5443706 C74.107245,61.4808375 75.2214828,61.9321743 76,62.7751399 C76.7145125,63.7588937 77.0491924,64.9678397 76.9423077,66.178986 L76.9423077,73.0443706 L74.3653846,73.0443706 L74.3653846,66.7943706 C74.4255607,66.0220987 74.265525,65.248593 73.9038462,64.5636014 C73.492731,64.1015074 72.8844521,63.8653521 72.2692308,63.928986 C71.5494651,63.8442549 70.8431896,64.171372 70.4423077,64.7751399 C70.0172001,65.6875205 69.8381962,66.6952461 69.9230769,67.6982168 L69.9230769,73.1020629 L67.3076923,73.1020629 L67.3076923,61.8520629 Z" id="Shape"></path>
                <path d="M87.6189339,61.8495174 L90.2150878,61.8495174 L90.2150878,73.0418251 L87.6189339,73.0418251 L87.6189339,71.8687482 C86.6537351,72.8546332 85.3216066,73.3940932 83.942387,73.3576059 C82.5631674,73.3211186 81.2614251,72.7119795 80.3497031,71.6764405 C79.3323584,70.491626 78.7970229,68.9679789 78.8497031,67.4072097 C78.7974257,65.8697199 79.3339344,64.3702469 80.3497031,63.214902 C81.3115168,62.1025589 82.7263681,61.4870986 84.195857,61.5418251 C85.537853,61.5638063 86.808469,62.1502445 87.695857,63.1572097 L87.6189339,61.8495174 Z M81.4843185,67.4072097 C81.4399611,68.3559507 81.748212,69.2875533 82.3497031,70.0225943 C82.8995227,70.6840052 83.7205501,71.0591298 84.5804724,71.0418251 C85.4636087,71.0785289 86.3169788,70.7188439 86.9073954,70.0610559 C88.087542,68.531461 88.087542,66.398343 86.9073954,64.8687482 C86.3325311,64.2099224 85.4929243,63.8430354 84.6189339,63.8687482 C83.7601738,63.8570095 82.9414313,64.2310902 82.3881647,64.8879789 C81.7856676,65.5870293 81.4636459,66.4845793 81.4843185,67.4072097 Z" id="Shape"></path>
                <path d="M94.2307692,61.8520629 L96.8269231,61.8520629 L96.8269231,62.8905245 C97.6183247,62.0413401 98.7238718,61.5546213 99.8846154,61.5443706 C101.030322,61.4808375 102.14456,61.9321743 102.923077,62.7751399 C103.637589,63.7588937 103.972269,64.9678397 103.865385,66.178986 L103.865385,73.0443706 L101.269231,73.0443706 L101.269231,66.7943706 C101.329407,66.0220987 101.169371,65.248593 100.807692,64.5636014 C100.396577,64.1015074 99.7882982,63.8653521 99.1730769,63.928986 C98.4533112,63.8442549 97.7470358,64.171372 97.3461538,64.7751399 C96.9210462,65.6875205 96.7420423,66.6952461 96.8269231,67.6982168 L96.8269231,73.1020629 L94.2307692,73.1020629 L94.2307692,61.8520629 Z" id="Shape"></path>
                <path d="M116.943728,62.3477161 L116.943728,65.7900238 C116.507277,65.2093114 115.973793,64.7083566 115.366805,64.3092545 C114.875323,64.0296569 114.316657,63.8899904 113.751421,63.9054084 C112.834836,63.8814069 111.952183,64.2526814 111.328344,64.9246391 C110.681986,65.616363 110.336214,66.5361156 110.366805,67.4823314 C110.330986,68.4281541 110.661664,69.3512959 111.289882,70.0592545 C111.904803,70.7324277 112.782349,71.1045074 113.693728,71.0784853 C114.264414,71.0880079 114.827752,70.9488302 115.328344,70.6746391 C115.949615,70.2641973 116.495979,69.7503548 116.943728,69.1554084 L116.943728,72.5592545 C115.973524,73.0803198 114.891116,73.3575218 113.789882,73.3669468 C112.175364,73.4149792 110.609284,72.812108 109.443728,71.6938699 C108.293908,70.606706 107.658103,69.0835682 107.693728,67.5015622 C107.673578,65.9074289 108.313985,64.3760197 109.462959,63.270793 C110.616599,62.1277121 112.185493,61.5029313 113.809113,61.5400238 C114.905378,61.5406107 115.983686,61.818457 116.943728,62.3477161 Z" id="Shape"></path>
                <path d="M129.948881,67.9228573 L121.929651,67.9228573 C121.939809,68.7650405 122.261843,69.5735518 122.833497,70.1920881 C123.370313,70.7342692 124.109474,71.0271444 124.871958,70.9997804 C125.439696,71.0207494 125.999179,70.8589714 126.468112,70.538242 C127.028236,70.0574303 127.502895,69.4852388 127.871958,68.8459343 L130.064266,70.0574727 C129.758423,70.5875991 129.397447,71.0839417 128.987343,71.538242 C128.6333,71.9331282 128.225456,72.276235 127.775805,72.5574727 C127.346863,72.8201982 126.879775,73.0148183 126.391189,73.1343958 C125.862383,73.2630185 125.320028,73.3275846 124.775805,73.3267035 C123.266442,73.3892829 121.802815,72.8010309 120.756574,71.7113189 C119.71042,70.5345734 119.165274,68.9957444 119.237343,67.4228573 C119.165305,65.8600699 119.687467,64.3279349 120.698881,63.1343958 C122.873968,61.0064834 126.350718,61.0064834 128.525805,63.1343958 C129.532667,64.3435208 130.041482,65.8905928 129.948881,67.4613189 L129.948881,67.9228573 Z M127.295035,65.8074727 C127.092505,64.5747754 126.004966,63.684971 124.756574,63.7305497 C124.456233,63.7253987 124.157172,63.770908 123.871958,63.865165 C123.600996,63.9565745 123.347426,64.0931118 123.121958,64.2690112 C122.894417,64.4531402 122.699399,64.6741601 122.545035,64.9228573 C122.378554,65.1903428 122.255248,65.4823835 122.179651,65.788242 L127.295035,65.8074727 Z" id="Shape"></path>
                <polygon id="Shape" points="143.057692 55.7692308 143.057692 73.5 140.384615 73.5 140.384615 55.7692308"></polygon>
                <path d="M146.153846,61.8520629 L148.75,61.8520629 L148.75,62.8905245 C149.541402,62.0413401 150.646949,61.5546213 151.807692,61.5443706 C152.953399,61.4808375 154.067637,61.9321743 154.846154,62.7751399 C155.560666,63.7588937 155.895346,64.9678397 155.788462,66.178986 L155.788462,73.0443706 L153.192308,73.0443706 L153.192308,66.7943706 C153.252484,66.0220987 153.092448,65.248593 152.730769,64.5636014 C152.319654,64.1015074 151.711375,63.8653521 151.096154,63.928986 C150.376388,63.8442549 149.670113,64.171372 149.269231,64.7751399 C148.844123,65.6875205 148.665119,66.6952461 148.75,67.6982168 L148.75,73.1020629 L146.153846,73.1020629 L146.153846,61.8520629 Z" id="Shape"></path>
                <path d="M159.615385,61.8520629 L162.211538,61.8520629 L162.211538,62.8905245 C163.00294,62.0413401 164.108487,61.5546213 165.269231,61.5443706 C166.414937,61.4808375 167.529175,61.9321743 168.307692,62.7751399 C169.022205,63.7588937 169.356885,64.9678397 169.25,66.178986 L169.25,73.0443706 L166.692308,73.0443706 L166.692308,66.7943706 C166.746597,66.0202522 166.57987,65.2466377 166.211538,64.5636014 C165.800423,64.1015074 165.192144,63.8653521 164.576923,63.928986 C163.857157,63.8442549 163.150882,64.171372 162.75,64.7751399 C162.324892,65.6875205 162.145888,66.6952461 162.230769,67.6982168 L162.230769,73.1020629 L159.615385,73.1020629 L159.615385,61.8520629 Z" id="Shape"></path>
                <path d="M171.155723,67.3819814 C171.126668,65.821924 171.754749,64.3215081 172.886492,63.247366 C175.254281,60.9688267 178.999472,60.9688267 181.367261,63.247366 C183.669239,65.5832204 183.669239,69.3345885 181.367261,71.6704429 C180.224983,72.7905552 178.678172,73.4009558 177.0788,73.3627506 C175.497033,73.3876441 173.974439,72.7619202 172.867261,71.6319814 C171.734561,70.5122983 171.115132,68.974166 171.155723,67.3819814 Z M173.790338,67.3819814 C173.747,68.348807 174.069743,69.2964341 174.694184,70.0358275 C176.044318,71.3449995 178.190205,71.3449995 179.540338,70.0358275 C180.744218,68.5072228 180.744218,66.3528939 179.540338,64.8242891 C178.200885,63.5072435 176.052868,63.5072435 174.713415,64.8242891 C174.073248,65.5328011 173.74115,66.4668271 173.790338,67.4204429 L173.790338,67.3819814 Z" id="Shape"></path>
                <polygon id="Shape" points="187.461538 61.5384615 190.365385 67.8269231 193.25 61.5384615 196.153846 61.5384615 190.384615 73.5 184.615385 61.5384615"></polygon>
                <path d="M204.926626,61.8495174 L207.52278,61.8495174 L207.52278,73.0418251 L204.926626,73.0418251 L204.926626,71.8687482 C203.961427,72.8546332 202.629299,73.3940932 201.250079,73.3576059 C199.87086,73.3211186 198.569117,72.7119795 197.657395,71.6764405 C196.640051,70.491626 196.104715,68.9679789 196.157395,67.4072097 C196.105118,65.8697199 196.641627,64.3702469 197.657395,63.214902 C198.619209,62.1025589 200.03406,61.4870986 201.503549,61.5418251 C202.845545,61.5638063 204.116161,62.1502445 205.003549,63.1572097 L204.926626,61.8495174 Z M198.811242,67.4072097 C198.766884,68.3559507 199.075135,69.2875533 199.676626,70.0225943 C200.226446,70.6840052 201.047473,71.0591298 201.907395,71.0418251 C202.790532,71.0785289 203.643902,70.7188439 204.234319,70.0610559 C205.414465,68.531461 205.414465,66.398343 204.234319,64.8687482 C203.659454,64.2099224 202.819847,63.8430354 201.945857,63.8687482 C201.087097,63.8570095 200.268354,64.2310902 199.715088,64.8879789 C199.112591,65.5870293 198.790569,66.4845793 198.811242,67.4072097 Z" id="Shape"></path>
                <polygon id="Shape" points="213.288462 64.2115385 213.288462 72.9807692 210.711538 72.9807692 210.711538 64.2115385 209.615385 64.2115385 209.615385 61.7884615 210.711538 61.7884615 210.711538 57.6923077 213.288462 57.6923077 213.288462 61.7884615 215.211538 61.7884615 215.211538 64.1923077"></polygon>
                <path d="M217.308548,57.4423817 C217.318941,56.522706 218.061949,55.7796976 218.981625,55.7693048 C219.430886,55.7650336 219.862099,55.9458649 220.173932,56.2693048 C220.501308,56.5784288 220.682894,57.0114437 220.673932,57.4616124 C220.678204,57.9108733 220.497372,58.3420865 220.173932,58.6539201 C219.864808,58.9812953 219.431793,59.1628822 218.981625,59.1539201 C218.531913,59.1605037 218.099817,58.9793021 217.789317,58.6539201 C217.468014,58.3341992 217.293895,57.8954183 217.308548,57.4423817 Z M220.289317,62.0962278 L220.289317,73.2885355 L217.770086,73.2885355 L217.770086,62.0962278 L220.289317,62.0962278 Z" id="Shape"></path>
                <path d="M223.0788,67.3819814 C223.049745,65.821924 223.677826,64.3215081 224.809569,63.247366 C227.177358,60.9688267 230.922549,60.9688267 233.290338,63.247366 C235.592316,65.5832204 235.592316,69.3345885 233.290338,71.6704429 C232.14806,72.7905552 230.601249,73.4009558 229.001876,73.3627506 C227.42011,73.3876441 225.897516,72.7619202 224.790338,71.6319814 C223.657638,70.5122983 223.038209,68.974166 223.0788,67.3819814 Z M225.713415,67.3819814 C225.670077,68.348807 225.99282,69.2964341 226.617261,70.0358275 C227.967394,71.3449995 230.113282,71.3449995 231.463415,70.0358275 C232.667295,68.5072228 232.667295,66.3528939 231.463415,64.8242891 C230.123962,63.5072435 227.975945,63.5072435 226.636492,64.8242891 C225.996325,65.5328011 225.664227,66.4668271 225.713415,67.4204429 L225.713415,67.3819814 Z" id="Shape"></path>
                <path d="M238.461538,61.8520629 L241.057692,61.8520629 L241.057692,62.8905245 C241.849094,62.0413401 242.954641,61.5546213 244.115385,61.5443706 C245.261091,61.4808375 246.375329,61.9321743 247.153846,62.7751399 C247.868359,63.7588937 248.203039,64.9678397 248.096154,66.178986 L248.096154,73.0443706 L245.5,73.0443706 L245.5,66.7943706 C245.571392,66.00293 245.411032,65.2078113 245.038462,64.5059091 C244.627346,64.0438151 244.019067,63.8076598 243.403846,63.8712937 C242.68408,63.7865626 241.977805,64.1136796 241.576923,64.7174476 C241.151815,65.6298282 240.972812,66.6375538 241.057692,67.6405245 L241.057692,73.0443706 L238.461538,73.0443706 L238.461538,61.8520629 Z" id="Shape"></path>
                <rect id="Rectangle-path" x="0" y="0" width="248.807692" height="6.90384615"></rect>
            </g>
        </g>
    </g>
</svg>