<?xml version="1.0" encoding="UTF-8"?>
<svg width="296px" height="87px" viewBox="0 0 296 87" version="1.1" xmlns="http://www.w3.org/2000/svg" xmlns:xlink="http://www.w3.org/1999/xlink">
    <!-- Generator: Sketch 47.1 (45422) - http://www.bohemiancoding.com/sketch -->
    <title>logo orange</title>
    <desc>Created with Sketch.</desc>
    <defs></defs>
    <g id="brand-guidelines" stroke="none" stroke-width="1" fill="none" fill-rule="evenodd">
        <g id="Logo-usage" transform="translate(-163.000000, -875.000000)" fill="#FFFFFF">
            <g id="logo-orange" transform="translate(163.000000, 875.000000)">
                <path d="M26.187291,49.4321359 L42.4816054,39.4563733 L42.4816054,3.41086745 C36.6568677,3.55605652 31.140478,4.94323132 26.1872891,7.31753881 L26.187291,49.4321359 Z M22.6956522,51.5697993 L22.6956522,9.21000103 C11.1259164,16.2446128 3.39818835,28.9698526 3.39818835,43.5 C3.39818835,49.7525959 4.82916491,55.6709694 7.38148835,60.9454907 L22.6956522,51.5697993 Z M45.9732441,64.0993841 L62.2675585,54.0054541 L62.2675585,8.05178137 C57.3538925,5.4449025 51.8335189,3.8297751 45.9732492,3.47321051 L45.9732441,64.0993841 Z M42.4816054,66.2623691 L42.4816054,43.4173074 L8.98282883,63.9260464 C12.4643244,69.7966224 17.4008607,74.7027745 23.2955813,78.1476462 L42.4816054,66.2623691 Z M65.7591973,51.8424692 L83.5151939,40.8430627 C83.1082404,34.6214419 81.2824206,28.7870127 78.3581765,23.6602173 L65.7591973,31.028216 L65.7591973,51.8424692 Z M65.7591973,10.1380036 L65.7591973,27.1097691 L76.558925,20.7939892 C73.6689317,16.5943195 69.9994105,12.9727123 65.7591973,10.1380036 Z M65.7452024,6.11036789 L65.7591973,6.11036789 L65.7591973,6.11871577 C78.4800555,13.7098502 87,27.6099553 87,43.5 C87,67.5243866 67.5243866,87 43.5,87 C19.4756134,87 0,67.5243866 0,43.5 C0,19.4756134 19.4756134,0 43.5,0 C51.6285154,0 59.2363014,2.2295078 65.7452024,6.11036789 Z M26.7988373,79.9692683 C31.8834156,82.3015698 37.5398639,83.6018116 43.5,83.6018116 C65.2146859,83.6018116 82.898286,66.3426819 83.581333,44.7938896 L26.7988291,79.9692646 Z" id="logo-icon-orange" fill-rule="nonzero"></path>
                <path d="M148.944554,42.5722772 C148.944554,46.3594059 148.843564,48.9851485 148.591089,50.550495 C148.136634,53.6306931 147.076238,55.9534653 145.409901,57.619802 C143.188119,59.8415842 140.158416,60.9524752 136.320792,60.9524752 L124,60.9524752 L124,25 L136.320792,25 C140.158416,25 143.188119,26.1108911 145.409901,28.3326733 C147.076238,29.9990099 148.136634,32.2207921 148.591089,34.9980198 C148.843564,36.4623762 148.944554,38.9871287 148.944554,42.5722772 Z M145.106931,42.5722772 C145.106931,39.4920792 145.005941,37.3207921 144.854455,36.1089109 C144.551485,33.8871287 143.844554,32.2207921 142.733663,31.0594059 C141.067327,29.2920792 138.694059,28.4336634 135.664356,28.4336634 L127.837624,28.4336634 L127.837624,57.5188119 L135.664356,57.5188119 C138.694059,57.5188119 141.067327,56.660396 142.733663,54.8930693 C143.794059,53.7821782 144.50099,51.9643564 144.854455,49.439604 C145.005941,48.0762376 145.106931,45.8039604 145.106931,42.5722772 Z M176.868317,60.9524752 L176.868317,44.9960396 C176.868317,39.3405941 173.535644,35.8059406 167.930693,35.8059406 C165.052475,35.8059406 162.729703,36.8158416 160.962376,38.8356436 L160.962376,25 L157.326733,25 L157.326733,60.9524752 L160.962376,60.9524752 L160.962376,45.6019802 C160.962376,41.360396 163.335644,39.0376238 167.173267,39.0376238 C171.212871,39.0376238 173.232673,41.2089109 173.232673,45.6019802 L173.232673,60.9524752 L176.868317,60.9524752 Z M203.428713,60.9524752 L199.793069,60.9524752 L199.793069,58.5792079 C198.025743,60.3465347 195.60198,61.2554455 192.622772,61.2554455 C189.441584,61.2554455 187.068317,60.4980198 185.60396,58.9831683 C184.341584,57.7207921 183.735644,56.0039604 183.735644,53.9336634 C183.735644,49.490099 186.866337,46.7633663 192.319802,46.7633663 L199.793069,46.7633663 L199.793069,44.390099 C199.793069,40.7544554 197.672277,38.9366337 193.430693,38.9366337 C190.60297,38.9366337 188.532673,39.8960396 187.169307,41.7643564 L184.69505,39.4920792 C185.755446,38.1287129 187.017822,37.1188119 188.431683,36.5633663 C189.694059,36.0584158 191.410891,35.8059406 193.481188,35.8059406 C200.09604,35.8059406 203.428713,38.5831683 203.428713,44.0871287 L203.428713,60.9524752 Z M199.793069,52.1663366 L199.793069,49.490099 L192.824752,49.490099 C189.138614,49.490099 187.270297,50.9544554 187.270297,53.8831683 C187.270297,56.7108911 189.189109,58.1247525 192.976238,58.1247525 C195.551485,58.1247525 197.369307,57.5693069 198.530693,56.4584158 C199.389109,55.650495 199.793069,54.2366337 199.793069,52.1663366 Z M228.827723,38.1287129 C227.262376,36.5633663 225.293069,35.8059406 222.869307,35.8059406 C219.688119,35.8059406 217.365347,36.9168317 215.90099,39.1386139 L215.90099,36.1089109 L212.265347,36.1089109 L212.265347,60.9524752 L215.90099,60.9524752 L215.90099,45.7029703 C215.90099,41.8653465 218.274257,39.0376238 221.859406,39.0376238 C223.525743,39.0376238 224.939604,39.6435644 226.151485,40.8554455 L228.827723,38.1287129 Z M269.072277,60.9524752 L269.072277,45.0465347 C269.072277,42.1683168 268.163366,39.8455446 266.39604,38.1287129 C264.830693,36.5633663 262.659406,35.8059406 259.983168,35.8059406 C256.49901,35.8059406 253.772277,37.1693069 251.80297,39.9465347 C250.237624,37.1693069 247.712871,35.8059406 244.178218,35.8059406 C241.3,35.8059406 238.926733,36.8158416 237.159406,38.8356436 L237.159406,36.1089109 L233.523762,36.1089109 L233.523762,60.9524752 L237.159406,60.9524752 L237.159406,45.6524752 C237.159406,41.4108911 239.532673,39.0376238 243.370297,39.0376238 C247.460396,39.0376238 249.480198,41.2594059 249.480198,45.6524752 L249.480198,60.9524752 L253.115842,60.9524752 L253.115842,45.2485149 C253.115842,41.4108911 255.640594,39.0376238 259.326733,39.0376238 C263.416832,39.0376238 265.436634,41.2594059 265.436634,45.6524752 L265.436634,60.9524752 L269.072277,60.9524752 Z M295.632673,60.9524752 L291.99703,60.9524752 L291.99703,58.5792079 C290.229703,60.3465347 287.805941,61.2554455 284.826733,61.2554455 C281.645545,61.2554455 279.272277,60.4980198 277.807921,58.9831683 C276.545545,57.7207921 275.939604,56.0039604 275.939604,53.9336634 C275.939604,49.490099 279.070297,46.7633663 284.523762,46.7633663 L291.99703,46.7633663 L291.99703,44.390099 C291.99703,40.7544554 289.876238,38.9366337 285.634653,38.9366337 C282.806931,38.9366337 280.736634,39.8960396 279.373267,41.7643564 L276.89901,39.4920792 C277.959406,38.1287129 279.221782,37.1188119 280.635644,36.5633663 C281.89802,36.0584158 283.614851,35.8059406 285.685149,35.8059406 C292.3,35.8059406 295.632673,38.5831683 295.632673,44.0871287 L295.632673,60.9524752 Z M291.99703,52.1663366 L291.99703,49.490099 L285.028713,49.490099 C281.342574,49.490099 279.474257,50.9544554 279.474257,53.8831683 C279.474257,56.7108911 281.393069,58.1247525 285.180198,58.1247525 C287.755446,58.1247525 289.573267,57.5693069 290.734653,56.4584158 C291.593069,55.650495 291.99703,54.2366337 291.99703,52.1663366 Z" id="logotype-orange"></path>
            </g>
        </g>
    </g>
</svg>