<svg width="419" height="155" viewBox="0 0 419 155" fill="none" xmlns="http://www.w3.org/2000/svg">
<mask id="mask0" mask-type="alpha" maskUnits="userSpaceOnUse" x="0" y="0" width="138" height="155">
<path d="M0 155H138V0H0V155Z" fill="white"/>
</mask>
<g mask="url(#mask0)">
<path fill-rule="evenodd" clip-rule="evenodd" d="M14.2663 0L4.73693 5.52814C-1.5283 9.13443 -1.61415 14.6469 4.69145 18.2806L61.1455 51.0247L81.8563 38.986L14.2663 0Z" transform="translate(7.85504 23.1083)" fill="white"/>
<path fill-rule="evenodd" clip-rule="evenodd" d="M67.6026 47.0145L88.2718 35.0532L33.0174 3.02439C25.8062 -1.11771 15.2971 -0.819297 9.03188 2.787L0 8.03824L67.6026 47.0145Z" transform="translate(48.1774 -0.0223083)" fill="white"/>
<path fill-rule="evenodd" clip-rule="evenodd" d="M67.6049 50.9379L88.2087 38.9927L20.6061 0L0 11.9531L67.6049 50.9379Z" transform="translate(24.8306 9.59424)" fill="white"/>
<path fill-rule="evenodd" clip-rule="evenodd" d="M67.4297 71.7327L67.4324 34.1839L10.9274 1.41793C4.62767 -2.21067 0 1.45507 0 8.66181L0.00117612 32.6195L67.4297 71.7327Z" transform="translate(-6.10352e-05 42.6561)" fill="white"/>
<path fill-rule="evenodd" clip-rule="evenodd" d="M0 0L0.0164658 24.262C0.0164658 33.4931 5.19024 40.5602 11.4904 44.1884L67.4312 76.6548V39.1112L0 0Z" transform="translate(0.0010376 78.4045)" fill="white"/>
<path fill-rule="evenodd" clip-rule="evenodd" d="M67.4312 24.248V0L12.5469 31.8344C5.17535 36.1252 0 43.818 0 52.3517V63.3575L67.4312 24.248Z" transform="translate(70.5686 37.7303)" fill="white"/>
<path fill-rule="evenodd" clip-rule="evenodd" d="M44.1169 23.4137V0L0 25.5417V49.0074L44.1169 23.4137Z" transform="translate(70.5687 78.675)" fill="white"/>
<path fill-rule="evenodd" clip-rule="evenodd" d="M0 11.984V36.2319L20.7429 24.2022V0L0 11.984Z" transform="translate(70.5686 118.827)" fill="white"/>
</g>
<path d="M1.97319 29.1341C1.69913 29.1341 1.45248 29.0383 1.23324 28.8469C1.0414 28.628 0.945485 28.3818 0.945485 28.1082V1.43619C0.945485 1.13527 1.0414 0.889068 1.23324 0.697578C1.45248 0.506085 1.69913 0.410339 1.97319 0.410339H21.1707C21.4721 0.410339 21.7188 0.506085 21.9106 0.697578C22.1024 0.889068 22.1984 1.13527 22.1984 1.43619V5.29338C22.1984 5.56694 22.1024 5.81314 21.9106 6.03199C21.7188 6.22348 21.4721 6.31922 21.1707 6.31922H8.05718V11.8588H20.2663C20.5677 11.8588 20.8144 11.9682 21.0062 12.1871C21.1981 12.3786 21.294 12.6248 21.294 12.9257V16.4956C21.294 16.7692 21.1981 17.0154 21.0062 17.2342C20.8144 17.4257 20.5677 17.5215 20.2663 17.5215H8.05718V23.2252H21.4995C21.801 23.2252 22.0476 23.3209 22.2395 23.5124C22.4313 23.7039 22.5272 23.9501 22.5272 24.2511V28.1082C22.5272 28.3818 22.4313 28.628 22.2395 28.8469C22.0476 29.0383 21.801 29.1341 21.4995 29.1341H1.97319Z" transform="translate(184 14)" fill="white"/>
<path d="M37.4819 29.1341C31.809 29.1341 28.9725 26.4395 28.9725 21.0504V13.1719H25.7661C25.4646 13.1719 25.2043 13.0761 24.985 12.8847C24.7932 12.6932 24.6973 12.447 24.6973 12.146V8.82229C24.6973 8.52138 24.7932 8.27518 24.985 8.08368C25.2043 7.89219 25.4646 7.79645 25.7661 7.79645H28.9725V1.02585C28.9725 0.724932 29.0684 0.47873 29.2603 0.287239C29.4795 0.0957462 29.7262 0 30.0002 0H34.7687C35.0702 0 35.3169 0.0957462 35.5087 0.287239C35.7005 0.47873 35.7964 0.724932 35.7964 1.02585V7.79645H40.935C41.2364 7.79645 41.4831 7.89219 41.6749 8.08368C41.8941 8.27518 42.0038 8.52138 42.0038 8.82229V12.146C42.0038 12.447 41.8941 12.6932 41.6749 12.8847C41.4831 13.0761 41.2364 13.1719 40.935 13.1719H35.7964V20.4759C35.7964 22.5003 36.5775 23.5124 38.1396 23.5124H41.3049C41.6064 23.5124 41.853 23.6082 42.0449 23.7997C42.2367 23.9912 42.3326 24.2374 42.3326 24.5383V28.1082C42.3326 28.3818 42.2367 28.628 42.0449 28.8469C41.853 29.0383 41.6064 29.1341 41.3049 29.1341H37.4819Z" transform="translate(184 14)" fill="white"/>
<path d="M46.764 29.1341C46.4899 29.1341 46.2432 29.0383 46.024 28.8469C45.8322 28.628 45.7362 28.3818 45.7362 28.1082V1.02585C45.7362 0.724932 45.8322 0.47873 46.024 0.287239C46.2432 0.0957462 46.4899 0 46.764 0H52.0258C52.3272 0 52.5739 0.0957462 52.7657 0.287239C52.9576 0.47873 53.0535 0.724932 53.0535 1.02585V10.1764C54.6978 8.31621 56.8628 7.38611 59.5486 7.38611C61.1381 7.38611 62.5494 7.74173 63.7827 8.45299C65.0433 9.16424 66.0299 10.2174 66.7425 11.6126C67.455 13.0078 67.8113 14.6901 67.8113 16.6598V28.1082C67.8113 28.3818 67.7154 28.628 67.5235 28.8469C67.3317 29.0383 67.085 29.1341 66.7836 29.1341H61.4806C61.2066 29.1341 60.9599 29.0383 60.7407 28.8469C60.5489 28.628 60.4529 28.3818 60.4529 28.1082V16.906C60.4529 15.6202 60.1378 14.6354 59.5074 13.9515C58.9045 13.2403 58.0139 12.8847 56.8354 12.8847C55.657 12.8847 54.7252 13.2403 54.0401 13.9515C53.3823 14.6354 53.0535 15.6202 53.0535 16.906V28.1082C53.0535 28.4092 52.9576 28.6554 52.7657 28.8469C52.5739 29.0383 52.3272 29.1341 52.0258 29.1341H46.764Z" transform="translate(184 14)" fill="white"/>
<path d="M82.3385 29.5444C79.0498 29.5444 76.46 28.6554 74.5691 26.8772C72.6781 25.0991 71.6915 22.5139 71.6093 19.1218V17.6856C71.7189 14.4576 72.7192 11.9409 74.6102 10.1354C76.5285 8.30253 79.0909 7.38611 82.2974 7.38611C84.6268 7.38611 86.5863 7.86484 88.1758 8.82229C89.7927 9.7524 90.9986 11.0381 91.7933 12.6795C92.6155 14.3208 93.0266 16.2084 93.0266 18.3422V19.327C93.0266 19.6005 92.9307 19.8467 92.7388 20.0656C92.547 20.2571 92.3003 20.3528 91.9989 20.3528H78.8443V20.6401C78.8991 21.9258 79.2143 22.9653 79.7898 23.7586C80.3653 24.552 81.2012 24.9486 82.2974 24.9486C82.9825 24.9486 83.5443 24.8118 83.9828 24.5383C84.4213 24.2374 84.8187 23.8817 85.1749 23.4714C85.4216 23.1705 85.6134 22.9927 85.7504 22.938C85.9149 22.8559 86.1615 22.8149 86.4904 22.8149H91.5878C91.8344 22.8149 92.04 22.8969 92.2044 23.0611C92.3963 23.1978 92.4922 23.3893 92.4922 23.6355C92.4922 24.3468 92.0811 25.1675 91.2589 26.0976C90.4642 27.0277 89.2994 27.8347 87.7647 28.5186C86.23 29.2025 84.4213 29.5444 82.3385 29.5444ZM85.7916 16.2905V16.2084C85.7916 14.868 85.4764 13.8148 84.8461 13.0488C84.2432 12.2555 83.3936 11.8588 82.2974 11.8588C81.2286 11.8588 80.379 12.2555 79.7487 13.0488C79.1458 13.8148 78.8443 14.868 78.8443 16.2084V16.2905H85.7916Z" transform="translate(184 14)" fill="white"/>
<path d="M97.9082 29.1341C97.6067 29.1341 97.3601 29.0383 97.1682 28.8469C96.9764 28.6554 96.8805 28.4092 96.8805 28.1082V8.82229C96.8805 8.52138 96.9764 8.27518 97.1682 8.08368C97.3601 7.89219 97.6067 7.79645 97.9082 7.79645H102.636C102.937 7.79645 103.184 7.90587 103.376 8.12472C103.595 8.31621 103.704 8.54874 103.704 8.82229V10.4637C105.212 8.68552 107.24 7.79645 109.788 7.79645H111.597C111.899 7.79645 112.145 7.89219 112.337 8.08368C112.529 8.27518 112.625 8.52138 112.625 8.82229V13.0488C112.625 13.3223 112.529 13.5686 112.337 13.7874C112.145 13.9789 111.899 14.0746 111.597 14.0746H107.61C106.486 14.0746 105.609 14.3892 104.979 15.0184C104.376 15.6202 104.074 16.482 104.074 17.6036V28.1082C104.074 28.4092 103.965 28.6554 103.746 28.8469C103.554 29.0383 103.307 29.1341 103.006 29.1341H97.9082Z" transform="translate(184 14)" fill="white"/>
<path d="M125.213 29.5444C121.924 29.5444 119.334 28.6554 117.443 26.8772C115.553 25.0991 114.566 22.5139 114.484 19.1218V17.6856C114.593 14.4576 115.594 11.9409 117.485 10.1354C119.403 8.30253 121.965 7.38611 125.172 7.38611C127.501 7.38611 129.461 7.86484 131.05 8.82229C132.667 9.7524 133.873 11.0381 134.668 12.6795C135.49 14.3208 135.901 16.2084 135.901 18.3422V19.327C135.901 19.6005 135.805 19.8467 135.613 20.0656C135.421 20.2571 135.175 20.3528 134.873 20.3528H121.719V20.6401C121.774 21.9258 122.089 22.9653 122.664 23.7586C123.24 24.552 124.076 24.9486 125.172 24.9486C125.857 24.9486 126.419 24.8118 126.857 24.5383C127.296 24.2374 127.693 23.8817 128.049 23.4714C128.296 23.1705 128.488 22.9927 128.625 22.938C128.789 22.8559 129.036 22.8149 129.365 22.8149H134.462C134.709 22.8149 134.914 22.8969 135.079 23.0611C135.271 23.1978 135.367 23.3893 135.367 23.6355C135.367 24.3468 134.956 25.1675 134.133 26.0976C133.339 27.0277 132.174 27.8347 130.639 28.5186C129.104 29.2025 127.296 29.5444 125.213 29.5444ZM128.666 16.2905V16.2084C128.666 14.868 128.351 13.8148 127.72 13.0488C127.118 12.2555 126.268 11.8588 125.172 11.8588C124.103 11.8588 123.253 12.2555 122.623 13.0488C122.02 13.8148 121.719 14.868 121.719 16.2084V16.2905H128.666Z" transform="translate(184 14)" fill="white"/>
<path d="M147.607 29.5444C145.195 29.5444 143.249 28.7374 141.769 27.1234C140.289 25.4821 139.549 23.1978 139.549 20.2708V8.82229C139.549 8.52138 139.645 8.27518 139.837 8.08368C140.029 7.89219 140.276 7.79645 140.577 7.79645H145.716C146.017 7.79645 146.264 7.89219 146.455 8.08368C146.675 8.27518 146.784 8.52138 146.784 8.82229V20.0246C146.784 22.7054 147.976 24.0459 150.361 24.0459C151.512 24.0459 152.416 23.6903 153.074 22.979C153.732 22.2677 154.06 21.2829 154.06 20.0246V8.82229C154.06 8.52138 154.156 8.27518 154.348 8.08368C154.567 7.89219 154.814 7.79645 155.088 7.79645H160.227C160.528 7.79645 160.775 7.89219 160.967 8.08368C161.158 8.27518 161.254 8.52138 161.254 8.82229V28.1082C161.254 28.3818 161.158 28.628 160.967 28.8469C160.775 29.0383 160.528 29.1341 160.227 29.1341H155.458C155.184 29.1341 154.937 29.0383 154.718 28.8469C154.526 28.628 154.43 28.3818 154.43 28.1082V26.549C153.005 28.5459 150.731 29.5444 147.607 29.5444Z" transform="translate(184 14)" fill="white"/>
<path d="M167.117 29.1341C166.816 29.1341 166.569 29.0383 166.377 28.8469C166.186 28.6554 166.09 28.4092 166.09 28.1082V8.82229C166.09 8.52138 166.186 8.27518 166.377 8.08368C166.569 7.89219 166.816 7.79645 167.117 7.79645H171.598C171.9 7.79645 172.146 7.89219 172.338 8.08368C172.53 8.27518 172.626 8.52138 172.626 8.82229V10.2174C173.256 9.39677 174.092 8.72655 175.133 8.20678C176.202 7.65967 177.394 7.38611 178.71 7.38611C181.724 7.38611 183.807 8.56241 184.958 10.915C185.616 9.8755 186.534 9.02746 187.713 8.37092C188.891 7.71438 190.152 7.38611 191.495 7.38611C193.742 7.38611 195.564 8.15207 196.962 9.68401C198.387 11.1886 199.099 13.4455 199.099 16.4546V28.1082C199.099 28.3818 199.004 28.628 198.812 28.8469C198.62 29.0383 198.373 29.1341 198.072 29.1341H193.303C193.002 29.1341 192.741 29.0383 192.522 28.8469C192.33 28.6554 192.234 28.4092 192.234 28.1082V16.7418C192.234 15.374 191.947 14.3892 191.371 13.7874C190.823 13.1856 190.069 12.8847 189.11 12.8847C188.233 12.8847 187.507 13.1992 186.932 13.8284C186.356 14.4303 186.068 15.4014 186.068 16.7418V28.1082C186.068 28.3818 185.972 28.628 185.78 28.8469C185.589 29.0383 185.342 29.1341 185.041 29.1341H180.272C179.971 29.1341 179.724 29.0383 179.532 28.8469C179.34 28.6554 179.244 28.4092 179.244 28.1082V16.7418C179.244 15.4014 178.943 14.4303 178.34 13.8284C177.764 13.1992 177.024 12.8847 176.12 12.8847C175.243 12.8847 174.503 13.1992 173.9 13.8284C173.325 14.4303 173.037 15.3877 173.037 16.7008V28.1082C173.037 28.3818 172.941 28.628 172.749 28.8469C172.557 29.0383 172.311 29.1341 172.009 29.1341H167.117Z" transform="translate(184 14)" fill="white"/>
<path d="M12.7435 79.1271C8.82453 79.1271 5.75513 78.1833 3.53529 76.2957C1.34286 74.3808 0.178135 71.6179 0.041108 68.0069C0.0137027 67.2683 0 66.0646 0 64.3959C0 62.6998 0.0137027 61.4688 0.041108 60.7029C0.178135 57.1466 1.37027 54.411 3.61751 52.4961C5.86475 50.5538 8.90675 49.5827 12.7435 49.5827C15.1552 49.5827 17.3202 49.993 19.2386 50.8137C21.1569 51.607 22.6642 52.756 23.7605 54.2605C24.8841 55.7377 25.4596 57.4749 25.487 59.4718V59.5539C25.487 59.7728 25.3911 59.9642 25.1992 60.1284C25.0348 60.2652 24.843 60.3336 24.6237 60.3336H19.0741C18.7179 60.3336 18.4438 60.2652 18.252 60.1284C18.0601 59.9642 17.8957 59.677 17.7587 59.2667C17.375 57.8715 16.7721 56.9004 15.9499 56.3533C15.1278 55.7788 14.0453 55.4915 12.7024 55.4915C9.46856 55.4915 7.79683 57.297 7.68721 60.908C7.6598 61.6466 7.6461 62.7819 7.6461 64.3138C7.6461 65.8458 7.6598 67.0084 7.68721 67.8017C7.79683 71.4127 9.46856 73.2182 12.7024 73.2182C14.0453 73.2182 15.1415 72.931 15.991 72.3565C16.8406 71.7547 17.4298 70.7835 17.7587 69.4431C17.8683 69.0327 18.019 68.7592 18.2109 68.6224C18.4027 68.4583 18.6905 68.3762 19.0741 68.3762H24.6237C24.8704 68.3762 25.0759 68.4583 25.2403 68.6224C25.4322 68.7865 25.5144 68.9917 25.487 69.2379C25.4596 71.2349 24.8841 72.9857 23.7605 74.4903C22.6642 75.9675 21.1569 77.1164 19.2386 77.9371C17.3202 78.7304 15.1552 79.1271 12.7435 79.1271Z" transform="translate(184 14)" fill="white"/>
<path d="M39.4698 79.1271C36.0716 79.1271 33.4544 78.3201 31.6182 76.7061C29.782 75.0921 28.7817 72.8215 28.6173 69.8945C28.5899 69.5388 28.5762 68.9233 28.5762 68.0479C28.5762 67.1725 28.5899 66.557 28.6173 66.2014C28.7817 63.3017 29.8094 61.0448 31.7004 59.4308C33.5914 57.7895 36.1812 56.9688 39.4698 56.9688C42.7859 56.9688 45.3894 57.7895 47.2804 59.4308C49.1713 61.0448 50.199 63.3017 50.3635 66.2014C50.3909 66.557 50.4046 67.1725 50.4046 68.0479C50.4046 68.9233 50.3909 69.5388 50.3635 69.8945C50.199 72.8215 49.1987 75.0921 47.3626 76.7061C45.5264 78.3201 42.8955 79.1271 39.4698 79.1271ZM39.4698 74.121C40.6757 74.121 41.5664 73.7653 42.1419 73.0541C42.7174 72.3155 43.0462 71.1939 43.1285 69.6893C43.1559 69.4157 43.1696 68.8686 43.1696 68.0479C43.1696 67.2272 43.1559 66.6801 43.1285 66.4066C43.0462 64.9294 42.7037 63.8214 42.1008 63.0828C41.5252 62.3442 40.6483 61.9749 39.4698 61.9749C37.1952 61.9749 35.9894 63.4521 35.8523 66.4066L35.8112 68.0479L35.8523 69.6893C35.9071 71.1939 36.2223 72.3155 36.7978 73.0541C37.4007 73.7653 38.2914 74.121 39.4698 74.121Z" transform="translate(184 14)" fill="white"/>
<path d="M55.5155 78.7168C55.214 78.7168 54.9674 78.621 54.7755 78.4295C54.5837 78.238 54.4878 77.9918 54.4878 77.6909V58.405C54.4878 58.104 54.5837 57.8578 54.7755 57.6663C54.9674 57.4749 55.214 57.3791 55.5155 57.3791H59.9963C60.2977 57.3791 60.5444 57.4749 60.7362 57.6663C60.928 57.8578 61.024 58.104 61.024 58.405V59.8001C61.6543 58.9794 62.4901 58.3092 63.5315 57.7894C64.6004 57.2423 65.7925 56.9688 67.1079 56.9688C70.1225 56.9688 72.2053 58.1451 73.3564 60.4977C74.0141 59.4582 74.9322 58.6101 76.1106 57.9536C77.289 57.297 78.5497 56.9688 79.8926 56.9688C82.1398 56.9688 83.9622 57.7347 85.3599 59.2667C86.785 60.7712 87.4975 63.0281 87.4975 66.0373V77.6909C87.4975 77.9645 87.4016 78.2107 87.2098 78.4295C87.018 78.621 86.7713 78.7168 86.4698 78.7168H81.7013C81.3998 78.7168 81.1395 78.621 80.9203 78.4295C80.7284 78.238 80.6325 77.9918 80.6325 77.6909V66.3245C80.6325 64.9567 80.3447 63.9719 79.7692 63.3701C79.2211 62.7682 78.4675 62.4673 77.5083 62.4673C76.6313 62.4673 75.9051 62.7819 75.3296 63.4111C74.754 64.0129 74.4663 64.9841 74.4663 66.3245V77.6909C74.4663 77.9645 74.3704 78.2107 74.1785 78.4295C73.9867 78.621 73.74 78.7168 73.4386 78.7168H68.6701C68.3686 78.7168 68.1219 78.621 67.9301 78.4295C67.7383 78.238 67.6423 77.9918 67.6423 77.6909V66.3245C67.6423 64.9841 67.3409 64.0129 66.738 63.4111C66.1625 62.7819 65.4225 62.4673 64.5181 62.4673C63.6412 62.4673 62.9012 62.7819 62.2983 63.4111C61.7228 64.0129 61.435 64.9704 61.435 66.2835V77.6909C61.435 77.9645 61.3391 78.2107 61.1473 78.4295C60.9554 78.621 60.7088 78.7168 60.4073 78.7168H55.5155Z" transform="translate(184 14)" fill="white"/>
<path d="M93.1711 78.7168C92.8696 78.7168 92.623 78.621 92.4312 78.4295C92.2393 78.238 92.1434 77.9918 92.1434 77.6909V58.405C92.1434 58.104 92.2393 57.8578 92.4312 57.6663C92.623 57.4749 92.8696 57.3791 93.1711 57.3791H97.6519C97.9533 57.3791 98.2 57.4749 98.3918 57.6663C98.5837 57.8578 98.6796 58.104 98.6796 58.405V59.8001C99.3099 58.9794 100.146 58.3092 101.187 57.7894C102.256 57.2423 103.448 56.9688 104.764 56.9688C107.778 56.9688 109.861 58.1451 111.012 60.4977C111.67 59.4582 112.588 58.6101 113.766 57.9536C114.945 57.297 116.205 56.9688 117.548 56.9688C119.795 56.9688 121.618 57.7347 123.016 59.2667C124.441 60.7712 125.153 63.0281 125.153 66.0373V77.6909C125.153 77.9645 125.057 78.2107 124.865 78.4295C124.674 78.621 124.427 78.7168 124.125 78.7168H119.357C119.055 78.7168 118.795 78.621 118.576 78.4295C118.384 78.238 118.288 77.9918 118.288 77.6909V66.3245C118.288 64.9567 118 63.9719 117.425 63.3701C116.877 62.7682 116.123 62.4673 115.164 62.4673C114.287 62.4673 113.561 62.7819 112.985 63.4111C112.41 64.0129 112.122 64.9841 112.122 66.3245V77.6909C112.122 77.9645 112.026 78.2107 111.834 78.4295C111.642 78.621 111.396 78.7168 111.094 78.7168H106.326C106.024 78.7168 105.778 78.621 105.586 78.4295C105.394 78.238 105.298 77.9918 105.298 77.6909V66.3245C105.298 64.9841 104.997 64.0129 104.394 63.4111C103.818 62.7819 103.078 62.4673 102.174 62.4673C101.297 62.4673 100.557 62.7819 99.9539 63.4111C99.3784 64.0129 99.0907 64.9704 99.0907 66.2835V77.6909C99.0907 77.9645 98.9947 78.2107 98.8029 78.4295C98.6111 78.621 98.3644 78.7168 98.063 78.7168H93.1711Z" transform="translate(184 14)" fill="white"/>
<path d="M137.651 79.1271C135.239 79.1271 133.293 78.3201 131.813 76.7061C130.333 75.0647 129.593 72.7805 129.593 69.8534V58.405C129.593 58.104 129.689 57.8578 129.881 57.6663C130.073 57.4749 130.32 57.3791 130.621 57.3791H135.76C136.061 57.3791 136.308 57.4749 136.5 57.6663C136.719 57.8578 136.828 58.104 136.828 58.405V69.6072C136.828 72.2881 138.021 73.6285 140.405 73.6285C141.556 73.6285 142.46 73.2729 143.118 72.5617C143.776 71.8504 144.105 70.8656 144.105 69.6072V58.405C144.105 58.104 144.201 57.8578 144.392 57.6663C144.612 57.4749 144.858 57.3791 145.132 57.3791H150.271C150.572 57.3791 150.819 57.4749 151.011 57.6663C151.203 57.8578 151.299 58.104 151.299 58.405V77.6909C151.299 77.9645 151.203 78.2107 151.011 78.4295C150.819 78.621 150.572 78.7168 150.271 78.7168H145.502C145.228 78.7168 144.982 78.621 144.762 78.4295C144.571 78.2107 144.475 77.9645 144.475 77.6909V76.1316C143.05 78.1286 140.775 79.1271 137.651 79.1271Z" transform="translate(184 14)" fill="white"/>
<path d="M157.162 78.7168C156.86 78.7168 156.613 78.621 156.422 78.4295C156.23 78.238 156.134 77.9918 156.134 77.6909V58.405C156.134 58.104 156.23 57.8578 156.422 57.6663C156.613 57.4749 156.86 57.3791 157.162 57.3791H161.889C162.19 57.3791 162.437 57.4749 162.629 57.6663C162.848 57.8578 162.958 58.104 162.958 58.405V59.9642C163.698 59.0615 164.643 58.3366 165.794 57.7894C166.973 57.2423 168.302 56.9688 169.782 56.9688C172.193 56.9688 174.153 57.7895 175.66 59.4308C177.167 61.0448 177.921 63.3153 177.921 66.2424V77.6909C177.921 77.9645 177.825 78.2107 177.633 78.4295C177.442 78.621 177.195 78.7168 176.893 78.7168H171.714C171.44 78.7168 171.193 78.621 170.974 78.4295C170.782 78.2107 170.686 77.9645 170.686 77.6909V66.4886C170.686 65.2029 170.371 64.2181 169.741 63.5342C169.11 62.8229 168.206 62.4673 167.028 62.4673C165.876 62.4673 164.972 62.8229 164.314 63.5342C163.657 64.2181 163.328 65.2029 163.328 66.4886V77.6909C163.328 77.9645 163.232 78.2107 163.04 78.4295C162.848 78.621 162.602 78.7168 162.3 78.7168H157.162Z" transform="translate(184 14)" fill="white"/>
<path d="M183.536 54.3016C183.234 54.3016 182.987 54.2058 182.796 54.0143C182.604 53.8228 182.508 53.5766 182.508 53.2757V49.5827C182.508 49.2817 182.604 49.0355 182.796 48.8441C182.987 48.6526 183.234 48.5568 183.536 48.5568H188.469C188.77 48.5568 189.017 48.6526 189.209 48.8441C189.4 49.0355 189.496 49.2817 189.496 49.5827V53.2757C189.496 53.5766 189.4 53.8228 189.209 54.0143C189.017 54.2058 188.77 54.3016 188.469 54.3016H183.536ZM183.577 78.7168C183.275 78.7168 183.029 78.621 182.837 78.4295C182.645 78.238 182.549 77.9918 182.549 77.6909V58.405C182.549 58.104 182.645 57.8578 182.837 57.6663C183.029 57.4749 183.275 57.3791 183.577 57.3791H188.427C188.729 57.3791 188.976 57.4749 189.167 57.6663C189.359 57.8578 189.455 58.104 189.455 58.405V77.6909C189.455 77.9645 189.359 78.2107 189.167 78.4295C188.976 78.621 188.729 78.7168 188.427 78.7168H183.577Z" transform="translate(184 14)" fill="white"/>
<path d="M205.246 78.7168C199.573 78.7168 196.737 76.0222 196.737 70.6331V62.7545H193.53C193.229 62.7545 192.969 62.6588 192.749 62.4673C192.557 62.2758 192.462 62.0296 192.462 61.7287V58.405C192.462 58.104 192.557 57.8578 192.749 57.6663C192.969 57.4749 193.229 57.3791 193.53 57.3791H196.737V50.6085C196.737 50.3076 196.833 50.0614 197.025 49.8699C197.244 49.6784 197.49 49.5827 197.764 49.5827H202.533C202.834 49.5827 203.081 49.6784 203.273 49.8699C203.465 50.0614 203.561 50.3076 203.561 50.6085V57.3791H208.699C209.001 57.3791 209.247 57.4749 209.439 57.6663C209.658 57.8578 209.768 58.104 209.768 58.405V61.7287C209.768 62.0296 209.658 62.2758 209.439 62.4673C209.247 62.6588 209.001 62.7545 208.699 62.7545H203.561V70.0586C203.561 72.0829 204.342 73.0951 205.904 73.0951H209.069C209.371 73.0951 209.617 73.1909 209.809 73.3823C210.001 73.5738 210.097 73.82 210.097 74.121V77.6909C210.097 77.9645 210.001 78.2107 209.809 78.4295C209.617 78.621 209.371 78.7168 209.069 78.7168H205.246Z" transform="translate(184 14)" fill="white"/>
<path d="M217.488 86.5132C217.241 86.5132 217.036 86.4311 216.871 86.267C216.707 86.1029 216.625 85.8977 216.625 85.6515C216.625 85.46 216.666 85.2822 216.748 85.118L219.954 77.4037L212.062 58.7743C211.979 58.5554 211.938 58.3913 211.938 58.2819C211.993 58.0357 212.103 57.8305 212.267 57.6663C212.432 57.4749 212.637 57.3791 212.884 57.3791H217.57C218.146 57.3791 218.543 57.6663 218.762 58.2408L223.449 70.1817L228.258 58.2408C228.532 57.6663 228.943 57.3791 229.492 57.3791H234.096C234.342 57.3791 234.548 57.4749 234.712 57.6663C234.904 57.8305 235 58.022 235 58.2408C235 58.3502 234.959 58.5281 234.877 58.7743L223.243 85.6515C223.024 86.226 222.613 86.5132 222.01 86.5132H217.488Z" transform="translate(184 14)" fill="white"/>
<path d="M1.97319 126.59C1.69913 126.59 1.45248 126.494 1.23324 126.302C1.0414 126.084 0.945485 125.837 0.945485 125.564V98.8918C0.945485 98.5908 1.0414 98.3446 1.23324 98.1532C1.45248 97.9617 1.69913 97.8659 1.97319 97.8659H20.8829C21.1844 97.8659 21.431 97.9617 21.6228 98.1532C21.8147 98.3446 21.9106 98.5908 21.9106 98.8918V103.036C21.9106 103.31 21.8147 103.556 21.6228 103.775C21.431 103.966 21.1844 104.062 20.8829 104.062H8.1805V110.094H20.0607C20.3622 110.094 20.6088 110.203 20.8007 110.422C20.9925 110.614 21.0884 110.86 21.0884 111.161V115.264C21.0884 115.538 20.9925 115.784 20.8007 116.003C20.6088 116.194 20.3622 116.29 20.0607 116.29H8.1805V125.564C8.1805 125.865 8.08459 126.111 7.89275 126.302C7.70091 126.494 7.45426 126.59 7.1528 126.59H1.97319Z" transform="translate(184 14)" fill="white"/>
<path d="M33.5557 127C31.1441 127 29.1983 126.193 27.7184 124.579C26.2385 122.938 25.4986 120.653 25.4986 117.726V106.278C25.4986 105.977 25.5945 105.731 25.7863 105.539C25.9782 105.348 26.2248 105.252 26.5263 105.252H31.6648C31.9662 105.252 32.2129 105.348 32.4047 105.539C32.624 105.731 32.7336 105.977 32.7336 106.278V117.48C32.7336 120.161 33.9257 121.501 36.31 121.501C37.461 121.501 38.3654 121.146 39.0231 120.435C39.6808 119.723 40.0097 118.739 40.0097 117.48V106.278C40.0097 105.977 40.1056 105.731 40.2975 105.539C40.5167 105.348 40.7634 105.252 41.0374 105.252H46.1759C46.4774 105.252 46.724 105.348 46.9159 105.539C47.1077 105.731 47.2036 105.977 47.2036 106.278V125.564C47.2036 125.837 47.1077 126.084 46.9159 126.302C46.724 126.494 46.4774 126.59 46.1759 126.59H41.4074C41.1333 126.59 40.8867 126.494 40.6674 126.302C40.4756 126.084 40.3797 125.837 40.3797 125.564V124.005C38.9546 126.002 36.68 127 33.5557 127Z" transform="translate(184 14)" fill="white"/>
<path d="M53.0667 126.59C52.7652 126.59 52.5185 126.494 52.3267 126.302C52.1349 126.111 52.0389 125.865 52.0389 125.564V106.278C52.0389 105.977 52.1349 105.731 52.3267 105.539C52.5185 105.348 52.7652 105.252 53.0667 105.252H57.7941C58.0955 105.252 58.3422 105.348 58.534 105.539C58.7533 105.731 58.8629 105.977 58.8629 106.278V107.837C59.6028 106.934 60.5483 106.209 61.6993 105.662C62.8778 105.115 64.2069 104.842 65.6868 104.842C68.0985 104.842 70.058 105.662 71.5653 107.304C73.0726 108.918 73.8262 111.188 73.8262 114.115V125.564C73.8262 125.837 73.7303 126.084 73.5385 126.302C73.3466 126.494 73.1 126.59 72.7985 126.59H67.6189C67.3448 126.59 67.0982 126.494 66.879 126.302C66.6871 126.084 66.5912 125.837 66.5912 125.564V114.362C66.5912 113.076 66.276 112.091 65.6457 111.407C65.0154 110.696 64.111 110.34 62.9326 110.34C61.7816 110.34 60.8772 110.696 60.2195 111.407C59.5617 112.091 59.2329 113.076 59.2329 114.362V125.564C59.2329 125.837 59.1369 126.084 58.9451 126.302C58.7533 126.494 58.5066 126.59 58.2052 126.59H53.0667Z" transform="translate(184 14)" fill="white"/>
<path d="M86.4291 127C83.7433 127 81.6468 126.166 80.1395 124.497C78.6596 122.801 77.8512 120.421 77.7141 117.357L77.673 115.921L77.7141 114.444C77.8238 111.489 78.6322 109.15 80.1395 107.427C81.6742 105.703 83.7707 104.842 86.4291 104.842C88.9229 104.842 90.9372 105.649 92.4719 107.263V98.4814C92.4719 98.1805 92.5679 97.9343 92.7597 97.7428C92.9515 97.5513 93.1982 97.4556 93.4996 97.4556H98.5148C98.8163 97.4556 99.0629 97.5513 99.2548 97.7428C99.4466 97.9343 99.5425 98.1805 99.5425 98.4814V125.564C99.5425 125.837 99.4466 126.084 99.2548 126.302C99.0629 126.494 98.8163 126.59 98.5148 126.59H93.8696C93.5956 126.59 93.3489 126.494 93.1297 126.302C92.9378 126.084 92.8419 125.837 92.8419 125.564V124.251C91.3346 126.084 89.197 127 86.4291 127ZM88.69 121.501C89.9232 121.501 90.8413 121.118 91.4442 120.353C92.0472 119.559 92.3897 118.547 92.4719 117.316C92.4993 116.96 92.513 116.441 92.513 115.757C92.513 115.1 92.4993 114.594 92.4719 114.238C92.4171 113.117 92.0746 112.187 91.4442 111.448C90.8139 110.71 89.8958 110.34 88.69 110.34C87.4019 110.34 86.4702 110.723 85.8946 111.489C85.3465 112.255 85.0314 113.308 84.9492 114.649C84.9218 114.922 84.9081 115.346 84.9081 115.921C84.9081 116.495 84.9218 116.919 84.9492 117.193C85.0314 118.533 85.3465 119.587 85.8946 120.353C86.4702 121.118 87.4019 121.501 88.69 121.501Z" transform="translate(184 14)" fill="white"/>
</svg>
