<?xml version="1.0" encoding="UTF-8"?>
<svg width="152px" height="39px" viewBox="0 0 152 39" version="1.1" xmlns="http://www.w3.org/2000/svg" xmlns:xlink="http://www.w3.org/1999/xlink">
    <!-- Generator: sketchtool 48.2 (47327) - http://www.bohemiancoding.com/sketch -->
    <title>5CCD8563-7148-4939-8F0A-3B60B72884F8</title>
    <desc>Created with sketchtool.</desc>
    <defs></defs>
    <g id="ETHindia" stroke="none" stroke-width="1" fill="none" fill-rule="evenodd" transform="translate(-100.000000, -48.000000)">
        <g id="ETH-Logo" transform="translate(100.000000, 48.000000)">
            <polygon id="Fill-1" fill="#FFFFFF" points="33.1994435 9.65156522 47.1470957 9.65156522 47.1470957 13.0418261 36.9482261 13.0418261 36.9482261 18.2164348 46.6117913 18.2164348 46.6117913 21.6066957 36.9482261 21.6066957 36.9482261 27.3166087 47.6840522 27.3166087 47.6840522 30.7068696 33.1994435 30.7068696"></polygon>
            <polygon id="Fill-2" fill="#FFFFFF" points="55.682887 13.0423217 49.2294957 13.0423217 49.2294957 9.65206087 65.8834087 9.65206087 65.8834087 13.0423217 59.4300174 13.0423217 59.4300174 30.7073652 55.682887 30.7073652"></polygon>
            <polygon id="Fill-3" fill="#FFFFFF" points="68.4404783 9.65156522 72.1892609 9.65156522 72.1892609 18.038 82.032913 18.038 82.032913 9.65156522 85.7783913 9.65156522 85.7783913 30.7068696 82.032913 30.7068696 82.032913 21.4282609 72.1892609 21.4282609 72.1892609 30.7068696 68.4404783 30.7068696"></polygon>
            <polygon id="Fill-4" fill="#86868C" points="90.7423478 30.7072 93.2404348 30.7072 93.2404348 9.65189565 90.7423478 9.65189565"></polygon>
            <path d="M98.0585043,20.0906609 C98.0585043,19.4562261 98.0386783,18.8614435 97.9990261,18.306313 C97.9577217,17.7511826 97.9395478,17.2456174 97.9395478,16.7896174 L100.140243,16.7896174 C100.140243,17.166313 100.150157,17.5430087 100.169983,17.9197043 C100.189809,18.2964 100.199722,18.6830087 100.199722,19.0795304 L100.2592,19.0795304 C100.417809,18.742487 100.6392,18.4153565 100.92833,18.0981391 C101.215809,17.7809217 101.557809,17.4984 101.95433,17.2505739 C102.350852,17.0027478 102.796939,16.804487 103.292591,16.6557913 C103.788243,16.5070957 104.323548,16.4327478 104.898504,16.4327478 C105.808852,16.4327478 106.598591,16.5715304 107.262765,16.8490957 C107.926939,17.1266609 108.477113,17.5132696 108.913287,18.0089217 C109.349461,18.5045739 109.671635,19.104313 109.879809,19.8081391 C110.087983,20.5119652 110.19207,21.2802261 110.19207,22.1129217 L110.19207,30.7075304 L107.872417,30.7075304 L107.872417,22.3508348 C107.872417,21.1810957 107.614678,20.2591826 107.0992,19.5850957 C106.583722,18.9110087 105.780765,18.5739652 104.69033,18.5739652 C103.936939,18.5739652 103.287635,18.7028348 102.742417,18.9605739 C102.1972,19.218313 101.749461,19.5850957 101.404157,20.0609217 C101.055548,20.5367478 100.799461,21.1017913 100.630939,21.7560522 C100.462417,22.410313 100.378157,23.1339652 100.378157,23.9270087 L100.378157,30.7075304 L98.0585043,30.7075304 L98.0585043,20.0906609 Z" id="Fill-5" fill="#86868C"></path>
            <path d="M126.161652,23.7484087 C126.161652,23.0148435 126.047652,22.3358 125.819652,21.7112783 C125.591652,21.0867565 125.259565,20.5415391 124.823391,20.0756261 C124.387217,19.609713 123.866783,19.2429304 123.262087,18.9752783 C122.657391,18.7076261 121.978348,18.5738 121.224957,18.5738 C120.471565,18.5738 119.792522,18.7076261 119.187826,18.9752783 C118.58313,19.2429304 118.062696,19.609713 117.626522,20.0756261 C117.190348,20.5415391 116.858261,21.0867565 116.630261,21.7112783 C116.402261,22.3358 116.288261,23.0148435 116.288261,23.7484087 C116.288261,24.4819739 116.402261,25.1610174 116.630261,25.7855391 C116.858261,26.4100609 117.190348,26.9552783 117.626522,27.4211913 C118.062696,27.8871043 118.58313,28.253887 119.187826,28.5215391 C119.792522,28.7891913 120.471565,28.9230174 121.224957,28.9230174 C121.978348,28.9230174 122.657391,28.7891913 123.262087,28.5215391 C123.866783,28.253887 124.387217,27.8871043 124.823391,27.4211913 C125.259565,26.9552783 125.591652,26.4100609 125.819652,25.7855391 C126.047652,25.1610174 126.161652,24.4819739 126.161652,23.7484087 Z M126.161652,28.2390174 L126.102174,28.2390174 C125.666,29.0320609 124.977043,29.7011913 124.035304,30.2464087 C123.093565,30.7916261 121.998174,31.0642348 120.74913,31.0642348 C119.777652,31.0642348 118.865652,30.8808435 118.01313,30.5140609 C117.160609,30.1472783 116.422087,29.6367565 115.797565,28.9824957 C115.173043,28.3282348 114.682348,27.5550174 114.325478,26.6628435 C113.968609,25.7706696 113.790174,24.7991913 113.790174,23.7484087 C113.790174,22.6976261 113.968609,21.7261478 114.325478,20.8339739 C114.682348,19.9418 115.178,19.1685826 115.812435,18.5143217 C116.44687,17.8600609 117.21513,17.3495391 118.117217,16.9827565 C119.019304,16.6159739 120.015565,16.4325826 121.106,16.4325826 C122.11713,16.4325826 123.044,16.6407565 123.886609,17.0571043 C124.729217,17.4734522 125.467739,18.0583217 126.102174,18.811713 L126.161652,18.811713 L126.161652,8.22458261 L128.481304,8.22458261 L128.481304,30.7073652 L126.161652,30.7073652 L126.161652,28.2390174 Z" id="Fill-7" fill="#86868C"></path>
            <path d="M132.971913,30.7072 L135.291565,30.7072 L135.291565,16.789287 L132.971913,16.789287 L132.971913,30.7072 Z M132.436609,11.3470261 C132.436609,10.8910261 132.600174,10.4945043 132.927304,10.1574609 C133.254435,9.82041739 133.655913,9.65189565 134.131739,9.65189565 C134.607565,9.65189565 135.009043,9.82041739 135.336174,10.1574609 C135.663304,10.4945043 135.82687,10.8910261 135.82687,11.3470261 C135.82687,11.8426783 135.668261,12.249113 135.351043,12.5663304 C135.033826,12.8835478 134.627391,13.0421565 134.131739,13.0421565 C133.636087,13.0421565 133.229652,12.8835478 132.912435,12.5663304 C132.595217,12.249113 132.436609,11.8426783 132.436609,11.3470261 Z" id="Fill-9" fill="#86868C"></path>
            <path d="M146.4444,24.0162261 C144.957443,24.0162261 143.777791,24.2244 142.905443,24.6407478 C142.033096,25.0570957 141.596922,25.7410957 141.596922,26.6927478 C141.596922,27.5650957 141.889357,28.1846609 142.474226,28.5514435 C143.059096,28.9182261 143.787704,29.1016174 144.660052,29.1016174 C145.334139,29.1016174 145.923965,28.9876174 146.42953,28.7596174 C146.935096,28.5316174 147.3564,28.2292696 147.693443,27.8525739 C148.030487,27.4758783 148.288226,27.0347478 148.466661,26.5291826 C148.645096,26.0236174 148.744226,25.4833565 148.764052,24.9084 L148.764052,24.0162261 L146.4444,24.0162261 Z M139.723357,18.5739652 C140.437096,17.8404 141.284661,17.3001391 142.266052,16.9531826 C143.247443,16.6062261 144.243704,16.4327478 145.254835,16.4327478 C147.316748,16.4327478 148.803704,16.918487 149.715704,17.8899652 C150.627704,18.8614435 151.083704,20.338487 151.083704,22.3210957 L151.083704,28.2986609 C151.083704,28.6951826 151.101878,29.1065739 151.143183,29.5328348 C151.182835,29.9590957 151.2324,30.3506609 151.291878,30.7075304 L149.061443,30.7075304 C148.982139,30.390313 148.93753,30.0384 148.927617,29.6517913 C148.917704,29.2651826 148.912748,28.9231826 148.912748,28.6257913 L148.85327,28.6257913 C148.39727,29.3395304 147.785965,29.9244 147.024313,30.3804 C146.261009,30.8364 145.344052,31.0644 144.273443,31.0644 C143.559704,31.0644 142.890574,30.9751826 142.266052,30.7967478 C141.64153,30.618313 141.096313,30.3556174 140.6304,30.0086609 C140.164487,29.6617043 139.792748,29.230487 139.515183,28.7150087 C139.237617,28.1995304 139.098835,27.6047478 139.098835,26.9306609 C139.098835,25.7807478 139.396226,24.8786609 139.991009,24.2244 C140.585791,23.5701391 141.324313,23.0844 142.206574,22.7671826 C143.088835,22.4499652 144.040487,22.2517043 145.06153,22.1724 C146.082574,22.0930957 147.019357,22.0534435 147.871878,22.0534435 L148.764052,22.0534435 L148.764052,21.6370957 C148.764052,20.6259652 148.461704,19.8626609 147.857009,19.3471826 C147.252313,18.8317043 146.404748,18.5739652 145.314313,18.5739652 C144.55927,18.5739652 143.8224,18.6978783 143.098748,18.9457043 C142.375096,19.1935304 141.734052,19.5751826 141.180574,20.0906609 L139.723357,18.5739652 Z" id="Fill-11" fill="#86868C"></path>
            <path d="M11.606687,14.635513 L0.0018173913,19.9109043 L11.606687,26.7723826 L23.2132087,19.9109043 L11.606687,14.635513 Z M11.606687,16.4496 L19.6428609,20.1025565 L11.606687,24.8525565 L3.57216522,20.1025565 L11.606687,16.4496 Z" id="Fill-12" fill="#FFFFFF"></path>
            <path d="M11.606687,9.1716087 L4.67086087,12.3239565 L11.606687,16.4246522 L18.542513,12.3239565 L11.606687,9.1716087 Z M11.606687,10.9873478 L14.9721652,12.5156087 L11.606687,14.5064783 L8.2412087,12.5156087 L11.606687,10.9873478 Z" id="Fill-13" fill="#FFFFFF"></path>
            <path d="M11.606687,0.651843478 L0.0018173913,19.9112348 L11.606687,26.772713 L11.606687,14.6358435 L11.606687,0.651843478 Z M9.95451304,6.59471304 L9.95451304,14.6358435 L9.95451304,23.8764522 L2.27686087,19.3362783 L9.95451304,6.59471304 Z" id="Fill-14" fill="#86868C"></path>
            <path d="M11.606687,0.651843478 L11.606687,14.6358435 L11.606687,26.772713 L23.2132087,19.9112348 L11.606687,0.651843478 Z M13.2588609,6.59471304 L20.9381652,19.3362783 L13.2588609,23.8764522 L13.2588609,14.6358435 L13.2588609,6.59471304 Z" id="Fill-15" fill="#FFFFFF"></path>
            <path d="M-0.000495652174,22.1122609 L11.6060261,38.4687826 L11.6060261,28.9687826 L-0.000495652174,22.1122609 Z M5.83167826,27.4768696 L9.95385217,29.9121739 L9.95385217,33.285913 L5.83167826,27.4768696 Z" id="Fill-16" fill="#86868C"></path>
            <path d="M23.220313,22.1122609 L11.6071826,28.9687826 L11.6071826,38.4687826 L23.220313,22.1122609 Z M23.220313,22.1122609 L23.2285739,22.1122609 L23.220313,22.1122609 Z M17.3881391,27.4768696 L13.2610087,33.2875652 L13.2610087,29.9121739 L17.3881391,27.4768696 Z" id="Fill-17" fill="#FFFFFF"></path>
            <polygon id="Fill-18" fill="#86868C" points="11.606687 24.8527217 11.606687 24.8527217 3.57216522 20.1027217 11.606687 16.4497652 11.606687 14.6356783 11.606687 14.6356783 0.0018173913 19.9110696 11.606687 26.7725478 11.606687 26.7725478"></polygon>
            <polygon id="Fill-19" fill="#86868C" points="11.606687 16.4248174 11.606687 14.5066435 8.2412087 12.5157739 11.606687 10.987513 11.606687 9.17177391 4.67086087 12.3241217"></polygon>
        </g>
    </g>
</svg>