<?xml version="1.0" encoding="utf-8"?>
<!-- Generator: Adobe Illustrator 22.0.1, SVG Export Plug-In . SVG Version: 6.00 Build 0)  -->
<svg width="245px" height="61px" version="1.1" id="Layer_1" xmlns="http://www.w3.org/2000/svg" xmlns:xlink="http://www.w3.org/1999/xlink" x="0px" y="0px"
	 viewBox="0 0 244.7 60.2" style="enable-background:new 0 0 244.7 60.2;" xml:space="preserve">
<style type="text/css">
	.st0{fill:#FFFFFF;}
</style>
<title>ethereum</title>
<desc>Created with Sketch.</desc>
<g id="ETHindia" transform="translate(-378.000000, -3397.000000)">
	<g id="ethereum" transform="translate(378.000000, 3397.000000)">
		<path id="Fill-1" class="st0" d="M69.6,34.5c-0.3-3.7-3.1-7-7-7s-6.7,3.4-7,7H69.6z M71.2,35.3c0,0.4-0.4,0.7-0.8,0.7H55.5
			c0.4,3.7,3.1,7,7,7c2.7,0,4.6-1,6.1-3.1c0.2-0.2,0.4-0.4,0.6-0.4c0.4,0,0.7,0.3,0.7,0.7c0,0.2-0.1,0.3-0.1,0.4
			c-1.5,2.6-4.5,3.9-7.4,3.9c-5,0-8.6-4.5-8.6-9.3s3.6-9.3,8.6-9.3C67.6,26,71.2,30.5,71.2,35.3z"/>
		<path id="Fill-3" class="st0" d="M89.1,25.5c0.4,0,0.7,0.4,0.7,0.7c0,0.4-0.3,0.7-0.7,0.7h-4v15.7c0,0.4-0.3,0.7-0.7,0.7
			c-0.4,0-0.7-0.4-0.7-0.7V27h-3.8c-0.4,0-0.7-0.3-0.7-0.7c0-0.4,0.3-0.7,0.7-0.7h3.8v-5.8c0-0.4,0.3-0.7,0.7-0.7
			c0.4,0,0.7,0.3,0.7,0.7v5.8L89.1,25.5L89.1,25.5z"/>
		<path id="Fill-5" class="st0" d="M113.6,33.4v9.5c0,0.4-0.4,0.7-0.7,0.7c-0.4,0-0.7-0.3-0.7-0.7v-9.5c0-3.2-1.8-6.4-5.4-6.4
			c-4.6,0-6.6,4-6.3,8.1c0,0.1,0.1,0.6,0.1,0.6v7.1c0,0.4-0.3,0.7-0.7,0.7c-0.4,0-0.7-0.3-0.7-0.7V11.7c0-0.4,0.3-0.7,0.7-0.7
			c0.4,0,0.7,0.4,0.7,0.7v17.6c1.3-2.3,3.6-3.8,6.2-3.8C111.1,25.5,113.6,29.4,113.6,33.4"/>
		<path id="Fill-7" class="st0" d="M138.6,34.5c-0.3-3.7-3.1-7-7-7c-3.9,0-6.7,3.4-7,7H138.6z M140.2,35.3c0,0.4-0.4,0.7-0.8,0.7
			h-14.9c0.4,3.7,3.1,7,7,7c2.7,0,4.6-1,6.1-3.1c0.2-0.2,0.4-0.4,0.6-0.4c0.4,0,0.7,0.3,0.7,0.7c0,0.2-0.1,0.3-0.1,0.4
			c-1.5,2.6-4.5,3.9-7.4,3.9c-5,0-8.6-4.5-8.6-9.3s3.6-9.3,8.6-9.3C136.6,26,140.2,30.5,140.2,35.3z"/>
		<path id="Fill-9" class="st0" d="M158.5,26.7c0,0.5-0.3,0.7-0.7,0.8c-4.4,0.6-6.3,4.2-6.3,8.4V43c0,0.4-0.3,0.7-0.7,0.7
			s-0.7-0.3-0.7-0.7V26.7c0-0.4,0.3-0.7,0.7-0.7s0.7,0.3,0.7,0.7V30c1.2-2.1,3.7-4,6.2-4C158.1,26,158.5,26.3,158.5,26.7"/>
		<path id="Fill-11" class="st0" d="M181.6,34.5c-0.3-3.7-3.1-7-7-7s-6.7,3.4-7,7H181.6z M183.2,35.3c0,0.4-0.4,0.7-0.8,0.7h-14.9
			c0.4,3.7,3.1,7,7,7c2.7,0,4.6-1,6.1-3.1c0.2-0.2,0.4-0.4,0.6-0.4c0.4,0,0.7,0.3,0.7,0.7c0,0.2-0.1,0.3-0.1,0.4
			c-1.5,2.6-4.5,3.9-7.4,3.9c-5,0-8.6-4.5-8.6-9.3s3.6-9.3,8.6-9.3C179.6,26,183.2,30.5,183.2,35.3z"/>
		<path id="Fill-13" class="st0" d="M206.5,26.7v5.2V43c0,0.4-0.4,0.7-0.7,0.7c-0.4,0-0.7-0.3-0.7-0.7v-3c-1.2,2.5-3.4,4.2-6.2,4.2
			c-4.4,0-6.9-3.8-6.9-7.9v-9.5c0-0.4,0.3-0.7,0.7-0.7s0.7,0.4,0.7,0.7v9.5c0,3.2,1.8,6.4,5.4,6.4c5,0,6.2-4.7,6.2-9.9v-6.1
			c0-0.4,0.3-0.7,0.7-0.7C206.2,26,206.5,26.4,206.5,26.7"/>
		<path id="Fill-15" class="st0" d="M244.7,33.8v9.5c0,0.4-0.4,0.7-0.7,0.7c-0.4,0-0.7-0.3-0.7-0.7v-9.5c0-3.2-1.8-6.3-5.4-6.3
			c-4.5,0-6.2,4.8-6.2,8.5v7.4c0,0.4-0.4,0.7-0.7,0.7c-0.4,0-0.7-0.3-0.7-0.7v-9.5c0-3.2-1.8-6.3-5.4-6.3c-4.5,0-6.4,3.6-6.2,8.3
			c0,0.1,0.1,0.3,0,0.4v7.2c0,0.4-0.3,0.7-0.7,0.7s-0.7-0.3-0.7-0.7V27.1c0-0.4,0.3-0.7,0.7-0.7s0.7,0.3,0.7,0.7v2.7
			c1.3-2.3,3.6-3.8,6.2-3.8c3,0,5.4,1.9,6.3,4.7c1.2-2.8,3.6-4.7,6.7-4.7C242.1,26,244.7,29.8,244.7,33.8"/>
		<polygon id="Fill-17" class="st0" points="18.6,0 0,30.8 18.6,41.8 37.1,30.8 		"/>
		<polygon id="Fill-19" class="st0" points="18.6,45 0,34 18.6,60.2 37.1,34 		"/>
	</g>
</g>
</svg>
