<?xml version="1.0" encoding="UTF-8"?>
<svg width="245px" height="61px" viewBox="0 0 245 61" version="1.1" xmlns="http://www.w3.org/2000/svg" xmlns:xlink="http://www.w3.org/1999/xlink">
    <!-- Generator: Sketch 48.2 (47327) - http://www.bohemiancoding.com/sketch -->
    <title>ethereum</title>
    <desc>Created with Sketch.</desc>
    <defs></defs>
    <g id="ETHindia" stroke="none" stroke-width="1" fill="none" fill-rule="evenodd" transform="translate(-378.000000, -3397.000000)">
        <g id="ethereum" transform="translate(378.000000, 3397.000000)" fill="#909297">
            <path d="M69.612,34.525 C69.292,30.848 66.468,27.492 62.579,27.492 C58.689,27.492 55.918,30.848 55.545,34.525 L69.612,34.525 Z M71.211,35.271 C71.211,35.697 70.838,36.017 70.411,36.017 L55.545,36.017 C55.918,39.694 58.689,43.05 62.579,43.05 C65.243,43.05 67.214,42.038 68.706,39.907 C68.866,39.694 69.079,39.534 69.346,39.534 C69.772,39.534 70.092,39.853 70.092,40.28 C70.092,40.44 70.038,40.546 69.985,40.653 C68.493,43.264 65.509,44.542 62.579,44.542 C57.57,44.542 54,40.067 54,35.271 C54,30.475 57.57,26 62.579,26 C67.587,26 71.211,30.475 71.211,35.271 Z" id="Fill-1"></path>
            <path d="M89.07,25.501 C89.496,25.501 89.816,25.874 89.816,26.247 C89.816,26.673 89.496,26.993 89.07,26.993 L85.074,26.993 L85.074,42.658 C85.074,43.031 84.754,43.404 84.328,43.404 C83.901,43.404 83.582,43.031 83.582,42.658 L83.582,26.993 L79.745,26.993 C79.319,26.993 79,26.673 79,26.247 C79,25.874 79.319,25.501 79.745,25.501 L83.582,25.501 L83.582,19.746 C83.582,19.32 83.901,19 84.328,19 C84.754,19 85.074,19.32 85.074,19.746 L85.074,25.501 L89.07,25.501 Z" id="Fill-3"></path>
            <path d="M113.6,33.432 L113.6,42.917 C113.6,43.343 113.227,43.661 112.854,43.661 C112.428,43.661 112.108,43.343 112.108,42.917 L112.108,33.432 C112.108,30.235 110.296,27.037 106.726,27.037 C102.144,27.037 100.173,31.034 100.439,35.137 C100.439,35.244 100.492,35.723 100.492,35.777 L100.492,42.917 C100.492,43.343 100.173,43.661 99.746,43.661 C99.32,43.661 99,43.343 99,42.917 L99,11.745 C99,11.372 99.32,11 99.746,11 C100.173,11 100.492,11.372 100.492,11.745 L100.492,29.383 C101.771,27.091 104.062,25.546 106.726,25.546 C111.096,25.546 113.6,29.383 113.6,33.432" id="Fill-5"></path>
            <path d="M138.612,34.525 C138.292,30.848 135.468,27.492 131.579,27.492 C127.689,27.492 124.918,30.848 124.545,34.525 L138.612,34.525 Z M140.211,35.271 C140.211,35.697 139.838,36.017 139.411,36.017 L124.545,36.017 C124.918,39.694 127.689,43.05 131.579,43.05 C134.243,43.05 136.214,42.038 137.706,39.907 C137.866,39.694 138.079,39.534 138.346,39.534 C138.772,39.534 139.092,39.853 139.092,40.28 C139.092,40.44 139.038,40.546 138.985,40.653 C137.493,43.264 134.509,44.542 131.579,44.542 C126.57,44.542 123,40.067 123,35.271 C123,30.475 126.57,26 131.579,26 C136.587,26 140.211,30.475 140.211,35.271 Z" id="Fill-7"></path>
            <path d="M158.525,26.692 C158.525,27.172 158.259,27.438 157.832,27.492 C153.463,28.131 151.492,31.702 151.492,35.857 L151.492,42.998 C151.492,43.423 151.172,43.744 150.746,43.744 C150.319,43.744 150,43.423 150,42.998 L150,26.746 C150,26.319 150.319,26 150.746,26 C151.172,26 151.492,26.319 151.492,26.746 L151.492,30.049 C152.717,27.971 155.168,26 157.726,26 C158.099,26 158.525,26.266 158.525,26.692" id="Fill-9"></path>
            <path d="M181.612,34.525 C181.292,30.848 178.468,27.492 174.579,27.492 C170.689,27.492 167.918,30.848 167.545,34.525 L181.612,34.525 Z M183.211,35.271 C183.211,35.697 182.837,36.017 182.411,36.017 L167.545,36.017 C167.918,39.694 170.689,43.05 174.579,43.05 C177.243,43.05 179.214,42.038 180.706,39.907 C180.866,39.694 181.079,39.534 181.346,39.534 C181.772,39.534 182.092,39.853 182.092,40.28 C182.092,40.44 182.038,40.546 181.985,40.653 C180.493,43.264 177.509,44.542 174.579,44.542 C169.57,44.542 166,40.067 166,35.271 C166,30.475 169.57,26 174.579,26 C179.587,26 183.211,30.475 183.211,35.271 Z" id="Fill-11"></path>
            <path d="M206.546,26.746 L206.546,31.915 L206.546,43.051 C206.546,43.477 206.173,43.797 205.8,43.797 C205.374,43.797 205.054,43.477 205.054,43.051 L205.054,39.96 C203.829,42.411 201.644,44.17 198.873,44.17 C194.451,44.17 192,40.333 192,36.284 L192,26.746 C192,26.373 192.319,26 192.746,26 C193.172,26 193.491,26.373 193.491,26.746 L193.491,36.284 C193.491,39.481 195.303,42.678 198.873,42.678 C203.882,42.678 205.054,37.989 205.054,32.82 L205.054,26.746 C205.054,26.373 205.374,26 205.8,26 C206.173,26 206.546,26.373 206.546,26.746" id="Fill-13"></path>
            <path d="M244.654,33.833 L244.654,43.371 C244.654,43.798 244.281,44.117 243.908,44.117 C243.482,44.117 243.162,43.798 243.162,43.371 L243.162,33.833 C243.162,30.637 241.35,27.492 237.78,27.492 C233.305,27.492 231.599,32.288 231.599,36.019 L231.599,43.371 C231.599,43.798 231.227,44.117 230.854,44.117 C230.427,44.117 230.108,43.798 230.108,43.371 L230.108,33.833 C230.108,30.637 228.296,27.492 224.726,27.492 C220.197,27.492 218.332,31.062 218.492,35.806 C218.492,35.911 218.545,36.124 218.492,36.179 L218.492,43.371 C218.492,43.798 218.172,44.117 217.746,44.117 C217.32,44.117 217,43.798 217,43.371 L217,27.066 C217,26.641 217.32,26.32 217.746,26.32 C218.172,26.32 218.492,26.641 218.492,27.066 L218.492,29.783 C219.771,27.492 222.062,26 224.726,26 C227.763,26 230.108,27.918 231.067,30.743 C232.292,27.973 234.69,26 237.78,26 C242.15,26 244.654,29.783 244.654,33.833" id="Fill-15"></path>
            <polygon id="Fill-17" points="18.569 0 0 30.81 18.569 41.787 37.138 30.81"></polygon>
            <polygon id="Fill-19" points="18.569 44.971 0 34 18.569 60.167 37.149 34"></polygon>
        </g>
    </g>
</svg>