<svg xmlns="http://www.w3.org/2000/svg" xmlns:xlink="http://www.w3.org/1999/xlink" viewBox="0 0 444.869 97.73"><defs><style>.cls-1{fill:url(#linear-gradient);}.cls-2{fill:url(#linear-gradient-10);}.cls-3{fill:url(#linear-gradient-11);}</style><linearGradient id="linear-gradient" x1="83.97" y1="49.432" x2="444.869" y2="49.432" gradientUnits="userSpaceOnUse"><stop offset="0" stop-color="#51a5e2"/><stop offset="1" stop-color="#842ee1"/></linearGradient><linearGradient id="linear-gradient-10" x1="11.708" y1="332.134" x2="50.662" y2="267.53" gradientTransform="matrix(1, 0, 0, -1, 0, 348.105)" gradientUnits="userSpaceOnUse"><stop offset="0" stop-color="#4faae2"/><stop offset="1" stop-color="#842de1"/></linearGradient><linearGradient id="linear-gradient-11" x1="10.375" y1="331.909" x2="49.367" y2="267.266" xlink:href="#linear-gradient-10"/></defs><title>ethglobal_4</title><g id="Layer_2" data-name="Layer 2"><g id="Layer_2-2" data-name="Layer 2"><path d="M83.97,75.545h35.9V79.49H83.97Zm.43-52.93h34.453V26.6H84.4Zm3.32,26.25h28.047V52.85H87.72Z"/><path d="M170.064,26.6H150.689V79.49h-4.648V26.6H126V22.615h44.062Z"/><path d="M220.884,79.49H216.2V53.318H183.892V79.49h-4.687V22.615h4.687V49.334H216.2V22.615h4.687Z"/><path d="M275.845,71.834q-1.875,3.087-6.933,5.781t-12.754,2.7A20.882,20.882,0,0,1,240.1,73.553q-6.25-6.757-6.25-17.5V45.623q0-10.547,6.055-17.188a20.227,20.227,0,0,1,15.664-6.64q9.258,0,14.707,4.883A15.486,15.486,0,0,1,275.572,39.1l-.117.234h-4.3a12.789,12.789,0,0,0-4.063-9.727q-4.063-3.826-11.523-3.828a15.373,15.373,0,0,0-12.344,5.547q-4.687,5.547-4.687,14.219V56.053q0,8.906,4.882,14.609a15.964,15.964,0,0,0,12.735,5.7,22.855,22.855,0,0,0,9.765-1.8,12.079,12.079,0,0,0,5.274-4.179V55.818H255.884V51.834h19.961Z"/><path d="M294.634,79.49h-4.648V18.553h4.648Z"/><path d="M304.947,57.732q0-9.334,5.117-15.312a18.4,18.4,0,0,1,27.149,0q5.117,5.976,5.117,15.312v1.289q0,9.375-5.1,15.332A16.925,16.925,0,0,1,323.7,80.31q-8.517,0-13.633-5.957t-5.117-15.332Zm4.687,1.289a20.132,20.132,0,0,0,3.711,12.344,13.115,13.115,0,0,0,20.606,0,20.065,20.065,0,0,0,3.73-12.344V57.732a19.964,19.964,0,0,0-3.75-12.265,13.032,13.032,0,0,0-20.586,0,20.11,20.11,0,0,0-3.711,12.265Z"/><path d="M386.158,59.529q0,9.492-4.3,15.137a14.053,14.053,0,0,1-11.836,5.644,16.356,16.356,0,0,1-7.988-1.855,14.635,14.635,0,0,1-5.489-5.293l-.781,6.328H352.1V18.553h4.688V43.709a15.117,15.117,0,0,1,5.39-5.371,15.285,15.285,0,0,1,7.774-1.9,13.789,13.789,0,0,1,11.914,6.075q4.3,6.073,4.3,16.191Zm-4.727-.82q0-8.087-3.125-13.145a10.2,10.2,0,0,0-9.258-5.058,12.176,12.176,0,0,0-7.812,2.363,14.423,14.423,0,0,0-4.453,6.113V68.318a12.485,12.485,0,0,0,12.344,7.93q6.132,0,9.218-4.531t3.086-12.188Z"/><path d="M423.384,79.49q-.431-2.226-.644-3.828a24.514,24.514,0,0,1-.215-3.281,17.143,17.143,0,0,1-6.133,5.683,18,18,0,0,1-9.062,2.246q-6.211,0-9.629-3.3a11.88,11.88,0,0,1-3.418-8.965,10.776,10.776,0,0,1,4.961-9.18q4.959-3.516,12.89-3.515h10.391V50.115a9.068,9.068,0,0,0-2.871-7.109q-2.871-2.579-8.106-2.578a12.094,12.094,0,0,0-7.753,2.343,7.236,7.236,0,0,0-2.95,5.9h-4.336l-.078-.235q-.234-4.764,4.082-8.378t11.27-3.614q6.952,0,11.172,3.555t4.218,10.2V70.975a36.1,36.1,0,0,0,.254,4.335,27.337,27.337,0,0,0,.84,4.18Zm-15.546-3.32a16.773,16.773,0,0,0,9.335-2.559,12.779,12.779,0,0,0,5.352-6.582V58.943H412.1a15.537,15.537,0,0,0-9.414,2.715q-3.711,2.716-3.711,6.543a7.5,7.5,0,0,0,2.364,5.781A9.2,9.2,0,0,0,407.838,76.17Z"/><path d="M444.869,79.49H440.22V18.553h4.649Z"/><path class="cls-1" d="M83.97,75.545h35.9V79.49H83.97Zm.43-52.93h34.453V26.6H84.4Zm3.32,26.25h28.047V52.85H87.72Z"/><path class="cls-1" d="M170.064,26.6H150.689V79.49h-4.648V26.6H126V22.615h44.062Z"/><path class="cls-1" d="M220.884,79.49H216.2V53.318H183.892V79.49h-4.687V22.615h4.687V49.334H216.2V22.615h4.687Z"/><path class="cls-1" d="M275.845,71.834q-1.875,3.087-6.933,5.781t-12.754,2.7A20.882,20.882,0,0,1,240.1,73.553q-6.25-6.757-6.25-17.5V45.623q0-10.547,6.055-17.188a20.227,20.227,0,0,1,15.664-6.64q9.258,0,14.707,4.883A15.486,15.486,0,0,1,275.572,39.1l-.117.234h-4.3a12.789,12.789,0,0,0-4.063-9.727q-4.063-3.826-11.523-3.828a15.373,15.373,0,0,0-12.344,5.547q-4.687,5.547-4.687,14.219V56.053q0,8.906,4.882,14.609a15.964,15.964,0,0,0,12.735,5.7,22.855,22.855,0,0,0,9.765-1.8,12.079,12.079,0,0,0,5.274-4.179V55.818H255.884V51.834h19.961Z"/><path class="cls-1" d="M294.634,79.49h-4.648V18.553h4.648Z"/><path class="cls-1" d="M304.947,57.732q0-9.334,5.117-15.312a18.4,18.4,0,0,1,27.149,0q5.117,5.976,5.117,15.312v1.289q0,9.375-5.1,15.332A16.925,16.925,0,0,1,323.7,80.31q-8.517,0-13.633-5.957t-5.117-15.332Zm4.687,1.289a20.132,20.132,0,0,0,3.711,12.344,13.115,13.115,0,0,0,20.606,0,20.065,20.065,0,0,0,3.73-12.344V57.732a19.964,19.964,0,0,0-3.75-12.265,13.032,13.032,0,0,0-20.586,0,20.11,20.11,0,0,0-3.711,12.265Z"/><path class="cls-1" d="M386.158,59.529q0,9.492-4.3,15.137a14.053,14.053,0,0,1-11.836,5.644,16.356,16.356,0,0,1-7.988-1.855,14.635,14.635,0,0,1-5.489-5.293l-.781,6.328H352.1V18.553h4.688V43.709a15.117,15.117,0,0,1,5.39-5.371,15.285,15.285,0,0,1,7.774-1.9,13.789,13.789,0,0,1,11.914,6.075q4.3,6.073,4.3,16.191Zm-4.727-.82q0-8.087-3.125-13.145a10.2,10.2,0,0,0-9.258-5.058,12.176,12.176,0,0,0-7.812,2.363,14.423,14.423,0,0,0-4.453,6.113V68.318a12.485,12.485,0,0,0,12.344,7.93q6.132,0,9.218-4.531t3.086-12.188Z"/><path class="cls-1" d="M423.384,79.49q-.431-2.226-.644-3.828a24.514,24.514,0,0,1-.215-3.281,17.143,17.143,0,0,1-6.133,5.683,18,18,0,0,1-9.062,2.246q-6.211,0-9.629-3.3a11.88,11.88,0,0,1-3.418-8.965,10.776,10.776,0,0,1,4.961-9.18q4.959-3.516,12.89-3.515h10.391V50.115a9.068,9.068,0,0,0-2.871-7.109q-2.871-2.579-8.106-2.578a12.094,12.094,0,0,0-7.753,2.343,7.236,7.236,0,0,0-2.95,5.9h-4.336l-.078-.235q-.234-4.764,4.082-8.378t11.27-3.614q6.952,0,11.172,3.555t4.218,10.2V70.975a36.1,36.1,0,0,0,.254,4.335,27.337,27.337,0,0,0,.84,4.18Zm-15.546-3.32a16.773,16.773,0,0,0,9.335-2.559,12.779,12.779,0,0,0,5.352-6.582V58.943H412.1a15.537,15.537,0,0,0-9.414,2.715q-3.711,2.716-3.711,6.543a7.5,7.5,0,0,0,2.364,5.781A9.2,9.2,0,0,0,407.838,76.17Z"/><path class="cls-1" d="M444.869,79.49H440.22V18.553h4.649Z"/><path class="cls-2" d="M5.674,49.651a2.8,2.8,0,0,0-.651-1.8l27.03-43.9V35.925L8.205,46.891a.919.919,0,0,0-.465,1.215l0,.012a.957.957,0,0,0,.843.536h.384l24-11.042,28.18,12.231L32.935,66.023,8.205,52.067a.957.957,0,0,0-1.265.345.92.92,0,0,0,.332,1.258l.013.007L32.436,67.71a1.305,1.305,0,0,0,1.265,0l29.791-17.1a1.516,1.516,0,0,0,.575-1.726L34.085.613A1.266,1.266,0,0,0,33.011,0h0a1.266,1.266,0,0,0-1.073.613L3.412,46.852H2.761A2.838,2.838,0,1,0,5.674,49.69Zm28.258-45.7L60.77,47.619,33.932,35.925ZM2.761,50.648a1,1,0,1,1,1.035-1A1.035,1.035,0,0,1,2.761,50.648Z"/><path class="cls-3" d="M62.227,53.37a2.876,2.876,0,0,0-2.914,2.837h0A2.8,2.8,0,0,0,60,58.048l-26.838,37.3L8.013,60.233,32.475,73.844a1.108,1.108,0,0,0,1.111,0l23.005-13.5a.92.92,0,0,0,.352-1.253l-.007-.012a.96.96,0,0,0-1.3-.307L32.973,71.735,5.9,56.744a1.111,1.111,0,0,0-1.341.192,1.033,1.033,0,0,0,0,1.342L32.206,97.27a1.111,1.111,0,0,0,.882.46h0a1.111,1.111,0,0,0,.882-.46L61.69,58.93H62.3a2.857,2.857,0,0,0,0-5.713Zm0,3.834a1,1,0,1,1,1.035-1A1.034,1.034,0,0,1,62.227,57.2Z"/></g></g></svg>