<?xml version="1.0" encoding="UTF-8"?>
<svg width="278px" height="61px" viewBox="0 0 278 61" version="1.1" xmlns="http://www.w3.org/2000/svg" xmlns:xlink="http://www.w3.org/1999/xlink">
    <!-- Generator: Sketch 48.2 (47327) - http://www.bohemiancoding.com/sketch -->
    <title>ethglobal</title>
    <desc>Created with Sketch.</desc>
    <defs></defs>
    <g id="ETHindia" stroke="none" stroke-width="1" fill="none" fill-rule="evenodd" transform="translate(-748.000000, -3397.000000)">
        <g id="ethglobal" transform="translate(748.000000, 3397.000000)" fill="#909297" fill-rule="nonzero">
            <path d="M52.8894898,47.0229082 L75.2354082,47.0229082 L75.2354082,49.4784694 L52.8894898,49.4784694 L52.8894898,47.0229082 Z M53.1571429,14.0766837 L74.6023776,14.0766837 L74.6023776,16.5571429 L53.1571429,16.5571429 L53.1571429,14.0766837 Z M55.2236735,30.4159694 L72.6815,30.4159694 L72.6815,32.8964286 L55.2236735,32.8964286 L55.2236735,30.4159694 Z" id="Shape"></path>
            <polygon id="Shape" points="106.478612 16.5571429 94.4186633 16.5571429 94.4186633 49.4784694 91.5255204 49.4784694 91.5255204 16.5571429 79.0510204 16.5571429 79.0510204 14.0766837 106.477367 14.0766837"></polygon>
            <polygon id="Shape" points="138.111469 49.4784694 135.195918 49.4784694 135.195918 33.1877347 115.085837 33.1877347 115.085837 49.4784694 112.168418 49.4784694 112.168418 14.0766837 115.085837 14.0766837 115.085837 30.707898 135.195918 30.707898 135.195918 14.0766837 138.113337 14.0766837"></polygon>
            <path d="M172.321888,44.713 C171.543827,45.994 170.105347,47.1934592 168.006449,48.3113776 C165.907551,49.4292959 163.261313,49.9895 160.067735,49.9919898 C156.281845,50.1123968 152.631774,48.5753571 150.072449,45.7829898 C147.478912,42.9790646 146.182143,39.3481122 146.182143,34.8901327 L146.182143,28.3979898 C146.182143,24.0213435 147.438452,20.4551259 149.951071,17.6993367 C152.435496,14.9553596 156.001551,13.4437019 159.701112,13.5662755 C163.542867,13.5662755 166.59432,14.579415 168.855469,16.6056939 C171.079341,18.5429989 172.293903,21.3918075 172.151959,24.3377551 L172.079133,24.4834082 L169.402602,24.4834082 C169.469237,22.195491 168.547828,19.9895963 166.873592,18.4288469 C165.187585,16.8411871 162.796759,16.0469422 159.701112,16.0461122 C156.743868,15.9471712 153.907195,17.2218817 152.017602,19.4988367 C150.072656,21.8006531 149.100184,24.7508537 149.100184,28.3494388 L149.100184,34.8901327 C149.100184,38.5858197 150.113116,41.6169388 152.13898,43.9834898 C154.097251,46.3193363 157.019256,47.6271828 160.065867,47.531449 C162.149564,47.6079313 164.224602,47.225436 166.144082,46.4110408 C167.462647,45.8724231 168.601092,44.9703442 169.426878,43.8098265 L169.426878,34.7438571 L159.897184,34.7438571 L159.897184,32.2640204 L172.321888,32.2640204 L172.321888,44.713 Z" id="Shape"></path>
            <polygon id="Shape" points="184.017082 49.4784694 181.123939 49.4784694 181.123939 11.5482959 184.017082 11.5482959"></polygon>
            <path d="M190.436398,35.9352245 C190.436398,32.061932 191.498088,28.8849524 193.621469,26.4042857 C195.791076,24.0332845 198.857052,22.6829566 202.070903,22.6829566 C205.284754,22.6829566 208.35073,24.0332845 210.520337,26.4042857 C212.643718,28.8841224 213.705408,32.061102 213.705408,35.9352245 L213.705408,36.7375612 C213.705408,40.6278673 212.647245,43.8089966 210.530918,46.280949 C208.440378,48.7424078 205.336365,50.109045 202.109184,49.9888776 C198.574918,49.9888776 195.746303,48.7529014 193.623337,46.280949 C191.500371,43.8089966 190.43868,40.6278673 190.438265,36.7375612 L190.436398,35.9352245 Z M193.353816,36.7375612 C193.26091,39.4826694 194.072495,42.1822681 195.663724,44.4210714 C197.21162,46.3863439 199.575162,47.5333857 202.076816,47.5333857 C204.578471,47.5333857 206.942013,46.3863439 208.489908,44.4210714 C210.088155,42.1851275 210.904229,39.4844258 210.811643,36.7375612 L210.811643,35.9352245 C210.894429,33.2029821 210.074013,30.5196754 208.477459,28.3008878 C206.940813,26.322056 204.575997,25.1643333 202.070592,25.1643333 C199.565187,25.1643333 197.20037,26.322056 195.663724,28.3008878 C194.081895,30.5257118 193.270728,33.2066493 193.353816,35.9352245 L193.353816,36.7375612 Z" id="Shape"></path>
            <path d="M240.986102,37.0537653 C240.986102,40.9926224 240.093925,44.1332925 238.309571,46.4757755 C236.584152,48.7909934 233.827346,50.1055771 230.942265,49.9888776 C229.213731,50.0324693 227.502574,49.6350987 225.970143,48.8342347 C224.560151,48.0572277 223.38126,46.9204326 222.55352,45.5396122 L222.067388,49.4784694 L219.786735,49.4784694 L219.786735,11.5482959 L222.704776,11.5482959 L222.704776,27.2066224 C223.519762,25.8243978 224.674682,24.6735492 226.059776,23.863449 C227.539091,23.046479 229.209313,22.6382693 230.898694,22.6807959 C233.857361,22.5779546 236.660167,24.0071175 238.314551,26.4621735 C240.098905,28.9822619 240.991082,32.341619 240.991082,36.5402449 L240.986102,37.0537653 Z M238.043786,36.5433571 C238.043786,33.1875272 237.395401,30.4601633 236.098633,28.3612653 C234.911743,26.3228147 232.692582,25.1104016 230.336,25.2129184 C228.594199,25.1291944 226.876808,25.6486767 225.473429,26.6837653 C224.227497,27.6829803 223.270679,28.9964828 222.701663,30.4887959 L222.701663,42.5244694 C223.923953,45.6598697 227.025422,47.6523072 230.385173,47.4604898 C232.929745,47.4604898 234.842323,46.5203844 236.122908,44.6401735 C237.403493,42.7599626 238.043786,40.2311599 238.043786,37.0537653 L238.043786,36.5433571 Z" id="Shape"></path>
            <path d="M264.157388,49.4784694 C263.978537,48.5547551 263.844918,47.7605102 263.756531,47.0957347 C263.666266,46.4187452 263.621557,45.7364592 263.622704,45.0534796 C262.661672,46.5296085 261.350172,47.7448794 259.805224,48.5908571 C258.080695,49.544851 256.135036,50.027079 254.164592,49.9888776 C251.587238,49.9888776 249.589384,49.3041837 248.171031,47.9347959 C246.708872,46.4565384 245.936618,44.4310115 246.0435,42.3545408 C246.020508,40.0452581 247.187102,37.8865534 249.131469,36.6404592 C251.189286,35.1814388 253.863741,34.4521361 257.154837,34.452551 L263.622704,34.452551 L263.622704,31.1940306 C263.710525,29.5273697 263.05625,27.9072917 261.835653,26.7690408 C260.644286,25.6988435 258.962429,25.1639524 256.790082,25.1643673 C255.061658,25.0814004 253.357421,25.5964305 251.964235,26.6227653 C250.797334,27.4805118 250.114067,28.8470454 250.12801,30.2952143 L247.429071,30.2952143 L247.38052,30.1489388 C247.283418,28.1720408 248.130364,26.4337483 249.921357,24.9340612 C251.71235,23.4343741 254.050684,22.6845306 256.936357,22.6845306 C259.821201,22.6845306 262.139201,23.4221327 263.890357,24.8973367 C265.641514,26.3725408 266.516677,28.4888673 266.515847,31.2463163 L266.515847,44.1783163 C266.514355,45.0801128 266.567151,45.9811813 266.673949,46.8766327 C266.780234,47.7562008 266.955051,48.6261248 267.196806,49.4784694 L264.157388,49.4784694 Z M254.480796,47.4119388 C256.532094,47.4635312 258.553117,46.909509 260.291357,45.8190918 C261.835927,44.872618 263.011169,43.427282 263.622704,41.7221327 L263.622704,36.6890102 L257.133673,36.6890102 C255.049285,36.605604 252.993801,37.1984063 251.273939,38.3789592 C249.734,39.5060068 248.964031,40.863568 248.964031,42.4516429 C248.908007,43.8079944 249.445156,45.1215554 250.4355,46.0500204 C251.558033,47.0083504 253.00724,47.4962507 254.480796,47.4119388 Z" id="Shape"></path>
            <polygon id="Shape" points="277.530704 49.4784694 274.636939 49.4784694 274.636939 11.5482959 277.530704 11.5482959"></polygon>
            <path d="M52.8894898,47.0229082 L75.2354082,47.0229082 L75.2354082,49.4784694 L52.8894898,49.4784694 L52.8894898,47.0229082 Z M53.1571429,14.0766837 L74.6023776,14.0766837 L74.6023776,16.5571429 L53.1571429,16.5571429 L53.1571429,14.0766837 Z M55.2236735,30.4159694 L72.6815,30.4159694 L72.6815,32.8964286 L55.2236735,32.8964286 L55.2236735,30.4159694 Z" id="Shape"></path>
            <polygon id="Shape" points="106.478612 16.5571429 94.4186633 16.5571429 94.4186633 49.4784694 91.5255204 49.4784694 91.5255204 16.5571429 79.0510204 16.5571429 79.0510204 14.0766837 106.477367 14.0766837"></polygon>
            <polygon id="Shape" points="138.111469 49.4784694 135.195918 49.4784694 135.195918 33.1877347 115.085837 33.1877347 115.085837 49.4784694 112.168418 49.4784694 112.168418 14.0766837 115.085837 14.0766837 115.085837 30.707898 135.195918 30.707898 135.195918 14.0766837 138.113337 14.0766837"></polygon>
            <path d="M172.321888,44.713 C171.543827,45.994 170.105347,47.1934592 168.006449,48.3113776 C165.907551,49.4292959 163.261313,49.9895 160.067735,49.9919898 C156.281845,50.1123968 152.631774,48.5753571 150.072449,45.7829898 C147.478912,42.9790646 146.182143,39.3481122 146.182143,34.8901327 L146.182143,28.3979898 C146.182143,24.0213435 147.438452,20.4551259 149.951071,17.6993367 C152.435496,14.9553596 156.001551,13.4437019 159.701112,13.5662755 C163.542867,13.5662755 166.59432,14.579415 168.855469,16.6056939 C171.079341,18.5429989 172.293903,21.3918075 172.151959,24.3377551 L172.079133,24.4834082 L169.402602,24.4834082 C169.469237,22.195491 168.547828,19.9895963 166.873592,18.4288469 C165.187585,16.8411871 162.796759,16.0469422 159.701112,16.0461122 C156.743868,15.9471712 153.907195,17.2218817 152.017602,19.4988367 C150.072656,21.8006531 149.100184,24.7508537 149.100184,28.3494388 L149.100184,34.8901327 C149.100184,38.5858197 150.113116,41.6169388 152.13898,43.9834898 C154.097251,46.3193363 157.019256,47.6271828 160.065867,47.531449 C162.149564,47.6079313 164.224602,47.225436 166.144082,46.4110408 C167.462647,45.8724231 168.601092,44.9703442 169.426878,43.8098265 L169.426878,34.7438571 L159.897184,34.7438571 L159.897184,32.2640204 L172.321888,32.2640204 L172.321888,44.713 Z" id="Shape"></path>
            <polygon id="Shape" points="184.017082 49.4784694 181.123939 49.4784694 181.123939 11.5482959 184.017082 11.5482959"></polygon>
            <path d="M190.436398,35.9352245 C190.436398,32.061932 191.498088,28.8849524 193.621469,26.4042857 C195.791076,24.0332845 198.857052,22.6829566 202.070903,22.6829566 C205.284754,22.6829566 208.35073,24.0332845 210.520337,26.4042857 C212.643718,28.8841224 213.705408,32.061102 213.705408,35.9352245 L213.705408,36.7375612 C213.705408,40.6278673 212.647245,43.8089966 210.530918,46.280949 C208.440378,48.7424078 205.336365,50.109045 202.109184,49.9888776 C198.574918,49.9888776 195.746303,48.7529014 193.623337,46.280949 C191.500371,43.8089966 190.43868,40.6278673 190.438265,36.7375612 L190.436398,35.9352245 Z M193.353816,36.7375612 C193.26091,39.4826694 194.072495,42.1822681 195.663724,44.4210714 C197.21162,46.3863439 199.575162,47.5333857 202.076816,47.5333857 C204.578471,47.5333857 206.942013,46.3863439 208.489908,44.4210714 C210.088155,42.1851275 210.904229,39.4844258 210.811643,36.7375612 L210.811643,35.9352245 C210.894429,33.2029821 210.074013,30.5196754 208.477459,28.3008878 C206.940813,26.322056 204.575997,25.1643333 202.070592,25.1643333 C199.565187,25.1643333 197.20037,26.322056 195.663724,28.3008878 C194.081895,30.5257118 193.270728,33.2066493 193.353816,35.9352245 L193.353816,36.7375612 Z" id="Shape"></path>
            <path d="M240.986102,37.0537653 C240.986102,40.9926224 240.093925,44.1332925 238.309571,46.4757755 C236.584152,48.7909934 233.827346,50.1055771 230.942265,49.9888776 C229.213731,50.0324693 227.502574,49.6350987 225.970143,48.8342347 C224.560151,48.0572277 223.38126,46.9204326 222.55352,45.5396122 L222.067388,49.4784694 L219.786735,49.4784694 L219.786735,11.5482959 L222.704776,11.5482959 L222.704776,27.2066224 C223.519762,25.8243978 224.674682,24.6735492 226.059776,23.863449 C227.539091,23.046479 229.209313,22.6382693 230.898694,22.6807959 C233.857361,22.5779546 236.660167,24.0071175 238.314551,26.4621735 C240.098905,28.9822619 240.991082,32.341619 240.991082,36.5402449 L240.986102,37.0537653 Z M238.043786,36.5433571 C238.043786,33.1875272 237.395401,30.4601633 236.098633,28.3612653 C234.911743,26.3228147 232.692582,25.1104016 230.336,25.2129184 C228.594199,25.1291944 226.876808,25.6486767 225.473429,26.6837653 C224.227497,27.6829803 223.270679,28.9964828 222.701663,30.4887959 L222.701663,42.5244694 C223.923953,45.6598697 227.025422,47.6523072 230.385173,47.4604898 C232.929745,47.4604898 234.842323,46.5203844 236.122908,44.6401735 C237.403493,42.7599626 238.043786,40.2311599 238.043786,37.0537653 L238.043786,36.5433571 Z" id="Shape"></path>
            <path d="M264.157388,49.4784694 C263.978537,48.5547551 263.844918,47.7605102 263.756531,47.0957347 C263.666266,46.4187452 263.621557,45.7364592 263.622704,45.0534796 C262.661672,46.5296085 261.350172,47.7448794 259.805224,48.5908571 C258.080695,49.544851 256.135036,50.027079 254.164592,49.9888776 C251.587238,49.9888776 249.589384,49.3041837 248.171031,47.9347959 C246.708872,46.4565384 245.936618,44.4310115 246.0435,42.3545408 C246.020508,40.0452581 247.187102,37.8865534 249.131469,36.6404592 C251.189286,35.1814388 253.863741,34.4521361 257.154837,34.452551 L263.622704,34.452551 L263.622704,31.1940306 C263.710525,29.5273697 263.05625,27.9072917 261.835653,26.7690408 C260.644286,25.6988435 258.962429,25.1639524 256.790082,25.1643673 C255.061658,25.0814004 253.357421,25.5964305 251.964235,26.6227653 C250.797334,27.4805118 250.114067,28.8470454 250.12801,30.2952143 L247.429071,30.2952143 L247.38052,30.1489388 C247.283418,28.1720408 248.130364,26.4337483 249.921357,24.9340612 C251.71235,23.4343741 254.050684,22.6845306 256.936357,22.6845306 C259.821201,22.6845306 262.139201,23.4221327 263.890357,24.8973367 C265.641514,26.3725408 266.516677,28.4888673 266.515847,31.2463163 L266.515847,44.1783163 C266.514355,45.0801128 266.567151,45.9811813 266.673949,46.8766327 C266.780234,47.7562008 266.955051,48.6261248 267.196806,49.4784694 L264.157388,49.4784694 Z M254.480796,47.4119388 C256.532094,47.4635312 258.553117,46.909509 260.291357,45.8190918 C261.835927,44.872618 263.011169,43.427282 263.622704,41.7221327 L263.622704,36.6890102 L257.133673,36.6890102 C255.049285,36.605604 252.993801,37.1984063 251.273939,38.3789592 C249.734,39.5060068 248.964031,40.863568 248.964031,42.4516429 C248.908007,43.8079944 249.445156,45.1215554 250.4355,46.0500204 C251.558033,47.0083504 253.00724,47.4962507 254.480796,47.4119388 Z" id="Shape"></path>
            <polygon id="Shape" points="277.530704 49.4784694 274.636939 49.4784694 274.636939 11.5482959 277.530704 11.5482959"></polygon>
            <path d="M4.15422449,30.9052143 C4.1549641,30.4957394 4.01150487,30.0990779 3.7490102,29.7848061 L20.5738061,2.45929592 L20.5738061,22.3614796 L5.72964286,29.1872551 C5.59086967,29.2490435 5.48237213,29.3634926 5.42807542,29.5053646 C5.37377872,29.6472366 5.37814235,29.8048794 5.44020408,29.9435306 L5.44020408,29.951 C5.53858627,30.15192 5.7412479,30.2807772 5.96492857,30.2846327 L6.20394898,30.2846327 L21.1427245,23.411551 L38.6833367,31.0247245 L21.1228061,41.095949 L5.72964286,32.409051 C5.45166472,32.2613403 5.10674214,32.3554101 4.9422449,32.6237959 C4.78308102,32.8970925 4.87560251,33.2476709 5.14889796,33.4068367 L5.1569898,33.4111939 L20.8122041,42.1460204 C21.0571267,42.2817337 21.3546794,42.2817337 21.599602,42.1460204 L40.1429796,31.5021429 C40.4877787,31.2633594 40.6335953,30.8256561 40.5008878,30.4277959 L21.8386224,0.381561224 C21.697287,0.14678936 21.4441346,0.00229921609 21.1701122,0 C20.8963123,0.00251479721 20.6434443,0.146977108 20.5022245,0.381561224 L2.7462449,29.1629796 L2.34103061,29.1629796 C1.37190495,29.1885997 0.604506436,29.990476 0.621474794,30.9597917 C0.638443152,31.9291075 1.43343738,32.7036333 2.40286597,32.6953181 C3.37229456,32.6870028 4.1538859,31.898954 4.15422449,30.9294898 L4.15422449,30.9052143 Z M21.7433878,2.45929592 L38.4486735,29.640398 L21.7433878,22.3614796 L21.7433878,2.45929592 Z M2.34103061,31.5257959 C2.00035305,31.5138648 1.73264866,31.2301251 1.74053402,30.8893299 C1.74841938,30.5485347 2.02896066,30.2774803 2.36982548,30.2813188 C2.71069029,30.2851573 2.98505645,30.5624606 2.98526531,30.9033469 C2.97351537,31.2506122 2.68849453,31.5259946 2.34103061,31.5257959 Z" id="Shape"></path>
            <path d="M39.3555816,33.220102 C38.367107,33.2069507 37.5550832,33.9975174 37.5417653,34.9859898 C37.5411913,35.4070824 37.6930931,35.814144 37.9693878,36.1319184 L21.264102,59.3492653 L5.61013265,37.4919694 L20.8364796,45.9641224 C21.0503393,46.0880408 21.3141607,46.0880408 21.5280204,45.9641224 L35.8474592,37.5610612 C35.9799767,37.4867271 36.0775201,37.3627753 36.1186138,37.2164956 C36.1597075,37.0702158 36.1409825,36.9136012 36.0665612,36.7811327 L36.0622041,36.7736633 C35.8882699,36.5019953 35.5301123,36.417415 35.2530204,36.5825714 L21.1464592,44.6513776 L4.29489796,35.3202449 C4.02174803,35.1662246 3.67915156,35.2152765 3.46019388,35.4397551 C3.25469999,35.680283 3.25469999,36.0345537 3.46019388,36.2750816 L20.6690408,60.5456122 C20.7967043,60.7222251 21.0001485,60.8283298 21.2180408,60.8319388 C21.4359331,60.8283298 21.6393773,60.7222251 21.7670408,60.5456122 L39.0213265,36.6809184 L39.4010204,36.6809184 C40.370031,36.662787 41.1460881,35.872073 41.1460881,34.9028929 C41.1460881,33.9337127 40.370031,33.1429987 39.4010204,33.1248673 L39.3555816,33.220102 Z M39.3555816,35.6065714 C39.0149041,35.5946403 38.7471997,35.3109006 38.755085,34.9701054 C38.7629704,34.6293102 39.0435117,34.3582558 39.3843765,34.3620943 C39.7252413,34.3659328 39.9996075,34.6432361 39.9998163,34.9841224 C39.9870768,35.3305513 39.7022442,35.6046511 39.3555816,35.6040816 L39.3555816,35.6065714 Z" id="Shape"></path>
        </g>
    </g>
</svg>