<?xml version="1.0" encoding="utf-8"?>
<!-- Generator: Adobe Illustrator 22.0.1, SVG Export Plug-In . SVG Version: 6.00 Build 0)  -->
<svg width="245px" height="61px" version="1.1" id="Layer_1" xmlns="http://www.w3.org/2000/svg" xmlns:xlink="http://www.w3.org/1999/xlink" x="0px" y="0px"
	 viewBox="0 0 278 61" style="enable-background:new 0 0 278 61;" xml:space="preserve">
<style type="text/css">
	.st0{fill:#FFFFFF;}
</style>
<title>ethglobal</title>
<desc>Created with Sketch.</desc>
<g id="ETHindia" transform="translate(-748.000000, -3397.000000)">
	<g id="ethglobal" transform="translate(748.000000, 3397.000000)">
		<path id="Shape" class="st0" d="M52.9,47h22.3v2.5H52.9V47z M53.2,14.1h21.4v2.5H53.2V14.1z M55.2,30.4h17.5v2.5H55.2V30.4z"/>
		<polygon id="Shape_1_" class="st0" points="106.5,16.6 94.4,16.6 94.4,49.5 91.5,49.5 91.5,16.6 79.1,16.6 79.1,14.1 106.5,14.1
					"/>
		<polygon id="Shape_2_" class="st0" points="138.1,49.5 135.2,49.5 135.2,33.2 115.1,33.2 115.1,49.5 112.2,49.5 112.2,14.1
			115.1,14.1 115.1,30.7 135.2,30.7 135.2,14.1 138.1,14.1 		"/>
		<path id="Shape_3_" class="st0" d="M172.3,44.7c-0.8,1.3-2.2,2.5-4.3,3.6c-2.1,1.1-4.7,1.7-7.9,1.7c-3.8,0.1-7.4-1.4-10-4.2
			c-2.6-2.8-3.9-6.4-3.9-10.9v-6.5c0-4.4,1.3-7.9,3.8-10.7c2.5-2.7,6.1-4.3,9.8-4.1c3.8,0,6.9,1,9.2,3c2.2,1.9,3.4,4.8,3.3,7.7
			l-0.1,0.1h-2.7c0.1-2.3-0.9-4.5-2.5-6.1c-1.7-1.6-4.1-2.4-7.2-2.4c-3-0.1-5.8,1.2-7.7,3.5c-1.9,2.3-2.9,5.3-2.9,8.9v6.5
			c0,3.7,1,6.7,3,9.1c2,2.3,4.9,3.6,7.9,3.5c2.1,0.1,4.2-0.3,6.1-1.1c1.3-0.5,2.5-1.4,3.3-2.6v-9.1h-9.5v-2.5h12.4V44.7z"/>
		<polygon id="Shape_4_" class="st0" points="184,49.5 181.1,49.5 181.1,11.5 184,11.5 		"/>
		<path id="Shape_5_" class="st0" d="M190.4,35.9c0-3.9,1.1-7.1,3.2-9.5c2.2-2.4,5.2-3.7,8.4-3.7s6.3,1.4,8.4,3.7
			c2.1,2.5,3.2,5.7,3.2,9.5v0.8c0,3.9-1.1,7.1-3.2,9.5c-2.1,2.5-5.2,3.8-8.4,3.7c-3.5,0-6.4-1.2-8.5-3.7c-2.1-2.5-3.2-5.7-3.2-9.5
			L190.4,35.9z M193.4,36.7c-0.1,2.7,0.7,5.4,2.3,7.7c1.5,2,3.9,3.1,6.4,3.1c2.5,0,4.9-1.1,6.4-3.1c1.6-2.2,2.4-4.9,2.3-7.7v-0.8
			c0.1-2.7-0.7-5.4-2.3-7.6c-1.5-2-3.9-3.1-6.4-3.1c-2.5,0-4.9,1.2-6.4,3.1c-1.6,2.2-2.4,4.9-2.3,7.6V36.7z"/>
		<path id="Shape_6_" class="st0" d="M241,37.1c0,3.9-0.9,7.1-2.7,9.4c-1.7,2.3-4.5,3.6-7.4,3.5c-1.7,0-3.4-0.4-5-1.2
			c-1.4-0.8-2.6-1.9-3.4-3.3l-0.5,3.9h-2.3V11.5h2.9v15.7c0.8-1.4,2-2.5,3.4-3.3c1.5-0.8,3.1-1.2,4.8-1.2c3-0.1,5.8,1.3,7.4,3.8
			c1.8,2.5,2.7,5.9,2.7,10.1L241,37.1z M238,36.5c0-3.4-0.6-6.1-1.9-8.2c-1.2-2-3.4-3.3-5.8-3.1c-1.7-0.1-3.5,0.4-4.9,1.5
			c-1.2,1-2.2,2.3-2.8,3.8v12c1.2,3.1,4.3,5.1,7.7,4.9c2.5,0,4.5-0.9,5.7-2.8c1.3-1.9,1.9-4.4,1.9-7.6V36.5z"/>
		<path id="Shape_7_" class="st0" d="M264.2,49.5c-0.2-0.9-0.3-1.7-0.4-2.4c-0.1-0.7-0.1-1.4-0.1-2c-1,1.5-2.3,2.7-3.8,3.5
			c-1.7,1-3.7,1.4-5.6,1.4c-2.6,0-4.6-0.7-6-2.1c-1.5-1.5-2.2-3.5-2.1-5.6c0-2.3,1.1-4.5,3.1-5.7c2.1-1.5,4.7-2.2,8-2.2h6.5v-3.3
			c0.1-1.7-0.6-3.3-1.8-4.4c-1.2-1.1-2.9-1.6-5-1.6c-1.7-0.1-3.4,0.4-4.8,1.5c-1.2,0.9-1.9,2.2-1.8,3.7h-2.7l0-0.1
			c-0.1-2,0.7-3.7,2.5-5.2c1.8-1.5,4.1-2.2,7-2.2c2.9,0,5.2,0.7,7,2.2s2.6,3.6,2.6,6.3v12.9c0,0.9,0.1,1.8,0.2,2.7
			c0.1,0.9,0.3,1.7,0.5,2.6H264.2z M254.5,47.4c2.1,0.1,4.1-0.5,5.8-1.6c1.5-0.9,2.7-2.4,3.3-4.1v-5h-6.5c-2.1-0.1-4.1,0.5-5.9,1.7
			c-1.5,1.1-2.3,2.5-2.3,4.1c-0.1,1.4,0.5,2.7,1.5,3.6C251.6,47,253,47.5,254.5,47.4z"/>
		<polygon id="Shape_8_" class="st0" points="277.5,49.5 274.6,49.5 274.6,11.5 277.5,11.5 		"/>
		<path id="Shape_9_" class="st0" d="M52.9,47h22.3v2.5H52.9V47z M53.2,14.1h21.4v2.5H53.2V14.1z M55.2,30.4h17.5v2.5H55.2V30.4z"/>
		<polygon id="Shape_10_" class="st0" points="106.5,16.6 94.4,16.6 94.4,49.5 91.5,49.5 91.5,16.6 79.1,16.6 79.1,14.1 106.5,14.1
					"/>
		<polygon id="Shape_11_" class="st0" points="138.1,49.5 135.2,49.5 135.2,33.2 115.1,33.2 115.1,49.5 112.2,49.5 112.2,14.1
			115.1,14.1 115.1,30.7 135.2,30.7 135.2,14.1 138.1,14.1 		"/>
		<path id="Shape_12_" class="st0" d="M172.3,44.7c-0.8,1.3-2.2,2.5-4.3,3.6c-2.1,1.1-4.7,1.7-7.9,1.7c-3.8,0.1-7.4-1.4-10-4.2
			c-2.6-2.8-3.9-6.4-3.9-10.9v-6.5c0-4.4,1.3-7.9,3.8-10.7c2.5-2.7,6.1-4.3,9.8-4.1c3.8,0,6.9,1,9.2,3c2.2,1.9,3.4,4.8,3.3,7.7
			l-0.1,0.1h-2.7c0.1-2.3-0.9-4.5-2.5-6.1c-1.7-1.6-4.1-2.4-7.2-2.4c-3-0.1-5.8,1.2-7.7,3.5c-1.9,2.3-2.9,5.3-2.9,8.9v6.5
			c0,3.7,1,6.7,3,9.1c2,2.3,4.9,3.6,7.9,3.5c2.1,0.1,4.2-0.3,6.1-1.1c1.3-0.5,2.5-1.4,3.3-2.6v-9.1h-9.5v-2.5h12.4V44.7z"/>
		<polygon id="Shape_13_" class="st0" points="184,49.5 181.1,49.5 181.1,11.5 184,11.5 		"/>
		<path id="Shape_14_" class="st0" d="M190.4,35.9c0-3.9,1.1-7.1,3.2-9.5c2.2-2.4,5.2-3.7,8.4-3.7s6.3,1.4,8.4,3.7
			c2.1,2.5,3.2,5.7,3.2,9.5v0.8c0,3.9-1.1,7.1-3.2,9.5c-2.1,2.5-5.2,3.8-8.4,3.7c-3.5,0-6.4-1.2-8.5-3.7c-2.1-2.5-3.2-5.7-3.2-9.5
			L190.4,35.9z M193.4,36.7c-0.1,2.7,0.7,5.4,2.3,7.7c1.5,2,3.9,3.1,6.4,3.1c2.5,0,4.9-1.1,6.4-3.1c1.6-2.2,2.4-4.9,2.3-7.7v-0.8
			c0.1-2.7-0.7-5.4-2.3-7.6c-1.5-2-3.9-3.1-6.4-3.1c-2.5,0-4.9,1.2-6.4,3.1c-1.6,2.2-2.4,4.9-2.3,7.6V36.7z"/>
		<path id="Shape_15_" class="st0" d="M241,37.1c0,3.9-0.9,7.1-2.7,9.4c-1.7,2.3-4.5,3.6-7.4,3.5c-1.7,0-3.4-0.4-5-1.2
			c-1.4-0.8-2.6-1.9-3.4-3.3l-0.5,3.9h-2.3V11.5h2.9v15.7c0.8-1.4,2-2.5,3.4-3.3c1.5-0.8,3.1-1.2,4.8-1.2c3-0.1,5.8,1.3,7.4,3.8
			c1.8,2.5,2.7,5.9,2.7,10.1L241,37.1z M238,36.5c0-3.4-0.6-6.1-1.9-8.2c-1.2-2-3.4-3.3-5.8-3.1c-1.7-0.1-3.5,0.4-4.9,1.5
			c-1.2,1-2.2,2.3-2.8,3.8v12c1.2,3.1,4.3,5.1,7.7,4.9c2.5,0,4.5-0.9,5.7-2.8c1.3-1.9,1.9-4.4,1.9-7.6V36.5z"/>
		<path id="Shape_16_" class="st0" d="M264.2,49.5c-0.2-0.9-0.3-1.7-0.4-2.4c-0.1-0.7-0.1-1.4-0.1-2c-1,1.5-2.3,2.7-3.8,3.5
			c-1.7,1-3.7,1.4-5.6,1.4c-2.6,0-4.6-0.7-6-2.1c-1.5-1.5-2.2-3.5-2.1-5.6c0-2.3,1.1-4.5,3.1-5.7c2.1-1.5,4.7-2.2,8-2.2h6.5v-3.3
			c0.1-1.7-0.6-3.3-1.8-4.4c-1.2-1.1-2.9-1.6-5-1.6c-1.7-0.1-3.4,0.4-4.8,1.5c-1.2,0.9-1.9,2.2-1.8,3.7h-2.7l0-0.1
			c-0.1-2,0.7-3.7,2.5-5.2c1.8-1.5,4.1-2.2,7-2.2c2.9,0,5.2,0.7,7,2.2s2.6,3.6,2.6,6.3v12.9c0,0.9,0.1,1.8,0.2,2.7
			c0.1,0.9,0.3,1.7,0.5,2.6H264.2z M254.5,47.4c2.1,0.1,4.1-0.5,5.8-1.6c1.5-0.9,2.7-2.4,3.3-4.1v-5h-6.5c-2.1-0.1-4.1,0.5-5.9,1.7
			c-1.5,1.1-2.3,2.5-2.3,4.1c-0.1,1.4,0.5,2.7,1.5,3.6C251.6,47,253,47.5,254.5,47.4z"/>
		<polygon id="Shape_17_" class="st0" points="277.5,49.5 274.6,49.5 274.6,11.5 277.5,11.5 		"/>
		<path id="Shape_18_" class="st0" d="M4.2,30.9c0-0.4-0.1-0.8-0.4-1.1L20.6,2.5v19.9L5.7,29.2c-0.1,0.1-0.2,0.2-0.3,0.3
			c-0.1,0.1,0,0.3,0,0.4v0c0.1,0.2,0.3,0.3,0.5,0.3h0.2l14.9-6.9L38.7,31L21.1,41.1L5.7,32.4c-0.3-0.1-0.6-0.1-0.8,0.2
			c-0.2,0.3-0.1,0.6,0.2,0.8l0,0l15.7,8.7c0.2,0.1,0.5,0.1,0.8,0l18.5-10.6c0.3-0.2,0.5-0.7,0.4-1.1l-18.7-30
			C21.7,0.1,21.4,0,21.2,0c-0.3,0-0.5,0.1-0.7,0.4L2.7,29.2H2.3c-1,0-1.7,0.8-1.7,1.8c0,1,0.8,1.7,1.8,1.7
			C3.4,32.7,4.2,31.9,4.2,30.9L4.2,30.9z M21.7,2.5l16.7,27.2l-16.7-7.3V2.5z M2.3,31.5c-0.3,0-0.6-0.3-0.6-0.6
			c0-0.3,0.3-0.6,0.6-0.6c0.3,0,0.6,0.3,0.6,0.6C3,31.3,2.7,31.5,2.3,31.5z"/>
		<path id="Shape_19_" class="st0" d="M39.4,33.2c-1,0-1.8,0.8-1.8,1.8c0,0.4,0.2,0.8,0.4,1.1L21.3,59.3L5.6,37.5L20.8,46
			c0.2,0.1,0.5,0.1,0.7,0l14.3-8.4c0.1-0.1,0.2-0.2,0.3-0.3c0-0.1,0-0.3-0.1-0.4l0,0c-0.2-0.3-0.5-0.4-0.8-0.2l-14.1,8.1L4.3,35.3
			c-0.3-0.2-0.6-0.1-0.8,0.1c-0.2,0.2-0.2,0.6,0,0.8l17.2,24.3c0.1,0.2,0.3,0.3,0.5,0.3c0.2,0,0.4-0.1,0.5-0.3L39,36.7h0.4
			c1,0,1.7-0.8,1.7-1.8S40.4,33.1,39.4,33.2L39.4,33.2z M39.4,35.6c-0.3,0-0.6-0.3-0.6-0.6c0-0.3,0.3-0.6,0.6-0.6S40,34.6,40,35
			C40,35.3,39.7,35.6,39.4,35.6L39.4,35.6z"/>
	</g>
</g>
</svg>
