<?xml version="1.0" encoding="UTF-8"?>
<svg width="164px" height="41px" viewBox="0 0 164 41" version="1.1" xmlns="http://www.w3.org/2000/svg" xmlns:xlink="http://www.w3.org/1999/xlink">
    <!-- Generator: Sketch 48.2 (47327) - http://www.bohemiancoding.com/sketch -->
    <title>Page 1</title>
    <desc>Created with Sketch.</desc>
    <defs>
        <polygon id="path-1" points="0.0022 0.196 12.5242 0.196 12.5242 28.3796 0.0022 28.3796"></polygon>
    </defs>
    <g id="ETHindia" stroke="none" stroke-width="1" fill="none" fill-rule="evenodd" transform="translate(-100.000000, -39.000000)">
        <g id="Page-1" transform="translate(100.000000, 38.000000)">
            <polygon id="Fill-1" fill="#FFFFFF" points="35.8228 10.7108 50.8718 10.7108 50.8718 14.3688 39.8678 14.3688 39.8678 19.9518 50.2948 19.9518 50.2948 23.6098 39.8678 23.6098 39.8678 29.7718 51.4518 29.7718 51.4518 33.4298 35.8228 33.4298"></polygon>
            <polygon id="Fill-2" fill="#FFFFFF" points="60.0825 14.369 53.1195 14.369 53.1195 10.711 71.0885 10.711 71.0885 14.369 64.1255 14.369 64.1255 33.43 60.0825 33.43"></polygon>
            <polygon id="Fill-3" fill="#FFFFFF" points="73.8477 10.7108 77.8927 10.7108 77.8927 19.7598 88.5147 19.7598 88.5147 10.7108 92.5557 10.7108 92.5557 33.4298 88.5147 33.4298 88.5147 23.4178 77.8927 23.4178 77.8927 33.4298 73.8477 33.4298"></polygon>
            <path d="M12.5239,18.0458 L21.1949,21.9868 L12.5239,27.1118 L12.5239,18.0458 Z M12.5239,16.0888 L12.5239,29.1848 L25.0469,21.7798 L12.5239,16.0888 Z" id="Fill-4" fill="#FFFFFF"></path>
            <path d="M12.5239,12.1522 L16.1549,13.8002 L12.5239,15.9492 L12.5239,12.1522 Z M12.5239,10.1932 L12.5239,18.0182 L20.0079,13.5942 L12.5239,10.1932 Z" id="Fill-5" fill="#FFFFFF"></path>
            <path d="M12.5235,1.0002 L12.5235,16.0892 L12.5235,29.1842 L25.0465,21.7812 L12.5235,1.0002 Z M14.3065,16.0892 L14.3065,7.4122 L22.5925,21.1602 L14.3065,26.0602 L14.3065,16.0892 Z" id="Fill-6" fill="#FFFFFF"></path>
            <path d="M25.0551,24.1563 L25.0641,24.1563 L25.0551,24.1563 Z M12.5251,31.5533 L12.5251,41.8043 L25.0551,24.1563 L12.5251,31.5533 Z M14.3091,32.5723 L18.7621,29.9443 L14.3091,36.2133 L14.3091,32.5723 Z" id="Fill-7" fill="#FFFFFF"></path>
            <polygon id="Fill-8" fill="#00A7D3" points="97.912 33.4294 100.607 33.4294 100.607 10.7104 97.912 10.7104"></polygon>
            <g id="Group-26" transform="translate(0.000000, 0.804400)">
                <path d="M105.8057,21.1701 C105.8057,20.4851 105.7847,19.8441 105.7417,19.2441 C105.6967,18.6461 105.6777,18.1001 105.6777,17.6081 L108.0517,17.6081 C108.0517,18.0151 108.0627,18.4211 108.0837,18.8271 C108.1057,19.2331 108.1157,19.6511 108.1157,20.0791 L108.1807,20.0791 C108.3507,19.7151 108.5907,19.3621 108.9017,19.0201 C109.2127,18.6781 109.5807,18.3731 110.0097,18.1061 C110.4367,17.8381 110.9187,17.6241 111.4527,17.4641 C111.9877,17.3031 112.5657,17.2231 113.1857,17.2231 C114.1677,17.2231 115.0207,17.3731 115.7367,17.6721 C116.4537,17.9721 117.0477,18.3891 117.5177,18.9241 C117.9887,19.4581 118.3357,20.1061 118.5607,20.8651 C118.7847,21.6241 118.8977,22.4531 118.8977,23.3521 L118.8977,32.6251 L116.3947,32.6251 L116.3947,23.6081 C116.3947,22.3471 116.1167,21.3521 115.5607,20.6241 C115.0047,19.8981 114.1377,19.5331 112.9617,19.5331 C112.1487,19.5331 111.4477,19.6731 110.8597,19.9501 C110.2707,20.2291 109.7877,20.6241 109.4157,21.1381 C109.0397,21.6511 108.7637,22.2611 108.5807,22.9671 C108.3997,23.6731 108.3087,24.4531 108.3087,25.3101 L108.3087,32.6251 L105.8057,32.6251 L105.8057,21.1701 Z" id="Fill-9" fill="#00A7D3"></path>
                <path d="M136.1289,29.9621 L136.0649,29.9621 C135.5939,30.8171 134.8509,31.5401 133.8349,32.1281 C132.8179,32.7161 131.6359,33.0111 130.2889,33.0111 C129.2409,33.0111 128.2559,32.8131 127.3369,32.4171 C126.4169,32.0211 125.6199,31.4701 124.9459,30.7641 C124.2719,30.0591 123.7429,29.2241 123.3579,28.2611 C122.9729,27.2991 122.7799,26.2501 122.7799,25.1161 C122.7799,23.9831 122.9729,22.9351 123.3579,21.9721 C123.7429,21.0091 124.2769,20.1751 124.9619,19.4691 C125.6469,18.7631 126.4759,18.2121 127.4489,17.8161 C128.4219,17.4211 129.4969,17.2231 130.6739,17.2231 C131.7649,17.2231 132.7649,17.4471 133.6739,17.8971 C134.5829,18.3461 135.3799,18.9771 136.0649,19.7901 L136.1289,19.7901 L136.1289,8.3661 L138.6319,8.3661 L138.6319,32.6251 L136.1289,32.6251 L136.1289,29.9621 Z M136.1289,25.1161 C136.1289,24.3251 136.0059,23.5931 135.7599,22.9191 C135.5139,22.2451 135.1549,21.6561 134.6849,21.1531 C134.2139,20.6511 133.6529,20.2551 132.9999,19.9671 C132.3479,19.6781 131.6149,19.5331 130.8019,19.5331 C129.9889,19.5331 129.2559,19.6781 128.6039,19.9671 C127.9519,20.2551 127.3899,20.6511 126.9199,21.1531 C126.4489,21.6561 126.0899,22.2451 125.8439,22.9191 C125.5989,23.5931 125.4759,24.3251 125.4759,25.1161 C125.4759,25.9081 125.5989,26.6411 125.8439,27.3151 C126.0899,27.9881 126.4489,28.5771 126.9199,29.0791 C127.3899,29.5821 127.9519,29.9781 128.6039,30.2671 C129.2559,30.5561 129.9889,30.7001 130.8019,30.7001 C131.6149,30.7001 132.3479,30.5561 132.9999,30.2671 C133.6529,29.9781 134.2139,29.5821 134.6849,29.0791 C135.1549,28.5771 135.5139,27.9881 135.7599,27.3151 C136.0059,26.6411 136.1289,25.9081 136.1289,25.1161 Z" id="Fill-11" fill="#00A7D3"></path>
                <path d="M142.8994,11.7355 C142.8994,11.2435 143.0764,10.8155 143.4284,10.4525 C143.7814,10.0885 144.2154,9.9065 144.7284,9.9065 C145.2414,9.9065 145.6754,10.0885 146.0284,10.4525 C146.3804,10.8155 146.5574,11.2435 146.5574,11.7355 C146.5574,12.2705 146.3864,12.7095 146.0444,13.0505 C145.7014,13.3935 145.2634,13.5645 144.7284,13.5645 C144.1934,13.5645 143.7554,13.3935 143.4134,13.0505 C143.0704,12.7095 142.8994,12.2705 142.8994,11.7355 Z M143.4774,32.6255 L145.9804,32.6255 L145.9804,17.6075 L143.4774,17.6075 L143.4774,32.6255 Z" id="Fill-13" fill="#00A7D3"></path>
                <path d="M150.7617,19.5334 C151.5327,18.7424 152.4467,18.1594 153.5057,17.7844 C154.5647,17.4104 155.6387,17.2224 156.7307,17.2224 C158.9547,17.2224 160.5597,17.7474 161.5437,18.7954 C162.5277,19.8444 163.0197,21.4374 163.0197,23.5764 L163.0197,30.0264 C163.0197,30.4544 163.0387,30.8984 163.0837,31.3584 C163.1267,31.8184 163.1797,32.2404 163.2437,32.6254 L160.8377,32.6254 C160.7517,32.2834 160.7037,31.9034 160.6937,31.4864 C160.6827,31.0694 160.6777,30.7004 160.6777,30.3794 L160.6137,30.3794 C160.1207,31.1494 159.4617,31.7804 158.6397,32.2724 C157.8157,32.7644 156.8267,33.0114 155.6717,33.0114 C154.9017,33.0114 154.1787,32.9144 153.5057,32.7214 C152.8317,32.5294 152.2427,32.2464 151.7407,31.8714 C151.2377,31.4974 150.8367,31.0314 150.5367,30.4754 C150.2377,29.9194 150.0877,29.2774 150.0877,28.5504 C150.0877,27.3094 150.4087,26.3364 151.0507,25.6304 C151.6927,24.9244 152.4897,24.4004 153.4417,24.0574 C154.3927,23.7164 155.4197,23.5024 156.5217,23.4164 C157.6237,23.3304 158.6347,23.2884 159.5537,23.2884 L160.5167,23.2884 L160.5167,22.8394 C160.5167,21.7474 160.1907,20.9244 159.5377,20.3674 C158.8857,19.8114 157.9707,19.5334 156.7947,19.5334 C155.9797,19.5334 155.1847,19.6674 154.4037,19.9344 C153.6227,20.2024 152.9317,20.6134 152.3337,21.1704 L150.7617,19.5334 Z M158.0137,25.4054 C156.4097,25.4054 155.1367,25.6304 154.1957,26.0794 C153.2537,26.5284 152.7837,27.2664 152.7837,28.2944 C152.7837,29.2344 153.0987,29.9034 153.7297,30.2994 C154.3617,30.6944 155.1477,30.8924 156.0887,30.8924 C156.8157,30.8924 157.4517,30.7694 157.9977,30.5234 C158.5437,30.2774 158.9977,29.9514 159.3617,29.5454 C159.7247,29.1384 160.0037,28.6624 160.1957,28.1174 C160.3877,27.5714 160.4957,26.9884 160.5167,26.3684 L160.5167,25.4054 L158.0137,25.4054 Z" id="Fill-15" fill="#00A7D3"></path>
                <g id="Group-19">
                    <mask id="mask-2" fill="white">
                        <use xlink:href="#path-1"></use>
                    </mask>
                    <g id="Clip-18"></g>
                    <path d="M10.7412,6.6076 L10.7412,15.2846 L10.7412,25.2546 L2.4572,20.3556 L10.7412,6.6076 Z M12.5242,0.1956 L0.0022,20.9766 L12.5242,28.3796 L12.5242,15.2846 L12.5242,0.1956 Z" id="Fill-17" fill="#00A7D3" mask="url(#mask-2)"></path>
                </g>
                <path d="M6.293,29.1398 L10.741,31.7678 L10.741,35.4078 L6.293,29.1398 Z M0,23.3518 L12.523,40.9998 L12.523,30.7488 L0,23.3518 Z" id="Fill-20" fill="#00A7D3"></path>
                <polygon id="Fill-22" fill="#00A7D3" points="12.5225 26.3088 12.5225 26.3088 3.8535 21.1828 12.5225 17.2418 12.5225 15.2848 0.0015 20.9758 12.5225 28.3798"></polygon>
                <polygon id="Fill-24" fill="#00A7D3" points="12.5225 17.215 12.5225 15.145 8.8915 12.996 12.5225 11.348 12.5225 9.389 5.0385 12.79"></polygon>
            </g>
        </g>
    </g>
</svg>