<svg xmlns="http://www.w3.org/2000/svg" xmlns:xlink="http://www.w3.org/1999/xlink" viewBox="0 0 319.88939 258.22967"><defs><linearGradient id="a" x1="813.24674" y1="-4365.12943" x2="872.36288" y2="-4365.12943" gradientTransform="translate(3338.28154 3126.75077) rotate(-58.29767)" gradientUnits="userSpaceOnUse"><stop offset="0" stop-color="#203260" stop-opacity="0"/><stop offset="1" stop-color="#00a7d3"/></linearGradient><linearGradient id="b" x1="882.11724" y1="-4271.70463" x2="902.79376" y2="-4271.70463" xlink:href="#a"/><linearGradient id="c" x1="775.52936" y1="-4354.93759" x2="882.91217" y2="-4354.93759" xlink:href="#a"/><linearGradient id="d" x1="719.64245" y1="-4362.52917" x2="776.2256" y2="-4362.52917" xlink:href="#a"/><linearGradient id="e" x1="866.47344" y1="-4314.93716" x2="947.35289" y2="-4314.93716" xlink:href="#a"/><linearGradient id="f" x1="941.20375" y1="-4218.81834" x2="952.68062" y2="-4218.81834" xlink:href="#a"/><linearGradient id="g" x1="889.21216" y1="-4195.54276" x2="952.48374" y2="-4195.54276" gradientTransform="translate(3338.28154 3126.75077) rotate(-58.29767)" gradientUnits="userSpaceOnUse"><stop offset="0" stop-color="#00a7d3"/><stop offset="1" stop-color="#203260" stop-opacity="0"/></linearGradient><linearGradient id="h" x1="866.919" y1="-4172.14878" x2="941.96823" y2="-4172.14878" xlink:href="#g"/><linearGradient id="i" x1="-4799.53186" y1="-8152.27517" x2="-4748.96854" y2="-8152.27517" gradientTransform="matrix(0.96814, -0.00775, 0.13005, 0.8697, 5967.92445, 7239.65286)" xlink:href="#g"/><linearGradient id="j" x1="871.90862" y1="-4398.93054" x2="947.15755" y2="-4398.93054" xlink:href="#g"/><linearGradient id="k" x1="834.0673" y1="-4395.77077" x2="947.13244" y2="-4395.77077" xlink:href="#a"/><linearGradient id="l" x1="882.5171" y1="-4320.89952" x2="971.69242" y2="-4320.89952" xlink:href="#g"/></defs><title>ETHWomen</title><g style="isolation:isolate"><circle cx="65.53374" cy="149.12275" r="5.23983" fill="#00a7d3"/><circle cx="115.75231" cy="23.27923" r="5.23983" fill="#00a7d3"/><circle cx="5.24056" cy="156.1319" r="5.23983" fill="#00a7d3"/><circle cx="213.32857" cy="136.01186" r="5.23983" fill="#00a7d3"/><circle cx="189.72267" cy="62.80963" r="5.23983" fill="#00a7d3"/><circle cx="303.4342" cy="145.36328" r="5.23983" fill="#00a7d3"/><circle cx="314.64883" cy="211.43084" r="5.23983" fill="#00a7d3"/><circle cx="69.2135" cy="82.47337" r="5.23983" fill="#00a7d3"/><circle cx="34.22082" cy="239.6273" r="5.23983" fill="#00a7d3"/><line x1="65.53374" y1="149.12275" x2="69.2135" y2="82.47337" fill="none" stroke-miterlimit="10" stroke="url(#a)"/><line x1="132.57189" y1="109.2903" x2="213.32857" y2="136.01186" fill="none" stroke-miterlimit="10" stroke="url(#b)"/><line x1="5.24056" y1="156.1319" x2="132.57189" y2="109.2903" fill="none" stroke-miterlimit="10" stroke="url(#c)"/><line x1="34.22082" y1="239.6273" x2="5.24056" y2="156.1319" fill="none" stroke-miterlimit="10" stroke="url(#d)"/><line x1="115.75231" y1="23.27923" x2="171.77975" y2="151.98414" fill="none" stroke-miterlimit="10" stroke="url(#e)"/><line x1="189.72267" y1="62.80963" x2="303.4342" y2="145.36328" fill="none" stroke-miterlimit="10" stroke="url(#f)"/><line x1="313.755" y1="212.87794" x2="191.58174" y2="64.1593" fill="none" stroke-miterlimit="10" stroke="url(#g)"/><line x1="303.4342" y1="145.36328" x2="224.46809" y2="184.17461" fill="none" stroke-miterlimit="10" stroke="url(#h)"/><circle cx="172.2224" cy="153.00098" r="5.23983" fill="#00a7d3"/><circle cx="223.47914" cy="184.66067" r="5.23983" fill="#00a7d3"/><circle cx="267.63007" cy="227.94286" r="5.23983" fill="#00a7d3"/><line x1="267.63007" y1="227.94286" x2="303.4342" y2="145.36328" fill="none" stroke-miterlimit="10" stroke="url(#i)"/><line x1="69.2135" y1="82.47337" x2="78.15072" y2="0.0539" fill="none" stroke-miterlimit="10" stroke="url(#j)"/><line x1="115.75231" y1="23.27923" x2="17.08946" y2="94.78536" fill="none" stroke-miterlimit="10" stroke="url(#k)"/><line x1="132.57189" y1="109.2903" x2="166.03636" y2="25.34895" fill="none" stroke-miterlimit="10" stroke="url(#l)"/><circle cx="132.57189" cy="109.2903" r="5.23983" fill="#00a7d3"/><path d="M159.70859,102.63028l-.10384-.376a25.46789,25.46789,0,0,1-3.3219-21.8451l-.017-.20177a18.74331,18.74331,0,0,0-4.47383.05421,2.25267,2.25267,0,0,0-.15985-.29231,1.59086,1.59086,0,0,0-1.2683-.72056l1.44637-.16735a12.71872,12.71872,0,0,0-5.01285.03231,7.27261,7.27261,0,0,0-2.95243,1.23566c-.0748.057-.14008.12475-.21151.18557a18.76833,18.76833,0,0,0-5.6802-.24973l-.017.20177a25.46755,25.46755,0,0,1-3.32189,21.845l-.104.376a17.5583,17.5583,0,0,0,4.03284,6.631,14.13249,14.13249,0,0,0,4.2658,2.95781,5.6693,5.6693,0,0,0,1.73411,2.049c2.23726,1.54586,5.63259.57446,7.11261-1.707a6.25854,6.25854,0,0,0,.40622-.73207,14.25872,14.25872,0,0,0,3.61388-2.6456A17.55822,17.55822,0,0,0,159.70859,102.63028Z" fill="#deb591"/><path d="M146.75478,75.30976l.35472,17.07976L140.94412,94.248l-12.26467,2.72458L116.632,84.834s-6.26508-11.76777,1.34218-17.09281c3.95931-2.77155,6.7044-6.71052,8.49463-25.91485,1.66084-17.8139,15.2043-19.70444,20.06557-19.80563v-.00494c.03431.00058.07443.002.1102.00261.03576-.00058.07589-.002.1102-.00261v.00494c4.861.10089,18.40473,1.99173,20.06557,19.80563,2.2665,24.31129-2.76051,18.03633,8.49464,25.91485,7.60724,5.325.886,16.76192.886,16.76192L163.41053,96.97258Z" fill="#4f5d81"/><path d="M137.78822,77.96094c1.3317-2.57588,2.53226-8.00559.72548-12.04981a24.66073,24.66073,0,0,0,8.02068,4.38907h.2204a24.65791,24.65791,0,0,0,8.0207-4.38907c-1.8068,4.04422-.60624,9.47393.72546,12.04981,5.08661,9.83942,6.21768,11.54533,6.12114,15.79832-.18841,8.28472-7.55837,15.22466-14.8673,19.61635h-.2204c-7.30892-4.39169-14.67889-11.33163-14.86731-19.61635C131.57054,89.50627,132.70161,87.80036,137.78822,77.96094Z" fill="#c7ccd7"/><g opacity="0.3" style="mix-blend-mode:multiply"><path d="M153.93605,72.071a23.26692,23.26692,0,0,1-7.18127,3.74444h-.2204a23.273,23.273,0,0,1-7.18127-3.74444,12.58914,12.58914,0,0,0-.83941-6.15982,24.66073,24.66073,0,0,0,8.02068,4.38907h.2204a24.65791,24.65791,0,0,0,8.0207-4.38907A12.58891,12.58891,0,0,0,153.93605,72.071Z" fill="#c7ccd7"/></g><path d="M146.53438,70.3002a24.66073,24.66073,0,0,1-8.02068-4.38907c-4.78046-4.52195-6.09791-12.10913-5.76266-17.61328.319-5.24449,1.75069-5.19826,6.77711-7.28158,3.60287-1.49365,4.55742-7.11381,7.00623-9.29395v-.198c.03809.02965.07269.06774.1102.09915.03751-.03141.07211-.0695.1102-.09915v.198c2.44881,2.18014,3.40338,7.8003,7.00654,9.29395,5.0264,2.08332,6.45785,2.03709,6.77709,7.28158.33525,5.50415-.98218,13.09133-5.76293,17.61328a24.65791,24.65791,0,0,1-8.0207,4.38907Z" fill="#edeff2"/><ellipse cx="148.48592" cy="194.75604" rx="63.97639" ry="30.35455" fill="#111d33"/><path d="M216.88529,175.63736c-2.77806-19.528-6.37209-38.976-11.839-57.92781-1.98452-6.87983-4.29062-13.83775-8.63906-19.52639-6.45992-8.45091-16.04122-11.783-26.36123-14.36088l-2.692-.86626a16.87924,16.87924,0,0,1-6.94808,9.11044c-.73284.52392-1.47253,1.06532-2.19672,1.62958-1.41341.658-2.81482,1.403-4.19565,2.00559a23.31379,23.31379,0,0,1-13.17605,1.499,33.87314,33.87314,0,0,0-5.60231-4.7306,16.878,16.878,0,0,1-6.94809-9.11043l-2.69213.86635c-10.32,2.57779-19.9012,5.90987-26.36112,14.36088-4.34845,5.68864-6.65454,12.64646-8.63917,19.52629-5.46691,18.95181-9.06095,38.39983-11.83891,57.92792a1.71559,1.71559,0,0,0,1.00244,2.191,69.36941,69.36941,0,0,0,8.7238,4.74123,44.33939,44.33939,0,0,0,20.31913,2.97645,17.62137,17.62137,0,0,0,3.83634.01728q24.09238-1.69082,48.18468-3.38155a50.17053,50.17053,0,0,0,8.41425-1.11977,5.226,5.226,0,0,0,1.05947.905,9.48333,9.48333,0,0,0,3.00624,1.08192c11.18516,2.59776,23.29071,3.61262,33.85688-.88284a69.37526,69.37526,0,0,0,8.7238-4.74123,1.71561,1.71561,0,0,0,1.00254-2.19106Z" fill="#111d33"/><path d="M147.50361,90.27038c3.142,3.4491-.65068,13.70652-5.7862,12.80292a8.45713,8.45713,0,0,1-3.65731-1.85419c-3.10451-2.44259-4.90406-5.79355-6.983-9.0558a45.80028,45.80028,0,0,1-4.12185-7.18223c-.07609-.18864-.46729-.97135-.17583-1.13635,2.98688-1.69108,7.8199-3.75051,10.74618-5.53248C137.52564,78.31225,147.49258,90.25836,147.50361,90.27038Z" fill="#fff"/><path d="M148.22909,90.94858c-3.05015,3.53076,1.01169,13.68467,6.12157,12.646a8.45772,8.45772,0,0,0,3.60716-1.95c3.03913-2.52355,4.74968-5.9208,6.74185-9.23669a45.7957,45.7957,0,0,0,3.93121-7.28833c.071-.19063.55442-1.51206.25868-1.66941-3.03039-1.61171-8.029-3.0144-11.00118-4.71849C157.88838,78.73166,148.23972,90.93626,148.22909,90.94858Z" fill="#fff"/><path d="M159.61661,89.27439c-2.2437-1.11053-5.38187.68674-7.12839,2.01075a13.24767,13.24767,0,0,0-4.66066,6.69338,1.339,1.339,0,0,0-.13918-.014,1.37132,1.37132,0,0,0-.22262.02245,13.28523,13.28523,0,0,0-4.75305-7.01723c-1.73986-1.3249-4.89044-3.1182-7.12839-2.01075-3.05224,1.51048-.09408,4.89014,1.41848,6.21475a20.99448,20.99448,0,0,0,9.27316,4.65153.549.549,0,0,0,.13132.01232,1.36793,1.36793,0,0,0,.255.41395,43.0427,43.0427,0,0,1-4.96822,19.256c-.30091.57071.56485,1.07844.86635.50634a44.1755,44.1755,0,0,0,5.02942-17.92483,44.17483,44.17483,0,0,0,5.05067,18.24023c.3012.57141,1.16755.06487.86635-.50643a43.045,43.045,0,0,1-4.96951-19.40481,1.37661,1.37661,0,0,0,.25838-.26484.54714.54714,0,0,0,.12925-.01262,21.02761,21.02761,0,0,0,9.27314-4.65142C159.70742,94.17039,162.67411,90.78764,159.61661,89.27439Zm-13.20327,9.5515a20.20952,20.20952,0,0,1-6.66238-2.811,19.38011,19.38011,0,0,1-2.82971-2.28066,5.72337,5.72337,0,0,1-1.28378-1.50213c-1.02052-2.30481.57846-2.70316,1.96029-2.52435,4.41549.57121,7.8945,4.70388,8.97642,8.83049A1.36569,1.36569,0,0,0,146.41334,98.82589ZM159.018,93.28427q-.35629.39517-.73831.76522A18.97008,18.97008,0,0,1,155.45,96.33026a20.26213,20.26213,0,0,1-6.41094,2.74915,1.36387,1.36387,0,0,0-.3016-.62028c1.19407-3.99191,4.59142-7.88308,8.86575-8.436l.01063-.00139a1.68145,1.68145,0,0,1,1.85668,2.73216A1.67992,1.67992,0,0,1,159.018,93.28427Z" fill="#00a7d3"/><path d="M114.01647,112.24383q-1.25585,2.40592-2.39489,4.8658a20.24339,20.24339,0,0,0-.80229-5.93709.50208.50208,0,0,0-.96747.26673,19.482,19.482,0,0,1,.7083,7.02805.41027.41027,0,0,0,.24537.43512A120.38143,120.38143,0,0,0,100.799,177.6658c.05306.63886,1.05689.64452,1.00334,0a119.38993,119.38993,0,0,1,13.08048-64.91553C115.18124,112.17846,114.3157,111.67064,114.01647,112.24383Z" fill="#fff"/><path d="M184.94261,113.83547q1.25571,2.40577,2.3948,4.8657a20.24372,20.24372,0,0,1,.80238-5.93709.5021.5021,0,0,1,.96749.26673,19.48131,19.48131,0,0,0-.7083,7.028.41044.41044,0,0,1-.24537.43521,120.38126,120.38126,0,0,1,10.00647,58.76327c-.053.639-1.05687.64462-1.00334,0a119.39081,119.39081,0,0,0-13.08048-64.91553C183.77784,113.7701,184.6434,113.26217,184.94261,113.83547Z" fill="#fff"/><path d="M125.52489,228.49314c11.03267,2.48988,25.8531,6.21088,36.88577,8.70075,6.58639,1.48644,13.25622,2.981,19.953,2.71816l-4.419-14.21276c-10.53557-5.06568-35.07678-12.96952-46.14979-16.46065Z" fill="#d5d8e1"/><path d="M172.80636,241.47666c1.2655,2.13911,5.11068,2.03619,7.271,2.315a27.78332,27.78332,0,0,1,13.25006,5.45092c3.27337,2.53319,6.3424,5.65735,10.2899,7.14378,14.33207,5.39619,24.788-18.63243,13.53506-27.24119-3.65723-2.79783-8.1964-2.22284-12.50738-2.18013-7.47052.074-15.30383-.203-22.06982-3.73173C174.61476,219.08171,169.5162,235.91488,172.80636,241.47666Z" fill="#111d33"/><path d="M209.711,227.65471c3.06635.26812,4.34715,3.51268,4.88339,6.12137,1.01456,4.93593.60906,10.17586-2.22434,14.45108-2.43335,3.67183-6.3882,6.6283-10.867,7.04782" fill="none" stroke="#fff" stroke-linecap="round" stroke-miterlimit="10" stroke-width="2"/><path d="M179.26678,223.37273c-.41008,4.92888,4.3393,8.43869,8.24409,10.39123,7.42928,3.71484,17.15821,2.26427,22.20014-4.90534" fill="none" stroke="#fff" stroke-linecap="round" stroke-miterlimit="10" stroke-width="2"/><path d="M173.42575,241.45362a29.57938,29.57938,0,0,1,10.94645-.69807c6.7938.584,15.227.27766,17.13089,14.085" fill="none" stroke="#fff" stroke-linecap="round" stroke-miterlimit="10" stroke-width="2"/><path d="M186.26046,229.35015c-2.182,3.93429-4.38678,6.39247-3.17393,13.70156" fill="none" stroke="#fff" stroke-linecap="round" stroke-miterlimit="10" stroke-width="2"/><path d="M191.67254,230.99176c-2.18192,3.93428-4.38668,6.39247-3.17383,13.70155" fill="none" stroke="#fff" stroke-linecap="round" stroke-miterlimit="10" stroke-width="2"/><path d="M197.08472,231.70572c-2.182,3.93429-4.38669,6.39247-3.17384,13.70156" fill="none" stroke="#fff" stroke-linecap="round" stroke-miterlimit="10" stroke-width="2"/><path d="M203.30275,232.17957c-2.70673,5.0173-5.3498,8.20306-4.42046,17.205" fill="none" stroke="#fff" stroke-linecap="round" stroke-miterlimit="10" stroke-width="2"/><path d="M127.243,202.83922a16.01291,16.01291,0,0,0-5.38128-3.68326q-11.94606-5.94792-23.89192-11.89564a33.241,33.241,0,0,0-5.78212-2.43842l-1.87376-2.392c-3.36308-3.42546-7.99822-4.99216-12.45026-6.44741-3.58074-1.17033-7.33959-2.35387-10.98688-1.6259a15.61455,15.61455,0,0,0-6.9606,3.73143c-2.55892,2.20536-4.80044,5.0623-5.41873,8.50088-.60608,3.37013.42507,6.8994,2.03221,9.937,5.0162,9.48117,14.9455,14.72934,24.33756,19.21288,11.09178,5.29505,22.34062,10.35735,34.084,13.62953Z" fill="#203260"/><path d="M126.48571,201.99373l-.63568-.24309c-1.72177,9.7939-6.87994,18.92529-11.83654,27.34937l2.24848.86109a27.13393,27.13393,0,0,0,8.221,3.5548,2.76927,2.76927,0,0,0,2.93631-1.127,40.14167,40.14167,0,0,0,2.85277-4.62977,131.75125,131.75125,0,0,0,6.96676-18.69928,2.76782,2.76782,0,0,0-1.50213-3.26761A85.3014,85.3014,0,0,0,126.48571,201.99373Z" fill="#324570"/><path d="M169.68935,230.69383c-11.066,2.33709-25.93645,5.85286-37.0025,8.18994-6.60624,1.39524-13.29615,2.79754-19.98863,2.4421l4.615-14.15028c10.60471-4.91955,35.25282-12.48335,46.373-15.82109Z" fill="#e0e2e9"/><path d="M122.23294,243.0225c-1.29491,2.12132-5.1384,1.96536-7.30232,2.21421a27.78449,27.78449,0,0,0-13.32418,5.26724c-3.308,2.48779-6.42008,5.56923-10.38765,7.00093-14.40538,5.1974-24.528-18.97337-13.15717-27.42577,3.69557-2.747,8.2263-2.1093,12.53629-2.007,7.46873.17732,15.30522.00854,22.1194-3.42626C120.73429,220.6046,125.59969,237.50671,122.23294,243.0225Z" fill="#111d33"/><path d="M85.5229,228.69172c-3.06972.22561-4.39533,3.45219-4.96753,6.05323-1.08272,4.92133-.74962,10.16642,2.02426,14.48048,2.38249,3.705,6.296,6.71593,10.76853,7.19723" fill="none" stroke="#fff" stroke-linecap="round" stroke-miterlimit="10" stroke-width="2"/><path d="M116.02345,224.831c.34183,4.93415-4.45562,8.37789-8.387,10.27619-7.47985,3.61193-17.18782,2.02685-22.13011-5.21171" fill="none" stroke="#fff" stroke-linecap="round" stroke-miterlimit="10" stroke-width="2"/><path d="M121.614,242.99091a29.58173,29.58173,0,0,0-10.93582-.84946c-6.80115.49015-15.22932.06726-17.324,13.847" fill="none" stroke="#fff" stroke-linecap="round" stroke-miterlimit="10" stroke-width="2"/><path d="M108.94782,230.71112c2.12739,3.96409,4.29787,6.45257,2.98409,13.74417" fill="none" stroke="#fff" stroke-linecap="round" stroke-miterlimit="10" stroke-width="2"/><path d="M103.51349,232.27772c2.12738,3.96409,4.29787,6.45257,2.9841,13.74418" fill="none" stroke="#fff" stroke-linecap="round" stroke-miterlimit="10" stroke-width="2"/><path d="M98.092,232.91688c2.12738,3.96409,4.298,6.45247,2.98419,13.74407" fill="none" stroke="#fff" stroke-linecap="round" stroke-miterlimit="10" stroke-width="2"/><path d="M91.868,233.30461c2.6371,5.05425,5.23585,8.27626,4.18214,17.2645" fill="none" stroke="#fff" stroke-linecap="round" stroke-miterlimit="10" stroke-width="2"/><path d="M168.3261,205.01865a16.01211,16.01211,0,0,1,5.43175-3.60855q12.027-5.78207,24.054-11.56424a33.249,33.249,0,0,1,5.8152-2.35825l1.90675-2.3659c3.41006-3.37867,8.06646-4.8811,12.53819-6.27455,3.59661-1.12086,7.37146-2.25225,11.00822-1.47392a15.6148,15.6148,0,0,1,6.90845,3.8273c2.52812,2.24053,4.7299,5.12816,5.30071,8.57489.55939,3.37827-.52044,6.89294-2.1695,9.90813-5.14674,9.41094-15.14766,14.52122-24.60081,18.87452-11.1639,5.14128-22.48168,10.04751-34.26914,13.157Z" fill="#203260"/><path d="M169.095,204.18369l.639-.23424c1.58617,9.81674,6.61767,19.01856,11.45725,27.5104l-2.26.82989a27.13777,27.13777,0,0,1-8.26941,3.44076,2.76932,2.76932,0,0,1-2.92052-1.16755,40.14934,40.14934,0,0,1-2.78849-4.66871,131.75345,131.75345,0,0,1-6.70758-18.79386,2.76791,2.76791,0,0,1,1.54713-3.24645A85.30877,85.30877,0,0,1,169.095,204.18369Z" fill="#324570"/><path d="M108.19547,124.80744H189.673a8.5667,8.5667,0,0,1,8.5667,8.5667v52.60015a8.5667,8.5667,0,0,1-8.5667,8.5667H108.19538a8.56661,8.56661,0,0,1-8.56661-8.56661V133.37414A8.5667,8.5667,0,0,1,108.19547,124.80744Z" fill="#eff4f8"/><circle cx="148.93421" cy="159.67422" r="8.81628" fill="#fff"/><polygon points="148.933 152.645 144.594 159.844 148.933 162.409 153.272 159.844 148.933 152.645" fill="#00a7d3"/><polygon points="148.933 163.153 144.594 160.589 148.933 166.704 153.274 160.589 148.933 163.153" fill="#00a7d3"/></g></svg>