<?xml version="1.0" encoding="UTF-8"?>
<svg width="20px" height="20px" viewBox="0 0 20 20" version="1.1" xmlns="http://www.w3.org/2000/svg" xmlns:xlink="http://www.w3.org/1999/xlink">
    <!-- Generator: Sketch 48.2 (47327) - http://www.bohemiancoding.com/sketch -->
    <title>Facebook</title>
    <desc>Created with Sketch.</desc>
    <defs></defs>
    <g id="ETHindia-Team" stroke="none" stroke-width="1" fill="none" fill-rule="evenodd" transform="translate(-1098.000000, -991.000000)">
        <g id="Group-2" transform="translate(1068.000000, 991.000000)" fill="#00A7D3" fill-rule="nonzero">
            <path d="M50,3.33355556 C50,1.582 48.4186667,0 46.6666667,0 L33.3333333,0 C31.5813333,0 30,1.582 30,3.33355556 L30,16.6664444 C30,18.418 31.5813333,20 33.3335556,20 L40,20 L40,12.4444444 L37.5555556,12.4444444 L37.5555556,9.11111111 L40,9.11111111 L40,7.81244444 C40,5.57266667 41.6817778,3.55555556 43.75,3.55555556 L46.4444444,3.55555556 L46.4444444,6.88888889 L43.75,6.88888889 C43.4551111,6.88888889 43.1111111,7.24688889 43.1111111,7.78311111 L43.1111111,9.11111111 L46.4444444,9.11111111 L46.4444444,12.4444444 L43.1111111,12.4444444 L43.1111111,20 L46.6666667,20 C48.4186667,20 50,18.418 50,16.6664444 L50,3.33355556 Z" id="Facebook"></path>
        </g>
    </g>
</svg>