<?xml version="1.0" encoding="UTF-8"?>
<svg width="20px" height="20px" viewBox="0 0 20 20" version="1.1" xmlns="http://www.w3.org/2000/svg" xmlns:xlink="http://www.w3.org/1999/xlink">
    <!-- Generator: Sketch 48.2 (47327) - http://www.bohemiancoding.com/sketch -->
    <title>Facebook</title>
    <desc>Created with Sketch.</desc>
    <defs></defs>
    <g id="ETHindia-Team" stroke="none" stroke-width="1" fill="none" fill-rule="evenodd" transform="translate(-1098.000000, -991.000000)">
        <path d="M1118,994.333556 C1118,992.582 1116.41867,991 1114.66667,991 L1101.33333,991 C1099.58133,991 1098,992.582 1098,994.333556 L1098,1007.66644 C1098,1009.418 1099.58133,1011 1101.33356,1011 L1108,1011 L1108,1003.44444 L1105.55556,1003.44444 L1105.55556,1000.11111 L1108,1000.11111 L1108,998.812444 C1108,996.572667 1109.68178,994.555556 1111.75,994.555556 L1114.44444,994.555556 L1114.44444,997.888889 L1111.75,997.888889 C1111.45511,997.888889 1111.11111,998.246889 1111.11111,998.783111 L1111.11111,1000.11111 L1114.44444,1000.11111 L1114.44444,1003.44444 L1111.11111,1003.44444 L1111.11111,1011 L1114.66667,1011 C1116.41867,1011 1118,1009.418 1118,1007.66644 L1118,994.333556 Z" id="Facebook" fill="#363F47" fill-rule="nonzero"></path>
    </g>
</svg>