<?xml version="1.0" encoding="UTF-8"?>
<svg width="20px" height="20px" viewBox="0 0 20 20" version="1.1" xmlns="http://www.w3.org/2000/svg" xmlns:xlink="http://www.w3.org/1999/xlink">
    <!-- Generator: Sketch 48.2 (47327) - http://www.bohemiancoding.com/sketch -->
    <title>Instagram</title>
    <desc>Created with Sketch.</desc>
    <defs></defs>
    <g id="ETHindia-Team" stroke="none" stroke-width="1" fill="none" fill-rule="evenodd" transform="translate(-1128.000000, -991.000000)">
        <path d="M1138,991 C1135.28417,991 1134.94375,991.011667 1133.87708,991.06 C1132.8125,991.10875 1132.08542,991.277917 1131.44958,991.525 C1130.79208,991.780417 1130.23417,992.1225 1129.67875,992.678333 C1129.1225,993.234167 1128.78042,993.792083 1128.525,994.449583 C1128.27792,995.085833 1128.10833,995.8125 1128.06,996.877083 C1128.01167,997.94375 1128,998.284167 1128,1001 C1128,1003.71583 1128.01167,1004.05625 1128.06,1005.12292 C1128.10875,1006.1875 1128.27792,1006.91458 1128.525,1007.55042 C1128.78042,1008.20792 1129.1225,1008.76583 1129.67833,1009.32125 C1130.23417,1009.8775 1130.79208,1010.21958 1131.44958,1010.47542 C1132.08583,1010.72208 1132.8125,1010.89125 1133.87708,1010.94 C1134.94375,1010.98833 1135.28417,1011 1138,1011 C1140.71583,1011 1141.05625,1010.98833 1142.12292,1010.94 C1143.1875,1010.89125 1143.91458,1010.72208 1144.55042,1010.475 C1145.20792,1010.21958 1145.76583,1009.8775 1146.32125,1009.32167 C1146.8775,1008.76583 1147.21958,1008.20792 1147.47542,1007.55042 C1147.72208,1006.91417 1147.89125,1006.1875 1147.94,1005.12292 C1147.98833,1004.05625 1148,1003.71583 1148,1001 C1148,998.284167 1147.98833,997.94375 1147.94,996.877083 C1147.89125,995.8125 1147.72208,995.085417 1147.475,994.449583 C1147.21958,993.792083 1146.8775,993.234167 1146.32167,992.67875 C1145.76583,992.1225 1145.20792,991.780417 1144.55042,991.525 C1143.91417,991.277917 1143.1875,991.108333 1142.12292,991.06 C1141.05625,991.011667 1140.71583,991 1138,991 Z M1138,992.801667 C1140.67,992.801667 1140.98625,992.812083 1142.04083,992.86 C1143.01583,992.904583 1143.545,993.0675 1143.89792,993.204583 C1144.36458,993.385833 1144.69792,993.6025 1145.04792,993.9525 C1145.3975,994.3025 1145.61417,994.635833 1145.79542,995.1025 C1145.93292,995.454583 1146.09542,995.984167 1146.14,996.959167 C1146.18792,998.013333 1146.19833,998.33 1146.19833,1001 C1146.19833,1003.67 1146.18792,1003.98625 1146.14,1005.04083 C1146.09542,1006.01583 1145.9325,1006.545 1145.79542,1006.89792 C1145.61417,1007.36458 1145.3975,1007.69792 1145.0475,1008.04792 C1144.6975,1008.3975 1144.36417,1008.61417 1143.8975,1008.79542 C1143.54542,1008.93292 1143.01583,1009.09542 1142.04083,1009.14 C1140.98667,1009.18792 1140.67,1009.19833 1138,1009.19833 C1135.32958,1009.19833 1135.01333,1009.18792 1133.95917,1009.14 C1132.98417,1009.09542 1132.455,1008.9325 1132.10208,1008.79542 C1131.63542,1008.61417 1131.30208,1008.3975 1130.95208,1008.0475 C1130.6025,1007.6975 1130.38583,1007.36417 1130.20458,1006.8975 C1130.06708,1006.54542 1129.90458,1006.01583 1129.86,1005.04083 C1129.81208,1003.98667 1129.80167,1003.67 1129.80167,1001 C1129.80167,998.33 1129.81208,998.01375 1129.86,996.959167 C1129.90458,995.984167 1130.0675,995.455 1130.20458,995.102083 C1130.38583,994.635417 1130.6025,994.302083 1130.9525,993.952083 C1131.3025,993.6025 1131.63583,993.385833 1132.1025,993.204583 C1132.45458,993.067083 1132.98417,992.904583 1133.95917,992.86 C1135.01333,992.812083 1135.33,992.801667 1138,992.801667 Z M1138,995.865 C1135.16375,995.865 1132.865,998.16375 1132.865,1001 C1132.865,1003.83625 1135.16375,1006.135 1138,1006.135 C1140.83625,1006.135 1143.135,1003.83625 1143.135,1001 C1143.135,998.16375 1140.83625,995.865 1138,995.865 Z M1138,1004.33333 C1136.15905,1004.33333 1134.66667,1002.84095 1134.66667,1001 C1134.66667,999.159051 1136.15905,997.666667 1138,997.666667 C1139.84095,997.666667 1141.33333,999.159051 1141.33333,1001 C1141.33333,1002.84095 1139.84095,1004.33333 1138,1004.33333 Z M1144.53792,995.662083 C1144.53792,996.324825 1144.00066,996.862083 1143.33792,996.862083 C1142.67517,996.862083 1142.13792,996.324825 1142.13792,995.662083 C1142.13792,994.999342 1142.67517,994.462083 1143.33792,994.462083 C1144.00066,994.462083 1144.53792,994.999342 1144.53792,995.662083 Z" id="Instagram" fill="#363F47" fill-rule="nonzero"></path>
    </g>
</svg>