<?xml version="1.0" encoding="UTF-8"?>
<svg width="20px" height="20px" viewBox="0 0 20 20" version="1.1" xmlns="http://www.w3.org/2000/svg" xmlns:xlink="http://www.w3.org/1999/xlink">
    <!-- Generator: Sketch 48.2 (47327) - http://www.bohemiancoding.com/sketch -->
    <title>Instagram</title>
    <desc>Created with Sketch.</desc>
    <defs></defs>
    <g id="ETHindia-Team" stroke="none" stroke-width="1" fill="none" fill-rule="evenodd" transform="translate(-1128.000000, -991.000000)">
        <g id="Group-2" transform="translate(1068.000000, 991.000000)" fill="#00A7D3" fill-rule="nonzero">
            <path d="M70,0 C67.2841667,0 66.94375,0.0116666667 65.8770833,0.06 C64.8125,0.10875 64.0854167,0.277916667 63.4495833,0.525 C62.7920833,0.780416667 62.2341667,1.1225 61.67875,1.67833333 C61.1225,2.23416667 60.7804167,2.79208333 60.525,3.44958333 C60.2779167,4.08583333 60.1083333,4.8125 60.06,5.87708333 C60.0116667,6.94375 60,7.28416667 60,10 C60,12.7158333 60.0116667,13.05625 60.06,14.1229167 C60.10875,15.1875 60.2779167,15.9145833 60.525,16.5504167 C60.7804167,17.2079167 61.1225,17.7658333 61.6783333,18.32125 C62.2341667,18.8775 62.7920833,19.2195833 63.4495833,19.4754167 C64.0858333,19.7220833 64.8125,19.89125 65.8770833,19.94 C66.94375,19.9883333 67.2841667,20 70,20 C72.7158333,20 73.05625,19.9883333 74.1229167,19.94 C75.1875,19.89125 75.9145833,19.7220833 76.5504167,19.475 C77.2079167,19.2195833 77.7658333,18.8775 78.32125,18.3216667 C78.8775,17.7658333 79.2195833,17.2079167 79.4754167,16.5504167 C79.7220833,15.9141667 79.89125,15.1875 79.94,14.1229167 C79.9883333,13.05625 80,12.7158333 80,10 C80,7.28416667 79.9883333,6.94375 79.94,5.87708333 C79.89125,4.8125 79.7220833,4.08541667 79.475,3.44958333 C79.2195833,2.79208333 78.8775,2.23416667 78.3216667,1.67875 C77.7658333,1.1225 77.2079167,0.780416667 76.5504167,0.525 C75.9141667,0.277916667 75.1875,0.108333333 74.1229167,0.06 C73.05625,0.0116666667 72.7158333,0 70,0 Z M70,1.80166667 C72.67,1.80166667 72.98625,1.81208333 74.0408333,1.86 C75.0158333,1.90458333 75.545,2.0675 75.8979167,2.20458333 C76.3645833,2.38583333 76.6979167,2.6025 77.0479167,2.9525 C77.3975,3.3025 77.6141667,3.63583333 77.7954167,4.1025 C77.9329167,4.45458333 78.0954167,4.98416667 78.14,5.95916667 C78.1879167,7.01333333 78.1983333,7.33 78.1983333,10 C78.1983333,12.67 78.1879167,12.98625 78.14,14.0408333 C78.0954167,15.0158333 77.9325,15.545 77.7954167,15.8979167 C77.6141667,16.3645833 77.3975,16.6979167 77.0475,17.0479167 C76.6975,17.3975 76.3641667,17.6141667 75.8975,17.7954167 C75.5454167,17.9329167 75.0158333,18.0954167 74.0408333,18.14 C72.9866667,18.1879167 72.67,18.1983333 70,18.1983333 C67.3295833,18.1983333 67.0133333,18.1879167 65.9591667,18.14 C64.9841667,18.0954167 64.455,17.9325 64.1020833,17.7954167 C63.6354167,17.6141667 63.3020833,17.3975 62.9520833,17.0475 C62.6025,16.6975 62.3858333,16.3641667 62.2045833,15.8975 C62.0670833,15.5454167 61.9045833,15.0158333 61.86,14.0408333 C61.8120833,12.9866667 61.8016667,12.67 61.8016667,10 C61.8016667,7.33 61.8120833,7.01375 61.86,5.95916667 C61.9045833,4.98416667 62.0675,4.455 62.2045833,4.10208333 C62.3858333,3.63541667 62.6025,3.30208333 62.9525,2.95208333 C63.3025,2.6025 63.6358333,2.38583333 64.1025,2.20458333 C64.4545833,2.06708333 64.9841667,1.90458333 65.9591667,1.86 C67.0133333,1.81208333 67.33,1.80166667 70,1.80166667 Z M70,4.865 C67.16375,4.865 64.865,7.16375 64.865,10 C64.865,12.83625 67.16375,15.135 70,15.135 C72.83625,15.135 75.135,12.83625 75.135,10 C75.135,7.16375 72.83625,4.865 70,4.865 Z M70,13.3333333 C68.1590508,13.3333333 66.6666667,11.8409492 66.6666667,10 C66.6666667,8.15905083 68.1590508,6.66666667 70,6.66666667 C71.8409492,6.66666667 73.3333333,8.15905083 73.3333333,10 C73.3333333,11.8409492 71.8409492,13.3333333 70,13.3333333 Z M76.5379167,4.66208333 C76.5379167,5.32482503 76.0006584,5.86208333 75.3379167,5.86208333 C74.675175,5.86208333 74.1379167,5.32482503 74.1379167,4.66208333 C74.1379167,3.99934163 74.675175,3.46208333 75.3379167,3.46208333 C76.0006584,3.46208333 76.5379167,3.99934163 76.5379167,4.66208333 Z" id="Instagram"></path>
        </g>
    </g>
</svg>