<?xml version="1.0" encoding="UTF-8"?>
<svg width="202px" height="40px" viewBox="0 0 202 40" version="1.1" xmlns="http://www.w3.org/2000/svg" xmlns:xlink="http://www.w3.org/1999/xlink">
    <!-- Generator: Sketch 49.3 (51167) - http://www.bohemiancoding.com/sketch -->
    <title>Logo/Wordmark</title>
    <desc>Created with Sketch.</desc>
    <defs>
        <path d="M20,40 C8.954305,40 0,31.045695 0,20 C0,8.954305 8.954305,0 20,0 C31.045695,0 40,8.954305 40,20 C40,31.045695 31.045695,40 20,40 Z M18.6157808,7.41538104 L17.2968561,4.23499966 C12.5153634,6.41560169 12.1480976,11.232828 11.8423469,15.1249583 C11.531383,19.166023 11.207647,21.6973612 8.48247759,22.8007615 L7.14348237,23.3419022 L7.12888557,27.0515046 L18.00454,22.6480632 L17.9151346,23.451773 C17.6010429,26.3738212 16.9366281,28.4271765 14.6889824,29.5104611 L16.001912,32.6899837 C20.8694216,30.5326412 21.2478956,25.6816517 21.5481725,21.7603562 L21.5914416,21.1978708 L25.1488889,19.7588214 L24.9705995,20.6421509 C24.6922177,22.0079018 24.5767467,23.4373794 24.4790003,24.6952004 C24.1782021,28.6677615 23.8500348,31.2331926 21.3088893,32.5788948 L22.6291173,35.7650003 C27.2750684,33.5548434 27.6420735,28.7958761 27.9368766,24.9493359 C28.2488831,20.9074853 28.5780929,18.3709944 31.2962246,17.2728381 L32.8565176,16.6407301 L32.8711144,12.931611 L21.9018841,17.3743443 L21.9936354,16.5651809 C22.3056419,13.7005313 22.9476402,11.6760344 25.0905017,10.5812186 L23.765582,7.39514494 C19.026055,9.58199984 18.6593105,14.3815534 18.3652894,18.2626076 L18.3162858,18.8247025 L14.6358084,20.3151536 L14.8143585,19.4322922 C15.0930008,18.08296 15.1967424,16.7172438 15.3010052,15.3788065 C15.6075378,11.3428337 15.9476953,8.73658518 18.6157808,7.41538104 Z M185.149187,19.9614686 C185.149187,16.8791005 185.149508,13.7967324 185.148305,10.7143642 C185.148225,10.5615148 185.153836,10.4117965 185.231351,10.2762507 C185.3257,10.1115358 185.458045,10.0137287 185.653396,10.0140582 C187.997526,10.0173542 190.342859,9.97063417 192.685547,10.0318564 C196.870801,10.1413641 200.656216,13.3384312 201.654052,17.5298849 C202.977741,23.0897328 199.576696,28.6018718 194.118734,29.7384786 C193.469435,29.8736948 192.811719,29.9266771 192.148392,29.9255235 C190.024622,29.9214036 187.900933,29.9240403 185.777163,29.9238755 C185.339728,29.9238755 185.149588,29.727602 185.149508,29.2703719 C185.148946,26.1673218 185.149187,23.0644364 185.149187,19.9614686 Z M188.753663,19.9479552 C188.753663,22.0343711 188.755747,24.1207869 188.749735,26.2072027 C188.749254,26.3818878 188.78188,26.4392373 188.965287,26.4366829 C189.78637,26.4248999 190.607693,26.4315742 191.428936,26.4316566 C191.962885,26.4316566 192.496272,26.4319862 193.02517,26.3342614 C194.776915,26.0105172 196.166576,25.1111361 197.13323,23.5673977 C197.966578,22.2366597 198.245135,20.7646081 198.095796,19.2005172 C197.959283,17.7713953 197.44794,16.5038571 196.49347,15.4476714 C195.261726,14.0846332 193.710301,13.4610403 191.918797,13.4391223 C190.930739,13.4270097 189.942442,13.4414295 188.954385,13.4321184 C188.784044,13.4304704 188.749254,13.4796624 188.749735,13.6475908 C188.755667,15.7476848 188.753663,17.8478612 188.753663,19.9479552 Z M176.521996,19.9977652 C176.521996,16.9018013 176.52857,13.8058374 176.514381,10.7100383 C176.512457,10.2757975 176.825083,9.99490057 177.189252,10.006766 C177.976507,10.0323919 178.765045,10.014017 179.553102,10.0149234 C179.95719,10.0153354 180.185166,10.2475348 180.185246,10.6630711 C180.185808,16.8893591 180.185808,23.1157295 180.185246,29.3420176 C180.185246,29.7680185 179.95719,29.9975811 179.538432,29.9979107 C178.743722,29.9985699 177.948932,29.9988171 177.154222,29.9978283 C176.753339,29.9973339 176.522638,29.7603554 176.522317,29.3472911 C176.521435,28.0018038 176.521996,26.6563165 176.521996,25.3108292 L176.521996,19.9977652 Z M172.101199,20.0139401 C172.081399,25.5765895 167.773018,29.9509682 162.340869,29.9235294 C156.959862,29.8964203 152.699096,25.4810071 152.723305,19.9572498 C152.747593,14.4119041 157.075453,9.98767421 162.448604,10.0151953 C167.781996,10.0424693 172.120598,14.536738 172.101199,20.0139401 Z M162.373847,26.5005748 C165.841024,26.5023876 168.70235,23.5670186 168.703873,20.006656 C168.705316,16.43278 165.824351,13.4381665 162.383065,13.4366833 C158.939295,13.4352001 156.056166,16.4235514 156.0532,19.9972626 C156.050394,23.5582844 158.908192,26.498762 162.373847,26.5005748 Z M134.164754,20.072921 C134.164754,16.9833018 134.156979,13.8936002 134.17277,10.8040634 C134.175255,10.3139563 134.398502,10.0027367 134.931007,10.006527 C137.582633,10.0250667 140.234499,10.0014183 142.886045,10.020782 C145.810537,10.0421232 148.335589,12.3244006 148.713866,15.3069016 C149.042123,17.8947955 147.994026,19.8328114 145.927491,21.2485847 C145.599715,21.473121 145.251258,21.664533 144.882921,21.8083186 C144.714664,21.873908 144.72284,21.9335646 144.80276,22.0777622 C146.077471,24.3765193 147.345929,26.6789019 148.61583,28.980543 C148.655269,29.0521474 148.697513,29.1224334 148.731662,29.1966746 C148.906812,29.5775211 148.681722,29.9878663 148.271701,29.9928926 C147.27659,30.0049228 146.281319,29.9980837 145.286127,29.9960238 C145.043482,29.9955294 144.90264,29.846635 144.793702,29.6373425 C143.670655,27.4801463 142.54392,25.3248452 141.418308,23.1689673 C141.270252,22.8851864 141.116424,22.6042895 140.977266,22.3158118 C140.920993,22.1991354 140.850051,22.1673295 140.728528,22.1679887 C139.833537,22.1731798 138.938466,22.1758166 138.043475,22.1664231 C137.874978,22.1646927 137.836421,22.2105064 137.836902,22.380742 C137.842754,24.6739784 137.84083,26.9671324 137.84075,29.2603688 C137.84075,29.7831057 137.632413,29.9980837 137.12612,29.9980837 C136.351289,29.9981661 135.576459,29.9986605 134.801709,29.9979189 C134.368843,29.9974245 134.165075,29.7880496 134.164995,29.341861 C134.164594,26.2521594 134.164754,23.1625402 134.164754,20.072921 Z M137.841086,16.1867872 C137.841086,17.0649918 137.845736,17.9431965 137.837158,18.8213187 C137.835555,18.9946854 137.885255,19.0351432 138.049183,19.0344016 C139.41744,19.0274801 140.785698,19.0313528 142.154036,19.0294577 C142.363415,19.0292105 142.561331,19.1121859 142.779528,19.0728817 C144.219449,18.8132436 145.231153,17.4382576 145.100652,15.9014407 C144.981454,14.4971208 143.753316,13.3676003 142.333195,13.3638099 C140.898243,13.3599372 139.463132,13.3652107 138.028101,13.3594428 C137.880044,13.358866 137.836036,13.3952862 137.837399,13.5522556 C137.845094,14.4303779 137.841086,15.3085825 137.841086,16.1867872 Z M112.958257,19.9664208 C112.958257,16.8703745 112.958578,13.7742458 112.957295,10.6781995 C112.957295,10.5319419 112.963708,10.3898867 113.043147,10.2624984 C113.138939,10.1087425 113.265672,10.0138193 113.453168,10.0140665 C115.797298,10.0174448 118.142551,9.97039521 120.485238,10.0317822 C124.770613,10.1440091 128.613102,13.4753035 129.515147,17.7856585 C130.6515,23.2150693 127.393541,28.4661695 122.123797,29.6942388 C121.411812,29.8601896 120.688766,29.9268501 119.958023,29.9254493 C117.827601,29.921247 115.697178,29.9240486 113.566755,29.9238838 C113.150883,29.9238014 112.958738,29.7271982 112.958658,29.2958414 C112.957937,26.1860345 112.958257,23.0762276 112.958257,19.9664208 Z M116.562501,19.9253038 L116.562501,21.2435172 C116.562501,22.9049209 116.563383,24.5663245 116.560818,26.2277282 C116.560657,26.3578357 116.559215,26.4497101 116.733724,26.4357848 C116.952802,26.4182339 117.174285,26.4353728 117.394566,26.4309232 C118.442262,26.4097468 119.493726,26.5032692 120.537174,26.3720906 C122.303188,26.1501087 123.736295,25.310961 124.773811,23.8169914 C125.694694,22.4908677 126.03225,20.9918718 125.914654,19.3768585 C125.805476,17.8767914 125.292048,16.546383 124.291486,15.4405934 C123.0587,14.0782143 121.50439,13.4588238 119.712404,13.4387185 C118.73076,13.4276771 117.748875,13.4409433 116.767151,13.4323738 C116.602742,13.4309731 116.557772,13.4693708 116.558333,13.6434791 C116.564826,15.7373932 116.562501,17.8313897 116.562501,19.9253038 Z M104.290129,22.5536473 C104.347524,22.4602072 104.323235,22.3759958 104.323315,22.2969755 C104.324758,18.5478376 104.324518,14.7987822 104.324758,11.0497267 C104.324758,10.9674105 104.322674,10.8845174 104.330289,10.802778 C104.357864,10.5065549 104.553776,10.3021239 104.84067,10.2999815 C105.709048,10.2932248 106.577426,10.29306 107.445803,10.2986631 C107.748569,10.3006407 107.981675,10.5559941 107.991535,10.8687793 C107.993219,10.9236568 107.991936,10.9786167 107.991936,11.0335766 L107.991936,29.2640273 C107.991936,29.7388906 107.811655,29.8877849 107.354981,29.9337634 C106.916023,29.9780114 106.637546,29.8006072 106.346003,29.4833724 C102.708404,25.5254364 99.0574987,21.5802722 95.4100403,17.6319768 C95.3558519,17.5733914 95.3015032,17.5149707 95.2098798,17.4160924 L95.2098798,17.6805096 C95.2098798,21.5257243 95.20996,25.370939 95.2098798,29.2161536 C95.2097997,29.7465537 95.0399398,29.9237107 94.5309213,29.9238755 C93.776131,29.9241227 93.0212605,29.9245347 92.2664702,29.9237107 C91.8278326,29.9232987 91.6069907,29.6932417 91.6069907,29.2361765 C91.60667,23.0770434 91.6069105,16.9178278 91.6052271,10.7586947 C91.6052271,10.6670674 91.628634,10.5737922 91.5660287,10.4824121 C91.5200166,10.415422 91.5690748,10.3335178 91.6109987,10.2729548 C91.7215399,10.1133486 91.8726422,10.0246053 92.0667907,10.015047 C92.7368514,9.98184038 92.7366911,9.98126359 93.1972928,10.4826593 C96.7975366,14.4012911 100.397781,18.3200054 103.998024,22.2385549 C104.093175,22.34213 104.189207,22.4448811 104.290129,22.5536473 Z M74.2052428,19.9980042 C74.2052428,16.9012163 74.2052428,13.8044284 74.205323,10.7077229 C74.205323,10.2049264 74.3919364,10.014668 74.8844419,10.014668 C78.5583531,10.0145856 82.2322644,10.0145856 85.9062558,10.0147504 C86.3607653,10.0147504 86.5821683,10.2411818 86.5824889,10.7059101 C86.5828897,11.3856989 86.5828897,12.0654876 86.5824889,12.745194 C86.5822485,13.2351362 86.3891421,13.4362713 85.9185204,13.4363537 C83.2866943,13.4365185 80.654788,13.4384137 78.0228817,13.4319866 C77.848132,13.4315746 77.8040438,13.4717851 77.8050859,13.6542981 C77.8135829,15.061914 77.813663,16.4695298 77.8052462,17.8771457 C77.804124,18.0695465 77.8410779,18.1282143 78.0408376,18.1273904 C80.1650079,18.1188209 82.2893386,18.1353006 84.4132685,18.1135474 C85.0103832,18.1075323 85.2554336,18.3799422 85.2284997,18.9645605 C85.1998023,19.5879886 85.2005237,20.2150422 85.2289806,20.8384702 C85.2511049,21.321491 84.9863351,21.6215045 84.483008,21.6169725 C82.3388777,21.5981032 80.1945871,21.6127702 78.0503767,21.6030472 C77.8385929,21.6021408 77.8042041,21.6663293 77.8053264,21.86491 C77.8135027,23.3686027 77.8122202,24.8723778 77.8062081,26.3761529 C77.805647,26.5352646 77.84212,26.5805015 78.00204,26.5801719 C80.6338661,26.5745688 83.2657724,26.5839622 85.8975985,26.5687185 C86.3454546,26.5661641 86.6022084,26.9031745 86.5893026,27.2794067 C86.5657354,27.9651281 86.5832905,28.6524151 86.5823286,29.339043 C86.5816873,29.7863028 86.3779196,29.9978201 85.9470575,29.9979025 C82.2463726,29.998232 78.5457679,29.9983144 74.8450831,29.9978201 C74.4373873,29.9978201 74.2055635,29.7553209 74.2054833,29.3294023 C74.2050825,26.2189363 74.2052428,23.1084702 74.2052428,19.9980042 Z M58.0250512,20.0046043 C58.0250512,16.922401 58.0249711,13.8401976 58.0255322,10.7579943 C58.0255322,10.6690038 58.0253719,10.5788597 58.038438,10.4912699 C58.0810032,10.2049347 58.2769152,10.0187138 58.5562742,10.0171482 C59.4177579,10.0122043 60.2792417,10.0120395 61.1407255,10.0164066 C61.4504653,10.0178898 61.692229,10.2754679 61.6968783,10.5980586 C61.7014475,10.9137277 61.6980006,11.2295617 61.6980006,11.5453957 C61.6980006,16.4741524 61.6991228,21.4029915 61.6937521,26.3317482 C61.6935116,26.5226659 61.7268583,26.5824049 61.92758,26.5815809 C64.1646963,26.5730938 66.4018928,26.5761426 68.6390893,26.5763074 C69.0954424,26.5763898 69.3123564,26.7991133 69.3125168,27.2672199 C69.3127572,27.9674435 69.3135588,28.6675847 69.3121961,29.3678083 C69.3113945,29.785899 69.1032981,29.9977459 68.6923959,29.9977459 C65.359968,29.9983227 62.0276201,29.9981579 58.6951921,29.9980755 C58.2189592,29.9979931 58.025452,29.8014723 58.0253719,29.3130956 C58.0248107,26.2102927 58.0250512,23.1074073 58.0250512,20.0046043 Z" id="path-1"/>
    </defs>
    <g id="Logo/Wordmark" stroke="none" stroke-width="1" fill="none" fill-rule="evenodd">
        <mask id="mask-2" fill="white">
            <use xlink:href="#path-1"/>
        </mask>
        <use id="Wordmark" fill="#FFFFFF" xlink:href="#path-1"/>
        <g id="Color/Flat/White/100" mask="url(#mask-2)" fill="#FFFFFF">
            <rect id="Base" x="0" y="0" width="40" height="40"/>
        </g>
    </g>
</svg>