<?xml version="1.0" encoding="UTF-8"?>
<svg width="20px" height="20px" viewBox="0 0 20 20" version="1.1" xmlns="http://www.w3.org/2000/svg" xmlns:xlink="http://www.w3.org/1999/xlink">
    <!-- Generator: Sketch 48.2 (47327) - http://www.bohemiancoding.com/sketch -->
    <title>Linkedin</title>
    <desc>Created with Sketch.</desc>
    <defs></defs>
    <g id="ETHindia-Team" stroke="none" stroke-width="1" fill="none" fill-rule="evenodd" transform="translate(-1159.000000, -991.000000)">
        <path d="M1162,991 C1160.45879,991 1159,992.500213 1159,994 L1159,1008 C1159,1009.58431 1160.48608,1011 1162,1011 L1176,1011 C1177.54244,1011 1179,1009.51647 1179,1008 L1179,994 C1179,992.389053 1177.54472,991 1176,991 L1162,991 Z M1165.11187,1007.69077 L1162.1233,1007.69077 L1162.1233,998.76044 L1165.11187,998.76044 L1165.11187,1007.69077 Z M1163.6178,997.54044 L1163.5978,997.54044 C1162.5956,997.54044 1161.94593,996.854945 1161.94593,995.996923 C1161.94593,995.121538 1162.61473,994.454725 1163.6367,994.454725 C1164.6589,994.454725 1165.28769,995.121319 1165.30747,995.996923 C1165.30747,996.855165 1164.65912,997.54044 1163.6178,997.54044 Z M1175.88505,1007.69077 L1172.89714,1007.69077 L1172.89714,1002.91297 C1172.89714,1001.71209 1172.4644,1000.89319 1171.38396,1000.89319 C1170.55714,1000.89319 1170.06659,1001.44571 1169.85121,1001.97912 C1169.77121,1002.16989 1169.75165,1002.43626 1169.75165,1002.70264 L1169.75165,1007.69077 L1166.76462,1007.69077 C1166.76462,1007.69077 1166.80374,999.597802 1166.76462,998.76022 L1169.75209,998.76022 L1169.75209,1000.02637 C1170.14879,999.418022 1170.85736,998.55011 1172.44418,998.55011 C1174.41055,998.55011 1175.88505,999.825714 1175.88505,1002.57033 L1175.88505,1007.69077 Z M1169.73275,1000.05473 C1169.7378,1000.04637 1169.74527,1000.03626 1169.75209,1000.02659 L1169.75209,1000.05473 L1169.73275,1000.05473 Z" id="Linkedin" fill="#363F47" fill-rule="nonzero"></path>
    </g>
</svg>