<svg width="522" height="117" viewBox="0 0 522 117" fill="none" xmlns="http://www.w3.org/2000/svg">
<path d="M75.3224 112.845V54.684C75.3224 53.4582 74.7461 52.3037 73.7664 51.567L6.24399 0.790088C3.6736 -1.14285 0 0.691016 0 3.90709V112.845C0 114.999 1.74609 116.745 3.9 116.745C6.05391 116.745 7.8 114.999 7.8 112.845V3.90709L1.55601 7.0241L69.0784 57.801L67.5224 54.684V112.845C67.5224 114.998 69.2685 116.745 71.4224 116.745C73.5763 116.745 75.3224 114.998 75.3224 112.845Z" fill="white"/>
<path d="M7.8 112.845V54.684L6.24399 57.801L73.7664 7.0241L67.5224 3.90709V112.845C67.5224 114.999 69.2685 116.745 71.4224 116.745C73.5763 116.745 75.3224 114.999 75.3224 112.845V3.90709C75.3224 0.691016 71.6488 -1.14285 69.0784 0.790088L1.55602 51.567C0.576318 52.3037 0 53.4582 0 54.684V112.845C0 114.998 1.74609 116.745 3.9 116.745C6.05391 116.745 7.8 114.998 7.8 112.845Z" transform="translate(88.2985)" fill="white"/>
<path fill-rule="evenodd" clip-rule="evenodd" d="M4.89653 11.4647L26.9926 47.9071C26.9926 47.9071 27.0064 47.9208 27.0338 47.9482V47.9892C27.0887 48.044 27.1435 48.1125 27.1984 48.1947C27.2532 48.2494 27.3081 48.3042 27.363 48.359C27.4178 48.4138 27.4727 48.4686 27.5276 48.5233C27.6099 48.5781 27.6784 48.6329 27.7333 48.6877C27.8705 48.7699 27.8979 48.7836 27.8156 48.7288C27.843 48.7288 27.8567 48.7425 27.8567 48.7699H27.939C28.0213 48.8246 28.1036 48.8657 28.1859 48.8931C28.2408 48.9205 28.3094 48.9479 28.3917 48.9753C28.4739 49.0027 28.5562 49.0164 28.6385 49.0164C28.6934 49.0438 28.762 49.0574 28.8443 49.0574C28.9266 49.0848 29.0089 49.0985 29.0912 49.0985C29.1735 49.0985 29.2557 49.0848 29.338 49.0574C29.4203 49.0574 29.4889 49.0438 29.5438 49.0164C29.6261 49.0164 29.7084 49.0027 29.7907 48.9753C29.873 48.9479 29.9415 48.9205 29.9964 48.8931C30.0787 48.8657 30.161 48.8246 30.2433 48.7699C30.353 48.7151 30.3942 48.7014 30.3667 48.7288C30.2844 48.7836 30.3119 48.7699 30.449 48.6877C30.5039 48.6329 30.5725 48.5781 30.6548 48.5233C30.7096 48.4686 30.7645 48.4138 30.8193 48.359C30.8468 48.3316 30.9016 48.2768 30.9839 48.1947C31.0388 48.1125 31.0937 48.044 31.1485 47.9892V47.9482C31.176 47.9208 31.1897 47.9071 31.1897 47.9071L53.2858 11.4647V56.5349C53.2858 57.2197 53.519 57.8085 53.9853 58.3016C54.4791 58.7672 55.0551 59 55.7135 59C56.3993 59 56.9753 58.7672 57.4417 58.3016C57.9354 57.8085 58.1823 57.2197 58.1823 56.5349V2.67257C58.1823 1.44002 57.5788 0.659415 56.3718 0.330734C55.1923 0.00205259 54.2733 0.371814 53.615 1.44003L29.0912 41.9087L4.56735 1.44003C3.90899 0.371814 2.99004 0.00205259 1.81048 0.330734C0.603488 0.659415 0 1.44002 0 2.67257V56.5349C0 57.2197 0.233166 57.8085 0.699505 58.3016C1.19327 58.7672 1.78305 59 2.46884 59C3.1272 59 3.70326 58.7672 4.19703 58.3016C4.66337 57.8085 4.89653 57.2197 4.89653 56.5349V11.4647ZM89.7853 40.3064L102.788 8.99965L115.79 40.3064H89.7853ZM80.4037 59C81.501 59 82.2553 58.4933 82.6668 57.4799L87.7691 45.2366H117.807L122.909 57.4799C123.32 58.4933 124.075 59 125.172 59C125.501 59 125.817 58.9315 126.118 58.7946C126.749 58.5481 127.188 58.1098 127.435 57.4799C127.709 56.8499 127.709 56.2199 127.435 55.59L121.716 41.8265V41.7854L105.051 1.64545C104.996 1.5085 104.928 1.35786 104.845 1.19352C104.845 1.22091 104.79 1.16613 104.681 1.02918C104.598 0.919618 104.543 0.851143 104.516 0.823753C104.489 0.823753 104.42 0.768973 104.31 0.659413C104.201 0.577244 104.146 0.536158 104.146 0.536158C103.871 0.344427 103.57 0.221173 103.24 0.166394C103.268 0.166394 103.199 0.166394 103.035 0.166394C102.898 0.139004 102.815 0.125309 102.788 0.125309C102.76 0.125309 102.664 0.139004 102.5 0.166394H102.294C101.992 0.221173 101.704 0.344427 101.43 0.536158C101.457 0.508768 101.403 0.549853 101.265 0.659413C101.156 0.741584 101.087 0.796362 101.06 0.823753C101.032 0.851143 100.977 0.919618 100.895 1.02918C100.785 1.13874 100.73 1.19352 100.73 1.19352C100.648 1.35786 100.58 1.5085 100.525 1.64545L83.8601 41.7854V41.8265L78.1406 55.59C77.8663 56.2199 77.8663 56.8499 78.1406 57.4799C78.3875 58.1098 78.8264 58.5481 79.4573 58.7946C79.7591 58.9315 80.0745 59 80.4037 59ZM149.903 57.8496C150.397 57.384 150.644 56.8088 150.644 56.1241V40.4296L157.968 32.7057L182.286 58.2605C182.78 58.7535 183.37 59 184.056 59C184.714 59 185.276 58.7809 185.743 58.3426C186.236 57.877 186.497 57.3018 186.524 56.6171C186.524 55.9323 186.291 55.3571 185.825 54.8915L161.342 29.1723L185.002 4.35706C185.468 3.86403 185.688 3.27516 185.66 2.5904C185.66 1.93304 185.414 1.37155 184.92 0.905923C184.426 0.440291 183.836 0.207479 183.15 0.207479C182.492 0.234869 181.93 0.495071 181.463 0.988092L150.644 33.363V2.42606C150.644 1.7687 150.397 1.19352 149.903 0.700498C149.437 0.234867 148.861 0.00205431 148.175 0.00205431C147.517 0.00205431 146.941 0.234867 146.447 0.700498C145.981 1.19352 145.747 1.7687 145.747 2.42606V56.1241C145.747 56.8088 145.981 57.384 146.447 57.8496C146.941 58.3426 147.517 58.5891 148.175 58.5891C148.861 58.5891 149.437 58.3426 149.903 57.8496ZM240.553 59C241.239 59 241.815 58.7535 242.281 58.2605C242.775 57.7948 243.022 57.2197 243.022 56.5349C243.022 55.8502 242.775 55.275 242.281 54.8093C241.815 54.3163 241.239 54.0698 240.553 54.0698H210.351V31.9661H232.94C233.626 31.9661 234.202 31.7196 234.669 31.2266C235.162 30.761 235.409 30.1858 235.409 29.501C235.409 28.8163 235.162 28.2411 234.669 27.7755C234.202 27.2824 233.626 27.0359 232.94 27.0359H210.351V4.93224L240.553 5.01441C241.239 5.01441 241.815 4.7816 242.281 4.31597C242.775 3.82295 243.022 3.23407 243.022 2.54932C243.022 1.89196 242.775 1.31677 242.281 0.823753C241.815 0.330731 241.239 0.0842241 240.553 0.0842241L207.882 0.00205431C207.223 -0.0253361 206.647 0.221173 206.154 0.741583C205.66 1.20722 205.413 1.7824 205.413 2.46715V56.5349C205.413 57.2197 205.66 57.7948 206.154 58.2605C206.62 58.7535 207.196 59 207.882 59H240.553ZM292.606 23.7081C290.274 25.8445 287.435 26.9401 284.088 26.9948H267.63V5.01441H283.8C287.202 5.01441 290.11 6.09631 292.524 8.26012C294.938 10.3965 296.145 12.9849 296.145 16.0252C296.145 19.0107 294.965 21.5716 292.606 23.7081ZM265.161 0.166394C264.502 0.166394 263.926 0.399206 263.432 0.864838C262.966 1.33047 262.733 1.90565 262.733 2.5904V56.1651C262.733 56.8225 262.966 57.3977 263.432 57.8907C263.926 58.3563 264.502 58.5891 265.161 58.5891C265.846 58.5891 266.423 58.3563 266.889 57.8907C267.383 57.3977 267.63 56.8225 267.63 56.1651V31.884H281.373L294.087 57.6442C294.526 58.5481 295.253 59 296.268 59C296.652 59 297.009 58.9178 297.338 58.7535C297.941 58.4522 298.353 57.9866 298.572 57.3566C298.792 56.7266 298.751 56.1104 298.449 55.5078L286.722 31.6374C290.809 31.0075 294.197 29.2271 296.885 26.2964C299.628 23.3383 301 19.9146 301 16.0252C301 11.6428 299.327 7.90407 295.98 4.80899C292.606 1.71391 288.546 0.166394 283.8 0.166394H265.161Z" transform="translate(221 29)" fill="white"/>
</svg>
