<svg width="240" height="44" viewBox="0 0 240 44" fill="none" xmlns="http://www.w3.org/2000/svg">
<path d="M10.3926 10.7885L10.3597 5.18269L7.3998 9.74588H5.95272L3.00921 5.33379V10.7885H0V0.211538H2.68033L6.72559 6.31594L10.6722 0.211538H13.3526L13.3855 10.7885H10.3926ZM24.7173 8.73352H19.8498L18.9454 10.7885H15.6237L20.7049 0.211538H23.9115L29.0092 10.7885H25.6217L24.7173 8.73352ZM23.7635 6.52747L22.2835 3.14286L20.8036 6.52747H23.7635ZM33.1198 2.58379H29.5843V0.211538H39.8948V2.58379H36.3758V10.7885H33.1198V2.58379ZM42.4234 0.211538H45.6793V10.7885H42.4234V0.211538ZM55.0503 11C53.8444 11 52.7591 10.7683 51.7944 10.3049C50.8406 9.8315 50.0897 9.17674 49.5415 8.34066C48.9934 7.50458 48.7193 6.55769 48.7193 5.5C48.7193 4.44231 48.9934 3.49542 49.5415 2.65934C50.0897 1.82326 50.8406 1.17353 51.7944 0.710163C52.7591 0.23672 53.8444 0 55.0503 0C56.1027 0 57.051 0.171244 57.8951 0.513735C58.7393 0.856225 59.4409 1.34982 60 1.99451L57.928 3.71703C57.1826 2.89102 56.2781 2.47802 55.2148 2.47802C54.5899 2.47802 54.0308 2.60394 53.5374 2.85577C53.0551 3.1076 52.6769 3.4652 52.4028 3.92857C52.1397 4.38187 52.0081 4.90568 52.0081 5.5C52.0081 6.09432 52.1397 6.62317 52.4028 7.08654C52.6769 7.53984 53.0551 7.8924 53.5374 8.14423C54.0308 8.39606 54.5899 8.52198 55.2148 8.52198C56.2781 8.52198 57.1826 8.10897 57.928 7.28297L60 9.00549C59.4409 9.65018 58.7393 10.1438 57.8951 10.4863C57.051 10.8288 56.1027 11 55.0503 11Z" transform="scale(4)" fill="white"/>
</svg>
