<?xml version="1.0" encoding="UTF-8"?>
<svg width="20px" height="16px" viewBox="0 0 20 16" version="1.1" xmlns="http://www.w3.org/2000/svg" xmlns:xlink="http://www.w3.org/1999/xlink">
    <!-- Generator: Sketch 48.2 (47327) - http://www.bohemiancoding.com/sketch -->
    <title>medium-1</title>
    <desc>Created with Sketch.</desc>
    <defs></defs>
    <g id="ETHindia-Team" stroke="none" stroke-width="1" fill="none" fill-rule="evenodd" transform="translate(-1248.000000, -993.000000)">
        <g id="medium-1" transform="translate(1248.000000, 993.000000)" fill="#363F47" fill-rule="nonzero">
            <path d="M20,2.34057955 L19.2089844,2.34057955 C18.9153125,2.34057955 18.5,2.7655624 18.5,3.03757337 L18.5,12.8981473 C18.5,13.1704718 18.9153125,13.5417734 19.2089844,13.5417734 L20,13.5417734 L20,15.8823529 L12.8333594,15.8823529 L12.8333594,13.5417734 L14.3333594,13.5417734 L14.3333594,3.17643924 L14.2598437,3.17643924 L10.7570313,15.8823529 L8.04515625,15.8823529 L4.5875,3.17643924 L4.5,3.17643924 L4.5,13.5417734 L6,13.5417734 L6,15.8823529 L0,15.8823529 L0,13.5417734 L0.768359375,13.5417734 C1.0846875,13.5417734 1.5,13.1704718 1.5,12.8981473 L1.5,3.037495 C1.5,2.76548404 1.0846875,2.34050118 0.768359375,2.34050118 L0,2.34050118 L0,0 L7.50265625,0 L9.9659375,9.19500519 L10.0339062,9.19500519 L12.5197656,0 L20,0 L20,2.34057955" id="Shape"></path>
        </g>
    </g>
</svg>