<svg width="240" height="50" viewBox="0 0 240 50" fill="none" xmlns="http://www.w3.org/2000/svg">
<path d="M0 0H3.4465L13.3155 15.8295C13.6595 16.3847 13.9736 16.9589 14.2565 17.5497V0H17.5265V22.7061H14.0683L4.23069 6.8766C3.88668 6.32145 3.57253 5.74721 3.28965 5.15643V22.7061H0V0Z" transform="translate(99 12.4539)" fill="white"/>
<path d="M0 0H3.20732V9.66528C3.20732 12.1626 4.46202 13.4942 6.66167 13.4942C8.95539 13.4942 10.7473 11.4705 10.7473 8.69391V0H13.9546V16.0886H10.7473V13.4901C10.2649 14.4358 9.53513 15.2227 8.64098 15.7615C7.74683 16.3003 6.72416 16.5693 5.68927 16.5378C2.63878 16.5378 0 14.591 0 10.3453V0Z" transform="translate(120.483 19.0711)" fill="white"/>
<path d="M20.5183 17.6468C18.2245 21.504 15.6484 23.6128 10.9041 23.6128C4.65022 23.6128 0 18.7558 0 11.8064C0 4.85692 4.96389 0 11.0609 0C15.5543 0 18.9458 2.42847 20.4711 5.86879L17.7696 7.89252C16.2013 4.74765 14.0291 3.18938 11.0139 3.18938C6.86555 3.18938 3.47003 6.83209 3.47003 11.8185C3.47003 16.7483 6.64596 20.4476 10.9825 20.4476C13.935 20.4476 16.2601 18.9865 17.9265 15.7446L20.5183 17.6468Z" transform="translate(137.417 12)" fill="white"/>
<path d="M2.32511 19.5653C2.77218 19.7669 3.25289 19.8769 3.74058 19.8892C4.55612 19.8892 5.05801 19.6301 5.62654 18.169L6.34799 16.1898L0 0H3.67782L8.07711 11.6121L12.445 0H15.9739L8.43392 19.3346C7.43017 21.9614 5.95197 22.9328 4.06601 22.9328C3.2988 22.9326 2.53604 22.8124 1.80363 22.5766L2.32511 19.5653Z" transform="translate(159.217 19.0672)" fill="white"/>
<path d="M0 0.453312H3.2034V2.91819C4.17971 1.32756 6.31662 0 8.73583 0C12.6293 0 15.9307 3.17725 15.9307 8.49962C15.9307 13.7208 12.6293 16.9992 8.45353 16.9992C6.21859 16.9992 4.20717 15.9631 3.2034 14.3401V23.1635H0V0.453312ZM2.99559 8.49962C2.99559 11.7376 5.16386 13.9475 7.83403 13.9475C10.5042 13.9475 12.6724 11.7416 12.6724 8.49962C12.6724 5.25762 10.5042 3.04773 7.83403 3.04773C5.16386 3.04773 2.99559 5.25359 2.99559 8.49962Z" transform="translate(177.478 18.6172)" fill="white"/>
<path d="M14.1389 22.7143H10.9355V12.8547C10.9355 10.5517 9.61413 9.21198 7.47721 9.21198C5.18347 9.21198 3.20339 11.1588 3.20339 14.2065V22.7061H0V0H3.20339V9.30911C3.77464 8.35682 4.56992 7.56911 5.51528 7.01925C6.46061 6.46942 7.52533 6.17529 8.61036 6.16425C11.6569 6.16425 14.1389 8.14345 14.1389 11.8307V22.7143Z" transform="translate(196.294 12.4462)" fill="white"/>
<path d="M3.19162 9.21602C3.31711 12.0695 5.1717 14.1134 7.93596 14.1134C10.4806 14.1134 11.6765 12.6847 12.5862 10.7703L15.0681 12.2961C13.6252 15.3762 11.3589 16.9993 7.84186 16.9993C3.56804 16.9993 0 13.5306 0 8.49963C0 3.46865 3.58372 0 8.01438 0C12.5391 0 15.5582 3.33915 15.5582 8.04227V9.21198L3.19162 9.21602ZM3.19162 6.68638H12.4921C12.2411 4.05959 10.1042 2.66322 7.93596 2.66322C5.59908 2.66322 3.7876 4.35101 3.19162 6.68638Z" transform="translate(212.907 18.6134)" fill="white"/>
<path d="M8.32413 3.30676C7.92864 3.17667 7.51588 3.11111 7.1008 3.11248C4.83842 3.11248 3.20339 5.2212 3.20339 8.07465V16.5419H0V0.453312H3.20339V3.17725C4.05031 1.29518 5.55596 0 7.69678 0C8.09373 0.00537306 8.48862 0.0597222 8.87307 0.161895L8.32413 3.30676Z" transform="translate(231.127 18.6172)" fill="white"/>
<path d="M59.263 0.0261261L52.8027 3.08761C52.7699 3.10309 52.7404 3.12488 52.7159 3.15175C52.6916 3.17864 52.6727 3.21005 52.6604 3.24423C52.6482 3.27838 52.6428 3.31464 52.6446 3.35088C52.6464 3.38713 52.6554 3.42265 52.6709 3.45544L62.4963 24.1423C66.1471 31.838 65.1693 37.6757 59.6185 40.3138C55.1264 42.4431 51.2488 40.9575 48.2233 35.7699L36.59 11.2748C31.8726 1.34521 25.4472 -1.28662 17.825 2.32501C12.8663 4.67464 9.99011 8.87448 10.0473 14.2047C10.0484 14.2676 10.0279 14.3291 9.98913 14.3789C9.95042 14.4286 9.89584 14.4636 9.83445 14.4781C9.77307 14.4925 9.70859 14.4856 9.65172 14.4583C9.59486 14.4312 9.54903 14.3853 9.52186 14.3283L6.98219 8.98387C6.96671 8.95104 6.94488 8.92161 6.91794 8.89726C6.89099 8.87292 6.85948 8.85416 6.82523 8.84207C6.79098 8.82998 6.75467 8.8248 6.71841 8.82682C6.68213 8.82884 6.64662 8.83804 6.61393 8.85387L0.15522 11.9058C0.0904558 11.9371 0.0405418 11.9924 0.0162037 12.06C-0.00813446 12.1276 -0.00495423 12.202 0.0250609 12.2673L17.8662 49.8423C17.8979 49.9083 17.9543 49.9591 18.0232 49.9838C18.0923 50.0084 18.1682 50.0048 18.2346 49.9739L24.6948 46.9124C24.7277 46.8969 24.7572 46.8751 24.7817 46.8483C24.806 46.8214 24.8249 46.79 24.8371 46.7558C24.8494 46.7217 24.8547 46.6854 24.8529 46.6491C24.8511 46.6128 24.8422 46.5774 24.8266 46.5445L15.2758 26.4364C11.3853 18.2428 12.1234 12.3181 18.0886 9.49122C22.6663 7.32233 26.225 8.78094 29.4203 14.338C29.4246 14.3444 29.4283 14.3513 29.4314 14.3586L40.9504 38.6158C45.3948 47.9699 52.2979 51.182 59.5884 47.7273C65.2233 45.0575 67.5598 41.0384 67.4232 35.7524C67.4218 35.6893 67.442 35.6277 67.4807 35.5775C67.5192 35.5275 67.5738 35.4924 67.6353 35.4777C67.6968 35.463 67.7615 35.4698 67.8185 35.4971C67.8755 35.5243 67.9214 35.5702 67.9487 35.6273L70.5137 41.0289C70.5293 41.0616 70.5511 41.0911 70.578 41.1155C70.6049 41.1398 70.6364 41.1587 70.6706 41.171C70.7048 41.1832 70.741 41.1885 70.7773 41.1868C70.8136 41.1849 70.8492 41.1759 70.882 41.1604L77.3423 38.0989C77.3752 38.0834 77.4047 38.0616 77.429 38.0348C77.4534 38.0079 77.4721 37.9763 77.4843 37.9421C77.4964 37.9079 77.5016 37.8717 77.4996 37.8354C77.4976 37.7992 77.4883 37.7638 77.4724 37.7312L59.6312 0.157718C59.5996 0.0917181 59.5431 0.0408598 59.4742 0.0162148C59.4053 -0.00843049 59.3294 -0.00486786 59.263 0.0261261Z" fill="white"/>
</svg>
