<?xml version="1.0" encoding="UTF-8"?>
<svg width="153px" height="29px" viewBox="0 0 153 29" version="1.1" xmlns="http://www.w3.org/2000/svg" xmlns:xlink="http://www.w3.org/1999/xlink">
    <!-- Generator: Sketch 51.2 (57519) - http://www.bohemiancoding.com/sketch -->
    <title>logo-website-dc3b71626c62e8a01d8767a293e104e968c43940060c9a0f7ca2d5e258c29def</title>
    <desc>Created with Sketch.</desc>
    <defs></defs>
    <g id="Page-1" stroke="none" stroke-width="1" fill="none" fill-rule="evenodd">
        <g id="logo-website-dc3b71626c62e8a01d8767a293e104e968c43940060c9a0f7ca2d5e258c29def" fill="#FFFFFF" fill-rule="nonzero">
            <path d="M25.3596408,14.8596911 C25.3607654,12.6642209 24.7224811,10.5159431 23.5227523,8.67726366 L27.9814822,4.21853388 L24.6325135,0.86956522 L20.1774748,5.328295 C16.4196811,2.87767372 11.5691831,2.87767372 7.81138945,5.328295 L3.34896866,0.86956522 L4.4408921e-16,4.21853388 L4.45872978,8.67726366 C2.0081085,12.4350573 2.0081085,17.2855554 4.45872978,21.0433489 L0,25.5020787 L3.34896866,28.8510474 L7.80769845,24.3923176 C11.5654921,26.8429388 16.4159901,26.8429388 20.1737837,24.3923176 L24.6325135,28.8510474 L27.9814822,25.5020787 L23.5227523,21.04704 C24.7233978,19.2069579 25.3617219,17.0568363 25.3596408,14.8596911 Z M7.35862661,14.8596911 C7.3533992,12.1514715 8.99520234,9.71209045 11.5061346,8.69734908 C14.0170669,7.68260772 16.8927265,8.29634959 18.7705997,10.2477782 C20.6484726,12.1992068 21.1513279,15.0963146 20.0409077,17.5664256 L15.6658406,13.1852068 L12.3156416,16.5354058 L16.691939,20.9104729 C14.6415347,21.8322753 12.2634214,21.6503745 10.377066,20.4274514 C8.49071069,19.2045282 7.35399884,17.1077695 7.35862661,14.8596911 Z" id="Shape"></path>
            <g id="Group" transform="translate(35.000000, 7.000000)">
                <path d="M14.443862,7.9940698 C14.443862,10.7293059 13.0572493,13.1986163 10.5879389,14.338298 L11.8985729,16.0478206 L9.2013261,17.4154387 L7.3968301,15.0221071 L7.339846,15.0221071 C2.8760926,15.0221071 0.23583,11.7740142 0.23583,7.9940698 C0.23583,4.2141255 2.8760926,0.96603261 7.339846,0.96603261 C11.8035994,0.96603261 14.443862,4.2141255 14.443862,7.9940698 Z M7.339846,12.2678763 C9.8661405,12.2678763 11.2337585,10.3114226 11.2337585,7.9940698 C11.2337585,5.676717 9.8661405,3.7202634 7.339846,3.7202634 C4.7945569,3.7202634 3.4269388,5.676717 3.4459335,7.9940698 C3.4269388,10.3114226 4.7945569,12.2678763 7.339846,12.2678763 Z M19.4204722,14.8891442 C17.2170875,14.8891442 16.0394164,13.5215261 16.0394164,11.1471892 L16.0394164,5.4867701 L18.9835942,5.4867701 L18.9835942,10.5013696 C18.9835942,11.7550195 19.4014775,12.4388285 20.5031698,12.4388285 C21.737825,12.4388285 22.2696764,11.6410513 22.2696764,10.4063961 L22.2696764,5.4867701 L25.1568701,5.4867701 L25.1568701,14.6422132 L22.2696764,14.6422132 L22.2696764,13.3315792 C21.7568197,14.3003086 20.8070849,14.8891442 19.4204722,14.8891442 Z M31.2161779,14.8891442 C28.4809418,14.8891442 26.9043821,12.8187224 26.9043821,10.0644916 C26.9043821,7.3292555 28.5949099,5.239839 31.2541673,5.239839 C32.5837959,5.239839 33.6285042,5.866664 34.1223662,6.797404 L34.1223662,5.4867701 L37.0095599,5.4867701 L37.0095599,14.6422132 L34.1223662,14.6422132 L34.1223662,13.3505739 C33.6285042,14.2623193 32.4888225,14.8891442 31.2161779,14.8891442 Z M32.0519445,12.4768179 C33.4955413,12.4768179 34.2363344,11.3941203 34.2363344,10.0644916 C34.2363344,8.7538576 33.4955413,7.67116 32.0519445,7.67116 C30.7033211,7.67116 29.8675545,8.6778789 29.8675545,10.0644916 C29.8675545,11.4511044 30.7033211,12.4768179 32.0519445,12.4768179 Z M39.4218862,5.4867701 L42.3280746,5.4867701 L42.3280746,6.8163987 C42.859926,5.7906852 43.9046343,5.239839 45.291247,5.239839 C47.5136264,5.239839 48.6343134,6.4934889 48.6343134,8.981794 L48.6343134,14.6422132 L45.7091303,14.6422132 L45.7091303,9.9315287 C45.7091303,8.3929584 45.2722523,7.6901547 44.0945812,7.6901547 C42.9359048,7.6901547 42.3280746,8.4499425 42.3280746,9.85555 L42.3280746,14.6422132 L39.4218862,14.6422132 L39.4218862,5.4867701 Z M55.7573241,12.3818444 C56.1182233,12.3818444 56.4981172,12.3628497 56.7640429,12.3248603 L56.7640429,14.6422132 C56.3461596,14.7181919 55.6623506,14.7941707 54.826584,14.7941707 C53.458966,14.7941707 51.5784911,14.4902556 51.5784911,11.4321097 L51.5784911,7.7851282 L50.1348943,7.7851282 L50.1348943,5.4867701 L51.5784911,5.4867701 L51.5784911,2.77052865 L54.4846795,2.77052865 L54.4846795,5.4867701 L56.5551013,5.4867701 L56.5551013,7.7851282 L54.4846795,7.7851282 L54.4846795,10.8242794 C54.4846795,12.1729028 55.0355257,12.3818444 55.7573241,12.3818444 Z M62.1015523,14.9271336 C59.4233003,14.9271336 57.7707618,13.6164996 57.7707618,11.8879824 L60.6579554,11.8879824 C60.6579554,12.5148073 61.2657857,12.97068 62.1585364,12.97068 C62.7853613,12.97068 63.2222393,12.6477702 63.2222393,12.1159187 C63.2222393,11.7550195 63.051287,11.4511044 62.557425,11.3371362 L60.3160509,10.7672953 C58.7964753,10.3874014 58.0176928,9.4376667 58.0176928,8.1270327 C58.0176928,6.4175101 59.5182737,5.2208443 61.9306,5.2208443 C64.608852,5.2208443 66.014459,6.3415314 66.014459,8.0700486 L63.1462605,8.0700486 C63.1462605,7.424229 62.6713931,7.0633298 61.8926106,7.0633298 C61.2657857,7.0633298 60.8479024,7.3672449 60.8479024,7.8231176 C60.8479024,8.2410009 61.1328228,8.5069266 61.6266849,8.6398895 L63.7920802,9.228725 C65.197688,9.6086189 66.109433,10.4633802 66.109433,11.7740142 C66.109433,13.654489 64.608852,14.9271336 62.1015523,14.9271336 Z M72.719587,12.3818444 C73.080486,12.3818444 73.46038,12.3628497 73.726306,12.3248603 L73.726306,14.6422132 C73.308422,14.7181919 72.624613,14.7941707 71.788847,14.7941707 C70.421229,14.7941707 68.540754,14.4902556 68.540754,11.4321097 L68.540754,7.7851282 L67.097157,7.7851282 L67.097157,5.4867701 L68.540754,5.4867701 L68.540754,2.77052865 L71.446942,2.77052865 L71.446942,5.4867701 L73.517364,5.4867701 L73.517364,7.7851282 L71.446942,7.7851282 L71.446942,10.8242794 C71.446942,12.1729028 71.997788,12.3818444 72.719587,12.3818444 Z M79.04482,14.8891442 C76.309584,14.8891442 74.733025,12.8187224 74.733025,10.0644916 C74.733025,7.3292555 76.423552,5.239839 79.08281,5.239839 C80.412438,5.239839 81.457147,5.866664 81.951009,6.797404 L81.951009,5.4867701 L84.838202,5.4867701 L84.838202,14.6422132 L81.951009,14.6422132 L81.951009,13.3505739 C81.457147,14.2623193 80.317465,14.8891442 79.04482,14.8891442 Z M79.880587,12.4768179 C81.324184,12.4768179 82.064977,11.3941203 82.064977,10.0644916 C82.064977,8.7538576 81.324184,7.67116 79.880587,7.67116 C78.531964,7.67116 77.696197,8.6778789 77.696197,10.0644916 C77.696197,11.4511044 78.531964,12.4768179 79.880587,12.4768179 Z M87.250529,5.4867701 L90.156717,5.4867701 L90.156717,6.8163987 C90.555606,5.9046534 91.50534,5.239839 92.777985,5.239839 C94.411529,5.239839 95.247295,5.9616374 95.646184,6.9303669 C96.140046,5.9426428 97.222744,5.239839 98.571367,5.239839 C101.192635,5.239839 101.81946,7.0443351 101.81946,8.9627993 L101.81946,14.6422132 L98.894277,14.6422132 L98.894277,9.4946508 C98.894277,8.2220062 98.41941,7.6901547 97.526659,7.6901547 C96.614913,7.6901547 95.988089,8.2030115 95.988089,9.9315287 L95.988089,14.6422132 L93.062905,14.6422132 L93.062905,9.4756561 C93.062905,8.2030115 92.607033,7.6901547 91.714282,7.6901547 C90.783542,7.6901547 90.156717,8.2030115 90.156717,9.9315287 L90.156717,14.6422132 L87.250529,14.6422132 L87.250529,5.4867701 Z M104.117818,5.4867701 L107.024006,5.4867701 L107.024006,6.797404 C107.498874,5.9236481 108.638556,5.239839 110.006174,5.239839 C112.513473,5.239839 114.222996,7.1772979 114.222996,10.0644916 C114.222996,12.9326906 112.456489,14.8891442 109.930195,14.8891442 C108.581571,14.8891442 107.479879,14.2053352 107.024006,13.3505739 L107.024006,18.4411522 L104.117818,18.4411522 L104.117818,5.4867701 Z M109.094428,12.4768179 C110.367073,12.4768179 111.259823,11.4890938 111.259823,10.0644916 C111.259823,8.6588842 110.367073,7.67116 109.094428,7.67116 C107.783794,7.67116 106.891044,8.6398895 106.891044,10.0644916 C106.891044,11.5080884 107.802789,12.4768179 109.094428,12.4768179 Z" id="Shape"></path>
                <path d="M114.57371,6.5421716 L114.57371,4.8671716 L114.10871,4.8671716 L114.10871,4.5071716 L115.44871,4.5071716 L115.44871,4.8671716 L114.97871,4.8671716 L114.97871,6.5421716 L114.57371,6.5421716 Z M115.71871,6.5421716 L115.71871,4.5071716 L116.39871,4.5071716 L116.80871,5.8371716 L117.21371,4.5071716 L117.89371,4.5071716 L117.89371,6.5421716 L117.49371,6.5421716 L117.49371,4.9121716 L116.98371,6.5421716 L116.62871,6.5421716 L116.11871,4.9121716 L116.11871,6.5421716 L115.71871,6.5421716 Z" id="Shape"></path>
            </g>
        </g>
    </g>
</svg>