<?xml version="1.0" encoding="UTF-8"?>
<svg width="553px" height="367px" viewBox="0 0 553 367" version="1.1" xmlns="http://www.w3.org/2000/svg" xmlns:xlink="http://www.w3.org/1999/xlink">
    <!-- Generator: Sketch 48.2 (47327) - http://www.bohemiancoding.com/sketch -->
    <title>Ripple Effect</title>
    <desc>Created with Sketch.</desc>
    <defs></defs>
    <g id="ETHindia-Team" stroke="none" stroke-width="1" fill="none" fill-rule="evenodd" transform="translate(-407.000000, -726.000000)">
        <g id="Ripple-Effect" transform="translate(408.000000, 727.000000)">
            <circle id="Oval" fill="#2D313B" cx="275" cy="274" r="33"></circle>
            <g id="ETH-Logo-Mini" transform="translate(263.000000, 255.000000)">
                <path d="M11.606687,14.635513 L0.0018173913,19.9109043 L11.606687,26.7723826 L23.2132087,19.9109043 L11.606687,14.635513 Z M11.606687,16.4496 L19.6428609,20.1025565 L11.606687,24.8525565 L3.57216522,20.1025565 L11.606687,16.4496 Z" id="Fill-12" fill="#FFFFFF"></path>
                <path d="M11.606687,9.1716087 L4.67086087,12.3239565 L11.606687,16.4246522 L18.542513,12.3239565 L11.606687,9.1716087 Z M11.606687,10.9873478 L14.9721652,12.5156087 L11.606687,14.5064783 L8.2412087,12.5156087 L11.606687,10.9873478 Z" id="Fill-13" fill="#FFFFFF"></path>
                <path d="M11.606687,0.651843478 L0.0018173913,19.9112348 L11.606687,26.772713 L11.606687,14.6358435 L11.606687,0.651843478 Z M9.95451304,6.59471304 L9.95451304,14.6358435 L9.95451304,23.8764522 L2.27686087,19.3362783 L9.95451304,6.59471304 Z" id="Fill-14" fill="#86868C"></path>
                <path d="M11.606687,0.651843478 L11.606687,14.6358435 L11.606687,26.772713 L23.2132087,19.9112348 L11.606687,0.651843478 Z M13.2588609,6.59471304 L20.9381652,19.3362783 L13.2588609,23.8764522 L13.2588609,14.6358435 L13.2588609,6.59471304 Z" id="Fill-15" fill="#FFFFFF"></path>
                <path d="M-0.000495652174,22.1122609 L11.6060261,38.4687826 L11.6060261,28.9687826 L-0.000495652174,22.1122609 Z M5.83167826,27.4768696 L9.95385217,29.9121739 L9.95385217,33.285913 L5.83167826,27.4768696 Z" id="Fill-16" fill="#86868C"></path>
                <path d="M23.220313,22.1122609 L11.6071826,28.9687826 L11.6071826,38.4687826 L23.220313,22.1122609 Z M23.220313,22.1122609 L23.2285739,22.1122609 L23.220313,22.1122609 Z M17.3881391,27.4768696 L13.2610087,33.2875652 L13.2610087,29.9121739 L17.3881391,27.4768696 Z" id="Fill-17" fill="#FFFFFF"></path>
                <polygon id="Fill-18" fill="#86868C" points="11.606687 24.8527217 11.606687 24.8527217 3.57216522 20.1027217 11.606687 16.4497652 11.606687 14.6356783 11.606687 14.6356783 0.0018173913 19.9110696 11.606687 26.7725478 11.606687 26.7725478"></polygon>
                <polygon id="Fill-19" fill="#86868C" points="11.606687 16.4248174 11.606687 14.5066435 8.2412087 12.5157739 11.606687 10.987513 11.606687 9.17177391 4.67086087 12.3241217"></polygon>
            </g>
            <circle id="Oval-Copy" stroke="#2D313B" opacity="0.9" cx="275" cy="274" r="58"></circle>
            <circle id="Oval-Copy-2" stroke="#2D313B" opacity="0.8" cx="275.5" cy="274.5" r="85.5"></circle>
            <circle id="Oval-Copy-3" stroke="#2D313B" opacity="0.7" cx="275.5" cy="274.5" r="111.5"></circle>
            <circle id="Oval-Copy-4" stroke="#2D313B" opacity="0.6" cx="275.5" cy="274.5" r="136.5"></circle>
            <circle id="Oval-Copy-5" stroke="#2D313B" opacity="0.5" cx="276" cy="275" r="162"></circle>
            <circle id="Oval-Copy-6" stroke="#2D313B" opacity="0.4" cx="276" cy="275" r="187"></circle>
            <circle id="Oval-Copy-7" stroke="#2D313B" opacity="0.3" cx="276.5" cy="275.5" r="214.5"></circle>
            <circle id="Oval-Copy-8" stroke="#2D313B" opacity="0.2" cx="275.5" cy="275.5" r="245.5"></circle>
            <circle id="Oval-Copy-9" stroke="#2D313B" opacity="0.1" cx="275.5" cy="275.5" r="275.5"></circle>
        </g>
    </g>
</svg>