<?xml version="1.0" encoding="UTF-8"?>
<svg width="20px" height="20px" viewBox="0 0 20 20" version="1.1" xmlns="http://www.w3.org/2000/svg" xmlns:xlink="http://www.w3.org/1999/xlink">
    <!-- Generator: Sketch 48.2 (47327) - http://www.bohemiancoding.com/sketch -->
    <title>Slack</title>
    <desc>Created with Sketch.</desc>
    <defs></defs>
    <g id="ETHindia-Team" stroke="none" stroke-width="1" fill="none" fill-rule="evenodd" transform="translate(-1189.000000, -991.000000)">
        <g id="Group-2" transform="translate(1068.000000, 991.000000)" fill-rule="nonzero">
            <g id="Slack" transform="translate(121.000000, 0.000000)">
                <g id="surface1">
                    <path d="M13.2682927,3.2204878 L10.0497561,4.3404878 L9.36536585,2.24487805 C9.07414634,1.36585366 9.51219512,0.390243902 10.4390244,0.0970731707 C11.3170732,-0.194146341 12.2926829,0.243902439 12.5863415,1.1702439 L13.2682927,3.2204878 Z M12.2926829,11.0253659 L15.5121951,9.90292683 L14.3902439,6.43853659 L11.1697561,7.56097561 L12.2926829,11.0253659 Z M13.9517073,16 C14.1956098,16.6819512 14.877561,17.1697561 15.5595122,17.1697561 C15.7560976,17.1697561 15.9502439,17.122439 16.0970732,17.0726829 C16.975122,16.7790244 17.4629268,15.8034146 17.1702439,14.9273171 L16.5853659,13.1707317 L13.364878,14.2926829 L13.9517073,16 Z" id="Shape" fill="#00A7D3"></path>
                    <path d="M6.43902439,5.6097561 L3.2204878,6.73170732 L2.53609756,4.68390244 C2.24487805,3.80487805 2.68292683,2.82926829 3.6097561,2.53609756 C4.48780488,2.24487805 5.46341463,2.68292683 5.75707317,3.60926829 L6.43902439,5.6097561 Z M7.12292683,18.4390244 C7.36682927,19.1219512 8.04878049,19.6097561 8.73073171,19.6097561 C8.92731707,19.6097561 9.12146341,19.5619512 9.26829268,19.5121951 C10.1463415,19.2185366 10.6341463,18.2429268 10.3414634,17.3668293 L9.75609756,15.56 L6.53560976,16.6829268 L7.12292683,18.4390244 Z M7.51121951,8.87804878 L4.29317073,10 L5.41512195,13.4643902 L8.63414634,12.3414634 L7.51121951,8.87804878 Z" id="Shape" fill="#00A7D3"></path>
                    <path d="M14.3404878,6.48780488 L13.2682927,3.26829268 L15.2692683,2.58536585 C16.1473171,2.29268293 17.1229268,2.73268293 17.4146341,3.65853659 C17.7082927,4.53658537 17.2682927,5.51219512 16.3419512,5.80390244 L14.3404878,6.48780488 Z M11.122439,7.61073171 L10.0487805,4.3902439 L6.43902439,5.6595122 L7.51219512,8.87756098 L11.122439,7.61073171 Z M1.1697561,7.46341463 C0.293658537,7.75463415 -0.194146341,8.7302439 0.0970731707,9.60878049 C0.328307604,10.3034425 0.975212534,10.7745602 1.70731707,10.7814634 C1.90146341,10.7814634 2.09756098,10.7317073 2.24487805,10.6819512 L4.24341463,10 L3.17073171,6.7795122 L1.1697561,7.46341463 Z" id="Shape" fill="#00A7D3"></path>
                    <path d="M5.41560976,13.4146341 L6.48829268,16.635122 L4.19560976,17.4141463 C3.9995122,17.4639024 3.80536585,17.5117073 3.65853659,17.5117073 C2.92682927,17.5117073 2.29268293,17.0731707 2.04878049,16.3414634 C1.75707317,15.4634146 2.19512195,14.4878049 3.12097561,14.1960976 L5.41560976,13.4146341 Z M19.3653659,10.3902439 C19.0741463,9.51219512 18.0985366,9.02439024 17.22,9.31804878 L15.5121951,9.90243902 L16.5853659,13.1707317 L18.342439,12.5853659 C19.2185366,12.244878 19.7063415,11.2692683 19.3653659,10.3902439 Z M8.63365854,12.2926829 L9.70682927,15.5121951 L13.317561,14.2439024 L12.2443902,11.0253659 L8.63365854,12.2926829 Z" id="Shape" fill="#00A7D3"></path>
                    <polygon id="Shape" fill="#4CCDEF" points="14.3404878 6.48780488 13.2682927 3.22097561 10.0502439 4.34097561 11.1229268 7.61121951"></polygon>
                    <polygon id="Shape" fill="#4CCDEF" points="6.43902439 5.6097561 3.2204878 6.73170732 4.29317073 10 7.51121951 8.87804878"></polygon>
                    <polygon id="Shape" fill="#4CCDEF" points="12.2926829 11.0253659 13.364878 14.2931707 16.5853659 13.1707317 15.5121951 9.90243902"></polygon>
                    <polygon id="Shape" fill="#4CCDEF" points="5.41560976 13.4146341 6.48829268 16.6829268 9.70634146 15.56 8.63414634 12.2926829"></polygon>
                </g>
            </g>
        </g>
    </g>
</svg>