<svg width="330" height="124" viewBox="0 0 330 124" fill="none" xmlns="http://www.w3.org/2000/svg">
<path fill-rule="evenodd" clip-rule="evenodd" d="M72.458 61.249C65.027 61.676 60.37 59.95 52.938 60.378C51.0947 60.4812 49.2642 60.7476 47.468 61.174C48.565 47.47 58.292 35.482 71.519 34.72C79.636 34.253 87.749 39.25 88.189 47.362C88.622 55.335 82.525 60.669 72.459 61.248L72.458 61.249ZM52.503 89.28C44.727 89.718 36.956 85.04 36.534 77.449C36.119 69.987 41.961 64.995 51.604 64.453C58.722 64.053 63.184 65.669 70.302 65.268C72.0669 65.1715 73.8201 64.9223 75.542 64.523C74.493 77.348 65.175 88.568 52.503 89.28ZM62 0.000999987C27.758 -1.29221e-08 0 27.677 0 61.82C0 95.963 27.758 123.64 62 123.64C96.242 123.64 124 95.962 124 61.82C124 27.678 96.242 0 62 0" fill="white"/>
<path fill-rule="evenodd" clip-rule="evenodd" d="M0 29.445H9.464C9.464 30.834 9.91601 31.831 10.82 32.436C11.725 33.041 12.886 33.344 14.304 33.344C15.476 33.344 16.436 33.146 17.187 32.748C17.937 32.35 18.312 31.698 18.312 30.79C18.312 30.254 18.152 29.814 17.834 29.472C17.515 29.13 17.027 28.824 16.369 28.556C15.5418 28.2275 14.7022 27.9312 13.852 27.668L10.142 26.488C8.91089 26.0919 7.69262 25.6571 6.489 25.184C5.349 24.734 4.34699 24.172 3.48399 23.501C2.63364 22.8468 1.94295 22.008 1.464 21.048C0.981005 20.084 0.740005 18.889 0.740005 17.464C0.740005 15.828 1.05901 14.414 1.69501 13.218C2.33022 12.0253 3.25226 11.0095 4.37801 10.262C5.52801 9.486 6.906 8.904 8.508 8.517C10.112 8.129 11.879 7.935 13.811 7.935C16.175 7.935 18.209 8.207 19.915 8.752C21.62 9.298 23.018 10.042 24.108 10.985C25.196 11.929 26.003 13.04 26.528 14.319C27.052 15.598 27.314 16.971 27.314 18.439H17.788C17.788 17.159 17.464 16.164 16.816 15.451C16.169 14.738 15.188 14.381 13.873 14.381C12.866 14.381 12.003 14.607 11.283 15.058C10.563 15.508 10.204 16.185 10.204 17.086C10.204 17.691 10.374 18.176 10.714 18.54C11.054 18.904 11.553 19.233 12.211 19.524C12.871 19.816 13.683 20.119 14.651 20.431L17.977 21.507C19.332 21.863 20.596 22.257 21.767 22.692C22.937 23.127 23.97 23.656 24.863 24.278C25.7427 24.8838 26.4706 25.6846 26.99 26.618C27.514 27.556 27.776 28.747 27.776 30.188C27.776 32.091 27.406 33.711 26.666 35.049C25.9498 36.3602 24.9296 37.4806 23.691 38.316C22.448 39.156 21.004 39.759 19.36 40.124C17.716 40.489 15.99 40.671 14.181 40.671C9.681 40.671 6.191 39.712 3.715 37.794C1.238 35.876 0 33.092 0 29.444V29.445ZM28.768 16.506V9.195H33.468V0H43.022V9.195H49.859V16.507H43.022V27.522C43.022 28.666 43.124 29.576 43.327 30.252C43.53 30.928 43.82 31.459 44.197 31.843C44.5688 32.2258 45.0478 32.4869 45.571 32.592C46.1687 32.7122 46.7774 32.7695 47.387 32.763C47.793 32.763 48.313 32.748 48.944 32.716C49.574 32.686 50.124 32.628 50.592 32.544V40.164C49.7063 40.3135 48.8154 40.4299 47.921 40.513C46.853 40.619 45.596 40.672 44.151 40.672C42.9641 40.667 41.7789 40.5835 40.603 40.422C39.363 40.2559 38.1785 39.804 37.143 39.102C36.081 38.392 35.203 37.298 34.51 35.824C33.815 34.349 33.468 32.324 33.468 29.751V16.506H28.768V16.506ZM62.491 25.279C62.491 26.352 62.676 27.378 63.045 28.357C63.413 29.335 63.92 30.177 64.562 30.882C65.2178 31.5964 66.0069 32.1756 66.885 32.587C67.791 33.019 68.803 33.234 69.92 33.234C71.036 33.234 72.054 33.019 72.97 32.587C73.888 32.155 74.667 31.587 75.31 30.882C75.953 30.178 76.458 29.342 76.827 28.372C77.1997 27.3837 77.3875 26.3352 77.381 25.279C77.3876 24.2432 77.1997 23.2154 76.827 22.249C76.4724 21.325 75.959 20.4702 75.31 19.723C74.6671 18.9866 73.8753 18.395 72.987 17.987C72.08 17.567 71.057 17.356 69.92 17.356C68.803 17.356 67.791 17.566 66.885 17.986C65.9966 18.3944 65.2049 18.9864 64.562 19.723C63.9131 20.4703 63.3998 21.3251 63.045 22.249C62.6723 23.2154 62.4843 24.2432 62.491 25.279V25.279ZM52.576 25.279C52.576 22.943 52.952 20.775 53.705 18.776C54.457 16.776 55.505 15.056 56.852 13.615C58.1896 12.1794 59.7924 11.0164 61.572 10.19C63.374 9.348 65.324 8.927 67.423 8.927C69.762 8.927 71.791 9.422 73.508 10.41C75.226 11.4 76.517 12.652 77.381 14.167V9.716H87.296V40.874H77.381V36.485C76.601 37.915 75.346 39.136 73.619 40.146C71.891 41.156 69.825 41.662 67.423 41.662C65.346 41.662 63.401 41.241 61.589 40.399C59.7995 39.5739 58.1899 38.4047 56.852 36.958C55.506 35.506 54.457 33.781 53.705 31.781C52.952 29.782 52.576 27.614 52.576 25.278V25.279ZM89.28 16.505V9.195H93.98V0H103.534V9.195H110.371V16.507H103.534V27.522C103.534 28.666 103.636 29.576 103.839 30.252C104.042 30.928 104.332 31.459 104.709 31.843C105.081 32.2258 105.56 32.4869 106.083 32.592C106.681 32.7123 107.289 32.7696 107.899 32.763C108.305 32.763 108.825 32.748 109.456 32.716C110.086 32.686 110.636 32.628 111.104 32.544V40.164C110.218 40.3135 109.327 40.4299 108.433 40.513C107.365 40.619 106.108 40.672 104.663 40.672C103.476 40.667 102.291 40.5835 101.115 40.422C99.875 40.2559 98.6905 39.804 97.655 39.102C96.593 38.392 95.715 37.298 95.022 35.824C94.327 34.349 93.98 32.324 93.98 29.751V16.506H89.28V16.505ZM115.072 27.307V8.927H124.795V24.799C124.795 27.016 125.187 28.819 125.972 30.21C126.756 31.6 128.16 32.296 130.184 32.296C132.208 32.296 133.701 31.59 134.661 30.178C135.621 28.767 136.101 26.859 136.101 24.454V8.927H145.824V39.887H136.101V35.464C135.255 37.095 133.964 38.371 132.229 39.291C130.495 40.211 128.419 40.671 126.003 40.671C123.879 40.671 122.136 40.336 120.772 39.667C119.408 38.998 118.299 38.152 117.445 37.127C116.467 35.934 115.827 34.554 115.525 32.987C115.223 31.417 115.072 29.525 115.072 27.308V27.307ZM149.792 29.445H159.256C159.256 30.834 159.708 31.831 160.612 32.436C161.516 33.041 162.678 33.344 164.096 33.344C165.268 33.344 166.228 33.146 166.978 32.748C167.728 32.35 168.104 31.698 168.104 30.79C168.104 30.254 167.944 29.814 167.626 29.472C167.307 29.13 166.819 28.824 166.161 28.556C165.334 28.2275 164.494 27.9313 163.644 27.668L159.934 26.488C158.703 26.0919 157.485 25.657 156.281 25.184C155.141 24.734 154.138 24.172 153.276 23.501C152.426 22.8469 151.735 22.0081 151.256 21.048C150.773 20.084 150.532 18.889 150.532 17.464C150.532 15.828 150.85 14.414 151.487 13.218C152.122 12.0253 153.044 11.0095 154.17 10.262C155.32 9.486 156.698 8.904 158.3 8.517C159.903 8.129 161.67 7.935 163.603 7.935C165.966 7.935 168.001 8.207 169.707 8.752C171.412 9.298 172.81 10.042 173.9 10.985C174.988 11.929 175.795 13.04 176.32 14.319C176.843 15.598 177.106 16.971 177.106 18.439H167.58C167.58 17.159 167.256 16.164 166.608 15.451C165.961 14.738 164.979 14.381 163.664 14.381C162.657 14.381 161.794 14.607 161.074 15.058C160.355 15.508 159.996 16.185 159.996 17.086C159.996 17.691 160.166 18.176 160.506 18.54C160.846 18.904 161.344 19.233 162.003 19.524C162.663 19.816 163.474 20.119 164.442 20.431L167.769 21.507C169.051 21.8397 170.316 22.2351 171.559 22.692C172.729 23.127 173.762 23.656 174.655 24.278C175.535 24.8839 176.263 25.6847 176.782 26.618C177.306 27.556 177.568 28.747 177.568 30.188C177.568 32.091 177.198 33.711 176.458 35.049C175.742 36.3604 174.722 37.4808 173.483 38.316C172.24 39.156 170.796 39.759 169.152 40.124C167.507 40.489 165.782 40.671 163.973 40.671C159.473 40.671 155.983 39.712 153.507 37.794C151.03 35.876 149.792 33.092 149.792 29.444" transform="translate(152 41.485)" fill="white"/>
</svg>
