<?xml version="1.0" encoding="UTF-8"?>
<svg width="20px" height="20px" viewBox="0 0 20 20" version="1.1" xmlns="http://www.w3.org/2000/svg" xmlns:xlink="http://www.w3.org/1999/xlink">
    <!-- Generator: Sketch 48.2 (47327) - http://www.bohemiancoding.com/sketch -->
    <title>Combined Shape Copy 2</title>
    <desc>Created with Sketch.</desc>
    <defs></defs>
    <g id="ETHindia" stroke="none" stroke-width="1" fill="none" fill-rule="evenodd" transform="translate(-298.000000, -2940.000000)">
        <path d="M308,2956 C304.686292,2956 302,2953.31371 302,2950 C302,2946.68629 304.686292,2944 308,2944 C311.313708,2944 314,2946.68629 314,2950 C314,2953.31371 311.313708,2956 308,2956 Z M307,2940 L309,2940 L309,2943 L307,2943 L307,2940 Z M307,2957 L309,2957 L309,2960 L307,2960 L307,2957 Z M318,2949 L318,2951 L315,2951 L315,2949 L318,2949 Z M301,2949 L301,2951 L298,2951 L298,2949 L301,2949 Z M314.363961,2942.22183 L315.778175,2943.63604 L313.656854,2945.75736 L312.242641,2944.34315 L314.363961,2942.22183 Z M302.343146,2954.24264 L303.757359,2955.65685 L301.636039,2957.77817 L300.221825,2956.36396 L302.343146,2954.24264 Z M315.778175,2956.36396 L314.363961,2957.77817 L312.242641,2955.65685 L313.656854,2954.24264 L315.778175,2956.36396 Z M303.757359,2944.34315 L302.343146,2945.75736 L300.221825,2943.63604 L301.636039,2942.22183 L303.757359,2944.34315 Z" id="Combined-Shape-Copy-2" fill="#CF9F07"></path>
    </g>
</svg>