<?xml version="1.0" encoding="UTF-8"?>
<svg width="19px" height="17px" viewBox="0 0 19 17" version="1.1" xmlns="http://www.w3.org/2000/svg" xmlns:xlink="http://www.w3.org/1999/xlink">
    <!-- Generator: Sketch 48.2 (47327) - http://www.bohemiancoding.com/sketch -->
    <title>Telegram</title>
    <desc>Created with Sketch.</desc>
    <defs></defs>
    <g id="ETHindia-Team" stroke="none" stroke-width="1" fill="none" fill-rule="evenodd" transform="translate(-1220.000000, -993.000000)">
        <g id="Group-2" transform="translate(1068.000000, 991.000000)">
            <g id="Telegram" transform="translate(151.000000, 0.000000)">
                <g transform="translate(1.000000, 2.000000)" fill-rule="nonzero" id="Layer_1">
                    <g>
                        <path d="M15.6607692,15.6176923 C15.6607692,15.6176923 15.25,16.6576923 14.1207692,16.1584615 L7.34461538,10.8969231 L4.88076923,9.69076923 L0.733076923,8.27692308 C0.733076923,8.27692308 0.0961538462,8.04846154 0.0346153846,7.54923077 C-0.0269230769,7.05 0.753076923,6.78 0.753076923,6.78 L17.2423077,0.229230769 C17.2415385,0.228461538 18.5969231,-0.374615385 18.5969231,0.623846154 L15.6607692,15.6176923 Z" id="Shape" fill="#00A7D3"></path>
                        <path d="M6.82307692,15.4484615 C6.82307692,15.4484615 6.62538462,15.43 6.37846154,14.6392308 C6.13230769,13.8492308 4.87923077,9.69 4.87923077,9.69 L14.8384615,3.28461538 C14.8384615,3.28461538 15.4130769,2.93076923 15.3930769,3.28461538 C15.3930769,3.28461538 15.4953846,3.34692308 15.1876923,3.63846154 C14.88,3.93 7.36384615,10.7715385 7.36384615,10.7715385" id="Shape" fill="#4CCDEF"></path>
                        <path d="M9.94230769,12.9138462 L7.26230769,15.3884615 C7.26230769,15.3884615 7.05307692,15.5492308 6.82384615,15.4484615 L7.33692308,10.8515385" id="Shape" fill="#0298C0"></path>
                    </g>
                </g>
                <rect id="Rectangle" x="0" y="0" width="20" height="20"></rect>
            </g>
        </g>
    </g>
</svg>