<?xml version="1.0" encoding="UTF-8"?>
<svg width="20px" height="20px" viewBox="0 0 20 20" version="1.1" xmlns="http://www.w3.org/2000/svg" xmlns:xlink="http://www.w3.org/1999/xlink">
    <!-- Generator: Sketch 48.2 (47327) - http://www.bohemiancoding.com/sketch -->
    <title>Twitter</title>
    <desc>Created with Sketch.</desc>
    <defs></defs>
    <g id="ETHindia-Team" stroke="none" stroke-width="1" fill="none" fill-rule="evenodd" transform="translate(-1068.000000, -991.000000)">
        <path d="M1071,991 L1084,991 C1086.20914,991 1088,992.790861 1088,995 L1088,1007 C1088,1009.20914 1086.20914,1011 1084,1011 L1072,1011 C1069.79086,1011 1068,1009.20914 1068,1007 L1068,994 C1068,992.343146 1069.34315,991 1071,991 Z M1085.22222,996.580556 C1084.6823,996.82456 1084.10827,996.984648 1083.52,997.055278 C1084.14189,996.675134 1084.60485,996.082392 1084.82306,995.386944 C1084.24281,995.737762 1083.60617,995.985405 1082.94139,996.118889 C1082.40083,995.533333 1081.63056,995.166667 1080.77833,995.166667 C1079.14194,995.166667 1077.815,996.516667 1077.815,998.182222 C1077.815,998.418333 1077.84111,998.648333 1077.89194,998.869167 C1075.42889,998.743333 1073.24528,997.543056 1071.78361,995.718611 C1071.51959,996.180294 1071.38128,996.703156 1071.3825,997.235 C1071.3789,998.238281 1071.87253,999.178193 1072.70056,999.744722 C1072.22921,999.729264 1071.76864,999.599728 1071.35833,999.367222 L1071.35806,999.405556 C1071.35806,1000.86611 1072.37972,1002.08472 1073.73528,1002.36222 C1073.29909,1002.48231 1072.84102,1002.4998 1072.39694,1002.41333 C1072.77417,1003.61139 1073.86861,1004.48361 1075.165,1004.50778 C1074.12081,1005.3442 1072.82261,1005.79953 1071.48472,1005.79861 C1071.24583,1005.79861 1071.00972,1005.78444 1070.77778,1005.75639 C1072.08972,1006.61222 1073.64722,1007.11111 1075.32056,1007.11111 C1080.77167,1007.11111 1083.75194,1002.51667 1083.75194,998.531667 C1083.75194,998.401111 1083.74917,998.270556 1083.74361,998.141111 C1084.32552,997.713178 1084.82627,997.184683 1085.22222,996.580556 Z" id="Twitter" fill="#363F47" fill-rule="nonzero"></path>
    </g>
</svg>