<svg width="150" height="41" viewBox="0 0 150 41" fill="none" xmlns="http://www.w3.org/2000/svg">
<path d="M8.21851 0L17.1219 30.6258L25.7762 2.67122H30.7572L39.9096 30.75L49.3733 0H57.6541L43.7698 40.3167H36.0494L28.4535 17.5803L20.9198 40.3167H13.1994L0 0H8.21851Z" fill="white"/>
<path d="M58.3901 0H84.4153V6.33636H65.7369V16.9591H83.2324V23.2955H65.7369V33.9182H84.4153V40.3167H58.3901V0Z" fill="white"/>
<path d="M88.7075 0H105.02C109.503 0 112.969 1.05606 115.418 3.16818C117.742 5.11465 118.904 7.6202 118.904 10.6848C118.904 12.9626 118.261 14.9091 116.974 16.5242C115.729 18.1394 113.965 19.2783 111.682 19.9409C113.965 20.3965 115.853 21.4318 117.348 23.047C118.842 24.6207 119.589 26.65 119.589 29.1348C119.589 34.1045 117.119 37.5005 112.18 39.3227C110.312 39.9854 107.946 40.3167 105.082 40.3167H88.7075V0ZM104.895 33.9182C107.261 33.9182 108.963 33.4419 110.001 32.4894C111.08 31.5369 111.62 30.2737 111.62 28.7C111.62 27.1263 111.059 25.8631 109.939 24.9106C108.859 23.9167 107.178 23.4197 104.895 23.4197H96.0543V33.9182H104.895ZM96.0543 17.0212H104.709C106.909 17.0212 108.569 16.5449 109.69 15.5924C110.81 14.6399 111.371 13.3561 111.371 11.7409C111.371 10.0843 110.81 8.7798 109.69 7.82728C108.61 6.83333 106.971 6.33636 104.771 6.33636H96.0543V17.0212Z" fill="white"/>
<path d="M148.506 11.2439C148.506 15.3854 146.223 18.2636 141.657 19.8788C144.147 20.5828 146.161 21.7424 147.696 23.3576C149.232 24.9727 150 27.0434 150 29.5697C150 33.0071 148.693 35.7818 146.078 37.8939C143.463 39.9646 140.017 41 135.742 41C131.467 41 127.814 39.9025 124.784 37.7076C121.796 35.4712 120.301 32.3444 120.301 28.3273H125.407C125.49 30.9778 126.465 33.0071 128.333 34.4152C130.242 35.8232 132.65 36.5273 135.555 36.5273C138.461 36.5273 140.702 35.8439 142.28 34.4773C143.898 33.0692 144.708 31.3505 144.708 29.3212C144.708 27.2505 143.94 25.5732 142.404 24.2894C140.868 22.9641 138.378 22.3015 134.933 22.3015H130.45V18.3879H133.501C136.489 18.3879 138.855 17.8081 140.599 16.6485C142.342 15.4475 143.214 13.853 143.214 11.8652C143.214 9.87727 142.508 8.24142 141.097 6.95758C139.685 5.67374 137.818 5.03182 135.493 5.03182C133.169 5.03182 131.218 5.44596 129.641 6.27424C128.105 7.06111 127.067 8.55202 126.527 10.747H121.422C121.879 7.3096 123.311 4.76263 125.718 3.10606C128.125 1.40808 131.218 0.559091 134.995 0.559091C138.814 0.559091 142.01 1.57374 144.583 3.60303C147.198 5.59091 148.506 8.13788 148.506 11.2439Z" fill="white"/>
</svg>
